<?xml version="1.0" standalone="no"?>
<!DOCTYPE svg PUBLIC "-//W3C//DTD SVG 20010904//EN"
 "http://www.w3.org/TR/2001/REC-SVG-20010904/DTD/svg10.dtd">
<svg version="1.0" xmlns="http://www.w3.org/2000/svg"
 width="256.000000pt" height="256.000000pt" viewBox="0 0 256.000000 256.000000"
 preserveAspectRatio="xMidYMid meet">

<g transform="translate(0.000000,256.000000) scale(0.100000,-0.100000)"
fill="#000000" stroke="none">
<path d="M1100 2461 c-350 -75 -618 -351 -685 -706 -32 -166 -5 -419 66 -622
108 -309 291 -586 579 -875 168 -168 194 -187 246 -174 33 9 316 290 408 406
216 271 369 581 421 851 26 136 30 309 10 414 -92 489 -564 808 -1045 706z
m385 -171 c125 -39 202 -86 300 -185 100 -99 146 -175 187 -305 20 -64 23 -95
22 -215 0 -159 -17 -253 -71 -409 -72 -208 -211 -438 -387 -642 -93 -109 -241
-254 -258 -254 -5 0 -60 51 -122 113 -246 246 -427 518 -519 783 -55 158 -71
250 -72 409 0 120 3 151 23 215 41 130 87 206 187 305 114 114 219 172 376
205 74 15 255 5 334 -20z"/>
<path d="M1186 1990 c-63 -16 -153 -70 -197 -117 -22 -24 -55 -74 -72 -111
-29 -61 -32 -76 -32 -163 0 -90 2 -99 37 -171 45 -91 103 -147 196 -191 61
-29 76 -32 163 -32 90 0 99 2 171 38 91 44 146 102 192 197 28 59 31 74 31
161 0 90 -2 99 -37 171 -68 136 -188 217 -336 224 -42 2 -94 -1 -116 -6z m175
-165 c88 -31 159 -131 159 -223 0 -126 -115 -242 -240 -242 -92 0 -195 72
-224 157 -67 195 112 376 305 308z"/>
</g>
</svg>
