<?xml version="1.0" encoding="UTF-8"?>
<svg version="1.1" xmlns="http://www.w3.org/2000/svg" width="256" height="256">
<path d="M0 0 C2.19826695 2.7319808 1.69193368 4.58806445 1.625 8.01953125 C3.42598955 10.986511 5.73972706 13.10160757 8.625 15.01953125 C12.33500718 15.43784529 12.33500718 15.43784529 15.625 15.01953125 C16.285 15.67953125 16.945 16.33953125 17.625 17.01953125 C17.563125 18.25703125 17.50125 19.49453125 17.4375 20.76953125 C17.31791933 24.23107703 17.83496538 25.79017816 20.125 28.39453125 C20.95 29.26078125 21.775 30.12703125 22.625 31.01953125 C22.625 31.67953125 22.625 32.33953125 22.625 33.01953125 C23.98625 32.86484375 23.98625 32.86484375 25.375 32.70703125 C28.625 33.01953125 28.625 33.01953125 30.5859375 35.09765625 C36.7936369 43.99298029 40.88784924 53.92747877 44 64.26953125 C44.23831543 65.05980713 44.47663086 65.85008301 44.72216797 66.66430664 C48.01973927 78.22485353 49.03676271 89.52050169 49 101.51953125 C48.99912384 102.22129486 48.99824768 102.92305847 48.99734497 103.64608765 C48.84868491 139.87850569 34.45663024 170.82355248 8.93139648 196.20117188 C-6.95703316 211.46946591 -26.31811188 221.05647589 -47.375 227.01953125 C-48.55320313 227.36113281 -49.73140625 227.70273438 -50.9453125 228.0546875 C-82.97628663 235.62244512 -119.29384407 229.12457686 -147.1953125 212.12109375 C-175.87886355 193.16316935 -195.03041352 167.01736543 -204.375 134.01953125 C-204.71660156 132.84132812 -205.05820313 131.663125 -205.41015625 130.44921875 C-212.94400248 98.56177657 -206.56213706 62.54402661 -189.734375 34.71484375 C-171.08867586 5.05681654 -142.62663106 -15.25244102 -108.75683594 -23.81738281 C-70.82875219 -32.3858019 -30.83516904 -23.278524 0 0 Z " fill="#EAF0F1" transform="translate(207.375,25.98046875)"/>
<path d="M0 0 C1.625 1.921875 1.625 1.921875 1.98046875 4.5390625 C1.625 6.921875 1.625 6.921875 -0.0625 8.796875 C-3.0418661 10.24629634 -4.22821593 9.83500431 -7.375 8.921875 C-9.48828125 7.57421875 -9.48828125 7.57421875 -11.6875 5.859375 C-36.42953997 -11.93306256 -68.64217535 -18.90596272 -98.6484375 -14.390625 C-129.50765921 -8.79924559 -157.85128869 8.70734659 -175.85693359 34.49902344 C-194.19236483 61.75258194 -200.26723796 92.68195934 -194.375 124.921875 C-188.90355157 150.46406936 -177.26151665 170.83903991 -158.375 188.921875 C-158.045 187.766875 -157.715 186.611875 -157.375 185.421875 C-153.64483068 174.30174758 -148.08945311 163.76315834 -140.375 154.921875 C-139.6015625 153.9525 -138.828125 152.983125 -138.03125 151.984375 C-125.74343922 137.26481777 -105.65982787 128.44818096 -86.86914062 126.68701172 C-64.78613534 125.20017772 -44.29764194 131.46198761 -27.375 145.921875 C-26.364375 146.685 -25.35375 147.448125 -24.3125 148.234375 C-12.63091666 158.92178104 -5.21154623 172.72713271 -1.375 187.921875 C1.94353528 187.921875 3.39212722 185.49746405 5.6875 183.234375 C22.03600985 166.7354105 33.54814587 143.01826058 36.625 119.921875 C36.73457031 119.11492187 36.84414062 118.30796875 36.95703125 117.4765625 C40.04101294 89.92632604 34.58065947 65.71022637 21.37109375 41.63671875 C20.27751013 39.12319408 20.81666375 37.48160647 21.625 34.921875 C23.625 32.921875 23.625 32.921875 26 32.484375 C28.625 32.921875 28.625 32.921875 30.546875 35.0078125 C36.83709886 43.82831438 40.89429033 53.85122703 44 64.171875 C44.23831543 64.96215088 44.47663086 65.75242676 44.72216797 66.56665039 C48.01973927 78.12719728 49.03676271 89.42284544 49 101.421875 C48.99912384 102.12363861 48.99824768 102.82540222 48.99734497 103.5484314 C48.84868491 139.78084944 34.45663024 170.72589623 8.93139648 196.10351562 C-6.95703316 211.37180966 -26.31811188 220.95881964 -47.375 226.921875 C-48.55320313 227.26347656 -49.73140625 227.60507813 -50.9453125 227.95703125 C-82.97628663 235.52478887 -119.29384407 229.02692061 -147.1953125 212.0234375 C-175.87886355 193.0655131 -195.03041352 166.91970918 -204.375 133.921875 C-204.71660156 132.74367187 -205.05820313 131.56546875 -205.41015625 130.3515625 C-212.94400248 98.46412032 -206.56213706 62.44637036 -189.734375 34.6171875 C-171.08867586 4.95916029 -142.62663106 -15.35009727 -108.75683594 -23.91503906 C-70.97728019 -32.44990385 -30.5734548 -23.53351455 0 0 Z " fill="#030303" transform="translate(207.375,26.078125)"/>
<path d="M0 0 C14.4631803 10.7242467 25.28377351 25.88243317 28.5234375 43.87109375 C28.8125 46.51171875 28.8125 46.51171875 28.5234375 48.87109375 C14.10668643 64.44919421 -16.08155793 70.16115998 -36.1796875 71.2265625 C-62.4591108 72.10232915 -88.34869499 64.83437142 -109.4765625 48.87109375 C-109.07860203 32.84414047 -100.77462764 17.95687792 -89.4765625 6.87109375 C-86.59948257 4.34356559 -83.61005107 2.07076122 -80.4765625 -0.12890625 C-79.73921875 -0.65484375 -79.001875 -1.18078125 -78.2421875 -1.72265625 C-54.98223353 -17.02114946 -22.69114441 -15.47123483 0 0 Z " fill="#CCCBF1" transform="translate(168.4765625,175.12890625)"/>
<path d="M0 0 C8.57642768 8.11550643 13.82885444 18.36859217 14.78125 30.16015625 C15.06872357 43.48540164 11.06246863 56.50311768 1.97265625 66.55078125 C-8.07069551 75.63669286 -21.09911088 79.65941014 -34.421875 79.35546875 C-44.20999014 78.57644033 -51.64426772 74.92669849 -59.46484375 69.11328125 C-60.11324219 68.63503906 -60.76164062 68.15679687 -61.4296875 67.6640625 C-65.79239815 63.89491793 -68.25280503 59.17713687 -70.83984375 54.11328125 C-71.18619873 53.436604 -71.53255371 52.75992676 -71.8894043 52.06274414 C-77.21659425 41.05713562 -76.67499267 28.60264189 -72.78515625 17.21875 C-67.93930514 5.82096412 -59.07078594 -2.80699167 -47.859375 -7.921875 C-31.52868239 -14.50210514 -13.75547255 -10.52914935 0 0 Z " fill="#CCCBF0" transform="translate(158.46484375,63.88671875)"/>
<path d="M0 0 C8.57642768 8.11550643 13.82885444 18.36859217 14.78125 30.16015625 C15.06872357 43.48540164 11.06246863 56.50311768 1.97265625 66.55078125 C-8.07069551 75.63669286 -21.09911088 79.65941014 -34.421875 79.35546875 C-44.20999014 78.57644033 -51.64426772 74.92669849 -59.46484375 69.11328125 C-60.11324219 68.63503906 -60.76164062 68.15679687 -61.4296875 67.6640625 C-65.79239815 63.89491793 -68.25280503 59.17713687 -70.83984375 54.11328125 C-71.18619873 53.436604 -71.53255371 52.75992676 -71.8894043 52.06274414 C-77.21659425 41.05713562 -76.67499267 28.60264189 -72.78515625 17.21875 C-67.93930514 5.82096412 -59.07078594 -2.80699167 -47.859375 -7.921875 C-31.52868239 -14.50210514 -13.75547255 -10.52914935 0 0 Z M-57.15234375 10.92578125 C-64.32276802 19.81710734 -66.61968231 28.77875465 -65.46484375 40.11328125 C-63.61956949 49.91916016 -57.89884796 57.8522449 -49.87109375 63.60546875 C-40.98784948 69.17191727 -32.31731889 70.5909632 -21.953125 68.640625 C-12.3535519 65.84284366 -4.34387489 59.62806432 0.75390625 51.06640625 C5.07633821 42.85378552 6.07380552 33.39097027 3.8515625 24.32421875 C-0.12627511 13.66163329 -6.88493657 7.00751203 -16.52734375 1.30078125 C-31.07192161 -4.57894172 -46.67149868 -0.33142272 -57.15234375 10.92578125 Z " fill="#040505" transform="translate(158.46484375,63.88671875)"/>
<path d="M0 0 C3 -0.3125 3 -0.3125 6 0 C8 2 8 2 8.3125 5 C8.1578125 6.485 8.1578125 6.485 8 8 C5 10 5 10 1.8125 9.625 C0.4203125 9.315625 0.4203125 9.315625 -1 9 C-1.625 6.1875 -1.625 6.1875 -2 3 C-1.34 2.01 -0.68 1.02 0 0 Z " fill="#050505" transform="translate(217,41)"/>
</svg>
