<?xml version="1.0" standalone="no"?>
<!DOCTYPE svg PUBLIC "-//W3C//DTD SVG 20010904//EN"
 "http://www.w3.org/TR/2001/REC-SVG-20010904/DTD/svg10.dtd">
<svg version="1.0" xmlns="http://www.w3.org/2000/svg"
 width="1134.000000pt" height="732.000000pt" viewBox="0 0 1134.000000 732.000000"
 preserveAspectRatio="xMidYMid meet">

<g transform="translate(0.000000,732.000000) scale(0.100000,-0.100000)"
fill="#000000" stroke="none">
<path d="M6621 5672 c-6 -2 -11 -12 -11 -22 0 -21 27 -30 90 -30 63 0 197 -34
274 -69 281 -127 473 -398 504 -711 6 -66 9 -75 27 -75 16 0 21 8 23 35 9 89
-47 298 -109 408 -146 259 -418 439 -696 460 -50 4 -97 6 -102 4z"/>
<path d="M6610 5271 c0 -20 25 -31 76 -31 40 0 131 -31 187 -65 52 -30 137
-117 162 -165 30 -58 55 -142 55 -184 0 -50 11 -69 36 -64 13 2 20 13 22 36 5
45 -32 172 -69 237 -82 145 -261 255 -416 255 -45 0 -53 -3 -53 -19z"/>
<path d="M5325 4594 c-313 -256 -581 -475 -594 -485 l-25 -20 22 -21 c15 -15
25 -18 34 -11 27 21 516 419 588 479 202 167 544 444 550 444 4 0 265 -211
581 -470 570 -466 574 -470 592 -449 9 12 17 24 17 28 -1 6 -1175 964 -1188
968 -4 2 -263 -207 -577 -463z"/>
<path d="M6642 4877 c-12 -13 -22 -33 -22 -45 0 -31 35 -62 68 -62 58 0 83 70
40 110 -29 26 -59 25 -86 -3z"/>
<path d="M5080 3538 c0 -391 2 -426 19 -464 10 -23 34 -52 52 -65 l34 -24 715
0 715 0 33 23 c18 13 41 41 52 62 19 37 20 61 20 465 l0 425 -30 0 -30 0 0
-425 0 -425 -29 -32 -29 -33 -684 -3 c-499 -2 -690 1 -711 9 -15 7 -37 23 -47
37 -19 24 -20 42 -20 448 l0 424 -30 0 -30 0 0 -422z"/>
<path d="M4500 2775 c-68 -73 26 -170 97 -99 20 20 24 31 19 57 -12 64 -74 86
-116 42z"/>
<path d="M3923 2783 l27 -4 0 -287 c0 -262 1 -285 16 -264 17 25 41 28 69 9
11 -8 32 -22 47 -31 l27 -17 -20 38 c-17 33 -20 57 -19 188 1 83 1 201 1 263
l-1 112 -87 -1 c-49 -1 -76 -4 -60 -6z"/>
<path d="M8856 2703 c-8 -36 -59 -91 -91 -99 l-25 -6 1 -142 c0 -77 6 -161 12
-186 16 -58 60 -90 128 -90 69 0 90 10 48 24 -52 17 -58 47 -58 300 0 120 -2
220 -5 223 -2 2 -7 -8 -10 -24z"/>
<path d="M4876 2697 c-7 -28 -74 -97 -93 -97 -19 0 -18 -308 1 -354 17 -41 67
-66 134 -66 57 0 77 15 32 23 -54 11 -60 40 -60 288 1 122 -1 223 -3 226 -3 2
-7 -7 -11 -20z"/>
<path d="M5793 2693 c9 -2 23 -2 30 0 6 3 -1 5 -18 5 -16 0 -22 -2 -12 -5z"/>
<path d="M2838 2683 c26 -5 24 16 23 -270 l-1 -223 65 0 65 0 0 244 0 245 23
4 c12 2 -27 4 -88 4 -60 0 -100 -2 -87 -4z"/>
<path d="M3158 2683 c22 -4 23 -7 22 -116 -1 -62 -1 -172 -1 -244 l1 -133 63
0 62 0 -3 244 -3 245 28 4 c15 2 -21 4 -82 4 -60 0 -100 -2 -87 -4z"/>
<path d="M5675 2666 c-85 -39 -125 -112 -125 -226 0 -116 41 -194 123 -235 50
-25 124 -37 84 -14 -9 5 -27 29 -39 52 -20 38 -23 57 -23 182 0 153 9 197 52
239 l26 26 -24 0 c-13 0 -47 -11 -74 -24z"/>
<path d="M5888 2669 c51 -26 89 -78 101 -140 7 -37 9 -28 10 60 1 103 1 103
-18 80 l-19 -24 -46 23 c-26 12 -52 22 -59 22 -6 0 7 -10 31 -21z"/>
<path d="M4135 2601 c-16 -7 -15 -9 12 -14 52 -10 76 -63 81 -174 5 -106 -9
-170 -44 -208 -20 -22 -21 -25 -5 -25 27 0 83 21 115 43 87 61 90 266 5 344
-43 39 -113 54 -164 34z"/>
<path d="M3638 2591 c36 -16 43 -53 40 -215 -3 -143 -2 -152 18 -168 28 -23
67 -31 109 -24 34 7 34 7 15 26 -18 18 -20 34 -20 150 0 188 -21 225 -131 236
-41 3 -49 2 -31 -5z"/>
<path d="M5276 2591 c32 -14 36 -33 40 -196 3 -82 7 -160 9 -172 7 -28 68 -48
120 -39 36 7 37 8 17 22 -19 13 -21 26 -24 157 -4 194 -19 220 -134 232 -36 4
-43 3 -28 -4z"/>
<path d="M6203 2584 c-109 -39 -162 -186 -107 -295 17 -34 66 -76 111 -94 40
-17 67 -20 41 -5 -36 21 -50 91 -46 217 5 124 16 164 52 181 32 16 -2 13 -51
-4z"/>
<path d="M6330 2587 c49 -24 61 -69 58 -207 -4 -133 -20 -189 -56 -191 -10 0
-12 -3 -5 -6 22 -8 119 43 146 79 83 108 35 279 -90 322 -56 19 -89 21 -53 3z"/>
<path d="M6821 2580 c-52 -24 -61 -25 -61 -5 0 12 -13 15 -60 15 l-60 0 0
-200 0 -200 63 0 62 0 0 171 c0 168 0 171 24 190 53 43 121 31 140 -23 6 -17
11 -100 11 -184 l0 -154 63 0 62 0 -5 163 c-4 135 -8 168 -23 191 -37 56 -135
72 -216 36z"/>
<path d="M7406 2575 c-44 -30 -46 -30 -46 -5 0 18 -7 20 -65 20 l-65 0 0 -200
0 -200 65 0 65 0 0 169 0 169 31 26 c17 14 39 26 50 26 35 0 78 -29 86 -58 4
-15 8 -96 8 -179 l0 -153 64 0 63 0 -4 158 c-3 133 -6 162 -23 189 -38 64
-161 84 -229 38z"/>
<path d="M7873 2574 c-41 -20 -56 -35 -73 -70 -26 -53 -30 -162 -7 -216 17
-39 64 -79 116 -97 47 -15 140 -13 176 5 17 8 21 12 10 8 -76 -22 -132 -10
-165 36 -52 73 -40 316 17 349 40 23 -23 11 -74 -15z"/>
<path d="M8014 2577 c25 -25 52 -138 44 -182 -5 -24 -4 -25 55 -25 l60 0 -7
53 c-10 73 -46 130 -99 156 -60 29 -83 28 -53 -2z"/>
<path d="M8365 2581 c-22 -10 -53 -31 -69 -46 -54 -50 -64 -181 -21 -264 30
-58 105 -91 205 -90 l55 0 -48 13 c-89 24 -119 75 -118 202 0 117 20 176 66
194 18 8 18 9 -5 9 -14 0 -43 -8 -65 -18z"/>
<path d="M8498 2593 c8 -3 12 -28 12 -72 0 -78 16 -101 68 -101 59 0 78 72 33
124 -18 21 -88 56 -111 55 -10 0 -11 -2 -2 -6z"/>
<path d="M3515 2578 c-68 -37 -85 -91 -39 -127 50 -40 103 12 83 82 -5 21 -7
42 -4 47 8 13 -15 12 -40 -2z"/>
<path d="M4485 2390 l0 -200 63 0 62 0 0 200 0 200 -62 0 -63 0 0 -200z"/>
<path d="M5150 2579 c-41 -16 -60 -40 -60 -74 0 -56 47 -88 85 -59 16 12 20
27 20 79 0 67 -3 71 -45 54z"/>
<path d="M3525 2375 c-51 -18 -95 -66 -95 -105 0 -65 73 -103 167 -85 l38 7
-31 13 c-66 28 -84 100 -38 154 29 35 21 38 -41 16z"/>
<path d="M5167 2378 c-102 -27 -133 -142 -50 -186 25 -14 98 -15 128 -2 18 7
18 8 -8 15 -37 10 -57 41 -57 91 0 35 5 47 31 68 34 29 24 32 -44 14z"/>
<path d="M5959 2243 c-13 -16 -12 -17 4 -4 16 13 21 21 13 21 -2 0 -10 -8 -17
-17z"/>
<path d="M3100 1833 c0 -5 8 -17 17 -28 14 -18 15 -18 9 -2 -3 10 -6 23 -6 28
0 5 -4 9 -10 9 -5 0 -10 -3 -10 -7z"/>
<path d="M4540 1819 c-7 -11 -10 -23 -7 -25 2 -2 9 7 15 21 14 30 7 33 -8 4z"/>
<path d="M9842 1815 c-13 -29 -5 -33 14 -7 15 20 18 32 6 32 -5 0 -14 -11 -20
-25z"/>
<path d="M2360 1691 c0 -147 8 -172 47 -156 16 6 16 8 -4 16 -22 8 -23 13 -23
144 0 83 -4 135 -10 135 -6 0 -10 -53 -10 -139z"/>
<path d="M3482 1695 c-2 -146 2 -165 40 -165 25 0 23 13 -4 25 -22 9 -23 17
-28 145 l-6 135 -2 -140z"/>
<path d="M4292 1695 c3 -149 13 -175 59 -159 l24 8 -25 6 c-25 6 -25 6 -28
143 -2 116 -5 137 -18 137 -13 0 -15 -18 -12 -135z"/>
<path d="M8352 1695 c-1 -99 2 -145 10 -153 15 -15 48 -16 48 -2 0 6 -6 10
-14 10 -26 0 -31 22 -37 155 l-5 130 -2 -140z"/>
<path d="M9630 1765 c0 -36 -3 -65 -7 -65 -3 0 -15 7 -25 17 -26 23 -77 19
-105 -10 -19 -19 -25 -35 -25 -71 0 -57 21 -92 60 -101 31 -6 82 9 82 25 0 17
18 11 23 -7 3 -10 5 48 6 130 0 81 -1 147 -4 147 -3 0 -5 -29 -5 -65z m-45
-51 c20 -8 45 -56 45 -87 0 -40 -36 -77 -75 -77 -24 0 -39 7 -54 26 -26 33
-27 70 -1 112 20 32 47 40 85 26z"/>
<path d="M10280 1694 c0 -152 7 -172 58 -159 l27 8 -25 6 c-25 7 -25 7 -28
144 -2 113 -5 137 -17 137 -13 0 -15 -23 -15 -136z"/>
<path d="M2502 1808 c6 -18 28 -21 28 -4 0 9 -7 16 -16 16 -9 0 -14 -5 -12
-12z"/>
<path d="M8492 1808 c6 -18 28 -21 28 -4 0 9 -7 16 -16 16 -9 0 -14 -5 -12
-12z"/>
<path d="M9340 1805 c0 -9 5 -15 11 -13 6 2 11 8 11 13 0 5 -5 11 -11 13 -6 2
-11 -4 -11 -13z"/>
<path d="M1340 1669 l0 -131 75 4 c97 5 126 29 133 111 8 101 -40 147 -153
147 l-55 0 0 -131z m99 115 c17 -4 45 -19 61 -34 26 -24 30 -35 30 -82 0 -64
-24 -94 -87 -109 -86 -20 -83 -24 -83 111 0 134 -3 130 79 114z"/>
<path d="M5199 1765 c-3 -23 -10 -31 -29 -34 l-25 -4 25 -6 c24 -7 25 -11 28
-89 3 -77 5 -84 27 -94 18 -8 31 -8 47 0 23 11 23 11 -4 11 -46 1 -59 25 -56
100 l3 66 40 6 40 5 -40 5 c-35 3 -41 8 -46 34 l-6 30 -4 -30z"/>
<path d="M7558 1784 c-5 -4 -8 -16 -8 -26 0 -10 -10 -23 -22 -28 l-23 -9 23 0
c20 -1 22 -5 22 -65 0 -73 11 -110 35 -120 21 -8 65 3 65 16 0 5 -9 7 -20 3
-10 -3 -29 -1 -40 5 -19 10 -21 19 -18 83 l3 72 40 6 40 5 -40 5 c-35 3 -41 8
-45 32 -3 16 -8 25 -12 21z"/>
<path d="M2153 1729 c-62 -18 -84 -113 -39 -166 31 -36 95 -39 128 -6 12 13
19 26 15 30 -4 4 -14 -3 -23 -15 -20 -29 -76 -30 -104 -2 -32 32 -23 117 14
142 20 14 76 9 82 -7 4 -8 13 -15 22 -15 14 0 13 3 -3 19 -27 25 -53 31 -92
20z"/>
<path d="M2683 1726 c-39 -18 -53 -43 -53 -94 0 -48 29 -88 69 -97 36 -8 101
18 101 39 0 21 -6 20 -30 -4 -48 -48 -115 -10 -115 65 0 54 25 85 70 85 18 0
38 -7 45 -15 7 -8 17 -15 23 -15 20 0 -27 39 -53 44 -14 3 -39 -1 -57 -8z"/>
<path d="M3094 1730 c-12 -4 -24 -16 -27 -25 -6 -15 -5 -15 15 0 30 20 71 19
91 -3 29 -32 21 -50 -25 -57 -81 -14 -112 -48 -83 -91 18 -28 47 -31 88 -9 25
13 30 13 44 0 17 -17 29 -19 38 -5 3 6 0 10 -8 10 -11 0 -16 18 -19 75 -2 49
-9 80 -18 89 -20 19 -70 27 -96 16z m96 -125 c0 -42 -69 -71 -109 -46 -12 8
-13 15 -3 35 8 18 23 27 54 34 52 10 58 8 58 -23z"/>
<path d="M3665 1730 c-24 -9 -52 -40 -37 -40 5 0 15 7 22 15 18 22 77 19 90
-4 19 -36 12 -50 -27 -57 -78 -14 -113 -46 -93 -85 15 -27 54 -34 91 -15 27
14 33 14 46 1 16 -17 43 -20 43 -5 0 6 -6 10 -14 10 -10 0 -15 19 -18 75 -2
49 -8 79 -18 89 -20 18 -60 26 -85 16z m85 -124 c0 -29 -34 -56 -70 -56 -38 0
-53 14 -45 39 8 26 36 39 83 40 27 1 32 -2 32 -23z"/>
<path d="M4083 1726 c-40 -18 -53 -43 -53 -99 0 -34 6 -49 26 -68 34 -32 95
-33 126 -2 12 13 19 25 16 29 -4 3 -16 -4 -27 -15 -70 -70 -163 43 -100 123
26 33 83 37 99 6 6 -11 16 -18 22 -14 14 9 -21 41 -52 48 -14 3 -39 -1 -57 -8z"/>
<path d="M4504 1733 c-35 -7 -57 -39 -61 -90 -6 -58 19 -97 67 -107 36 -7 105
18 95 34 -4 7 -14 5 -28 -5 -46 -32 -117 -4 -117 45 0 18 7 20 75 20 l75 0 0
30 c0 28 -29 70 -49 70 -5 0 -15 2 -23 4 -7 2 -23 1 -34 -1z m75 -39 c12 -15
21 -31 21 -35 0 -5 -31 -9 -70 -9 -77 0 -88 12 -50 50 29 29 74 26 99 -6z"/>
<path d="M5427 1720 c-24 -19 -26 -20 -36 -3 -8 13 -10 -9 -9 -82 l1 -100 7
74 c7 78 28 111 71 111 10 0 19 5 19 10 0 16 -25 11 -53 -10z"/>
<path d="M5603 1725 c-39 -17 -53 -42 -53 -93 0 -73 57 -114 126 -92 84 28 85
160 2 189 -38 13 -36 13 -75 -4z m93 -30 c37 -57 9 -145 -47 -145 -68 0 -106
97 -59 148 30 31 84 30 106 -3z"/>
<path d="M6405 1726 c-61 -26 -75 -118 -26 -167 16 -16 39 -29 51 -29 32 0 92
28 85 40 -4 6 -12 5 -21 -5 -36 -35 -124 -6 -124 41 0 23 2 24 75 24 l75 0 0
28 c0 30 -31 66 -65 75 -11 3 -34 0 -50 -7z m84 -32 c12 -15 21 -31 21 -35 0
-5 -31 -9 -70 -9 -76 0 -87 10 -53 50 26 30 76 27 102 -6z"/>
<path d="M7303 1725 c-38 -16 -53 -42 -53 -89 0 -49 7 -63 46 -86 25 -16 42
-19 69 -14 93 17 103 162 13 193 -38 13 -36 13 -75 -4z m96 -31 c62 -78 -24
-186 -100 -126 -28 24 -31 103 -3 133 26 29 78 25 103 -7z"/>
<path d="M7787 1722 c-24 -15 -29 -15 -37 -2 -7 10 -9 -18 -8 -85 l1 -100 7
74 c7 78 28 111 72 111 10 0 16 5 13 10 -8 14 -15 12 -48 -8z"/>
<path d="M7963 1725 c-39 -17 -53 -42 -53 -94 0 -28 7 -48 24 -68 20 -24 32
-28 71 -27 31 1 52 7 63 19 16 17 16 17 -3 10 -11 -5 -36 -10 -55 -12 -40 -5
-77 18 -82 52 -3 18 3 20 75 23 74 3 77 4 77 27 0 28 -36 71 -65 79 -11 3 -34
-1 -52 -9z m79 -22 c38 -45 32 -53 -42 -53 -77 0 -88 12 -50 50 25 25 72 26
92 3z"/>
<path d="M8683 1733 c-61 -12 -87 -127 -40 -171 32 -31 78 -37 116 -18 17 9
29 21 25 27 -4 7 -12 5 -23 -5 -10 -9 -29 -16 -44 -16 -34 0 -82 41 -74 63 5
14 21 17 82 17 73 0 75 1 75 24 0 51 -60 91 -117 79z m69 -30 c10 -9 18 -24
18 -35 0 -16 -8 -18 -65 -18 -36 0 -65 3 -65 6 0 11 23 49 34 56 19 13 59 9
78 -9z"/>
<path d="M9803 1725 c-39 -17 -53 -42 -53 -94 0 -60 35 -96 94 -96 31 0 51 6
63 19 17 18 17 19 -2 11 -11 -5 -36 -10 -57 -13 -41 -4 -78 23 -78 58 0 18 7
20 75 20 73 0 75 1 75 24 0 38 -10 56 -41 71 -34 18 -35 18 -76 0z m74 -13 c6
-4 16 -20 22 -35 l11 -27 -70 0 c-56 0 -70 3 -70 15 0 39 71 70 107 47z"/>
<path d="M10053 1725 c-18 -8 -33 -19 -33 -25 0 -15 16 -12 30 5 15 18 64 20
78 3 5 -7 12 -22 16 -34 5 -18 0 -22 -46 -33 -86 -19 -114 -64 -62 -98 25 -16
30 -16 70 -1 24 8 44 12 44 8 0 -11 30 -21 42 -14 5 3 3 11 -5 17 -10 8 -17
36 -19 80 -2 41 -10 73 -18 81 -23 23 -62 27 -97 11z m91 -132 c-11 -32 -49
-49 -88 -39 -54 13 -25 60 49 76 39 9 51 -3 39 -37z"/>
<path d="M1660 1680 c-8 -88 -2 -118 27 -137 24 -16 29 -16 71 0 36 12 48 13
54 4 4 -7 7 33 6 88 l-1 100 -7 -72 c-7 -85 -26 -113 -75 -113 -46 0 -59 22
-65 109 l-6 76 -4 -55z"/>
<path d="M2510 1635 c0 -57 4 -95 10 -95 6 0 10 38 10 95 0 57 -4 95 -10 95
-6 0 -10 -38 -10 -95z"/>
<path d="M4880 1715 c0 -8 7 -15 15 -15 8 0 15 7 15 15 0 8 -7 15 -15 15 -8 0
-15 -7 -15 -15z"/>
<path d="M5838 1668 c-4 -79 6 -112 38 -127 33 -15 43 -14 79 5 19 10 31 11
33 5 2 -6 8 -11 13 -11 5 0 9 43 9 95 0 57 -4 95 -10 95 -6 0 -10 -28 -10 -65
0 -57 -3 -69 -25 -90 -28 -28 -66 -32 -89 -9 -12 11 -16 36 -16 90 0 90 -18
99 -22 12z"/>
<path d="M6100 1723 c0 -4 16 -48 36 -96 26 -61 42 -87 52 -85 8 2 25 30 37
63 12 33 27 70 33 82 13 24 16 51 5 39 -4 -4 -21 -41 -38 -83 -17 -42 -35 -78
-40 -80 -6 -2 -23 33 -39 77 -25 70 -46 108 -46 83z"/>
<path d="M6673 1723 c37 -2 67 -7 67 -12 0 -4 -29 -42 -65 -83 -36 -42 -65
-79 -65 -82 0 -3 37 -5 83 -4 l82 2 -72 5 -72 6 69 80 c38 44 70 83 70 88 0 4
-37 6 -82 5 l-83 -2 68 -3z"/>
<path d="M7030 1638 c51 -122 62 -122 112 -4 35 83 41 113 18 90 -5 -5 -22
-43 -37 -84 -16 -41 -33 -74 -38 -72 -6 1 -23 38 -40 82 -16 44 -35 80 -42 80
-7 0 3 -35 27 -92z"/>
<path d="M8500 1635 c0 -57 4 -95 10 -95 6 0 10 38 10 95 0 57 -4 95 -10 95
-6 0 -10 -38 -10 -95z"/>
<path d="M8896 1708 c-3 -13 -6 -47 -6 -76 0 -45 4 -57 26 -77 31 -28 57 -31
96 -11 16 9 30 11 33 5 17 -27 25 1 25 86 0 111 -16 128 -22 24 -3 -60 -8 -74
-27 -90 -26 -21 -71 -25 -89 -7 -7 7 -12 43 -12 90 0 75 -11 102 -24 56z"/>
<path d="M9340 1635 c0 -57 4 -95 10 -95 6 0 10 38 10 95 0 57 -4 95 -10 95
-6 0 -10 -38 -10 -95z"/>
<path d="M4882 1554 c4 -21 22 -23 26 -1 2 10 -3 17 -13 17 -10 0 -15 -6 -13
-16z"/>
<path d="M10426 1562 c-8 -13 11 -35 23 -28 16 10 14 36 -3 36 -8 0 -17 -4
-20 -8z"/>
</g>
</svg>
