<?xml version="1.0" encoding="UTF-8"?>
<svg version="1.1" xmlns="http://www.w3.org/2000/svg" width="256" height="256">
<path d="M0 0 C3.80332896 1.8141787 7.44808281 3.81731039 11.1015625 5.9140625 C11.96620117 6.40777344 12.83083984 6.90148437 13.72167969 7.41015625 C18.76803786 10.30370229 23.78912831 13.23669422 28.79296875 16.203125 C32.9991332 18.69426235 37.23373317 21.12033293 41.50390625 23.5 C43.02564453 24.36117432 43.02564453 24.36117432 44.578125 25.23974609 C46.51327663 26.33401307 48.45706242 27.41318593 50.41015625 28.47509766 C56.85720292 32.16272201 56.85720292 32.16272201 58.19921875 36.2890625 C58.16699219 37.1553125 58.13476562 38.0215625 58.1015625 38.9140625 C60.83277296 39.55670025 63.1244341 39.91294912 65.94018555 39.77587891 C69.58210661 39.93506705 71.41730942 40.81556223 74.55859375 42.625 C76.09205444 43.49596313 76.09205444 43.49596313 77.65649414 44.38452148 C78.7314917 45.01302002 79.80648926 45.64151855 80.9140625 46.2890625 C82.57779907 47.24437866 82.57779907 47.24437866 84.27514648 48.21899414 C86.51161732 49.50597247 88.74482356 50.79864179 90.97460938 52.09716797 C93.72003765 53.69238012 96.47673677 55.26409337 99.2421875 56.82421875 C117.94946332 67.45776496 117.94946332 67.45776496 120.1015625 73.9140625 C121.54041656 82.42851849 119.13685259 88.08663436 114.38671875 95.140625 C110.29249442 100.10968359 106.75098355 101.59430479 100.4765625 102.3515625 C97.1015625 101.9140625 97.1015625 101.9140625 91.1015625 98.9140625 C90.6065625 145.9390625 90.6065625 145.9390625 90.1015625 193.9140625 C93.0715625 194.9040625 93.0715625 194.9040625 96.1015625 195.9140625 C101.8650001 199.83320007 104.95071547 204.44695888 106.6953125 211.21875 C107.19221194 214.51548664 107.27136784 217.70538935 107.2890625 221.0390625 C107.30324219 222.25851563 107.31742188 223.47796875 107.33203125 224.734375 C107.1015625 227.9140625 107.1015625 227.9140625 105.1015625 230.9140625 C102.35668755 231.28320599 102.35668755 231.28320599 98.78683472 231.27482605 C98.13175749 231.27738932 97.47668026 231.2799526 96.80175221 231.28259355 C94.59659193 231.28755313 92.3921094 231.27100375 90.18701172 231.25463867 C88.61038224 231.25379286 87.03375159 231.25426663 85.4571228 231.25596619 C81.16801904 231.25682938 76.87916532 231.23915142 72.59011984 231.21824431 C68.11112824 231.19953133 63.63213135 231.19773133 59.15310669 231.19416809 C50.66745205 231.18483177 42.18191291 231.16019659 33.69630921 231.13011962 C24.03745441 231.09662491 14.37859419 231.08010202 4.71969581 231.06503332 C-15.15307984 231.03364836 -35.02575141 230.98085711 -54.8984375 230.9140625 C-55.5584375 229.5940625 -56.2184375 228.2740625 -56.8984375 226.9140625 C-59.2084375 226.9140625 -61.5184375 226.9140625 -63.8984375 226.9140625 C-63.8984375 227.9040625 -63.8984375 228.8940625 -63.8984375 229.9140625 C-66.45351604 231.19160177 -68.28189207 231.05498751 -71.14257812 231.07519531 C-72.78438049 231.08960663 -72.78438049 231.08960663 -74.45935059 231.10430908 C-76.23904236 231.1106839 -76.23904236 231.1106839 -78.0546875 231.1171875 C-79.87450134 231.12573761 -79.87450134 231.12573761 -81.7310791 231.13446045 C-84.30003993 231.14391882 -86.86901293 231.15044774 -89.43798828 231.15429688 C-93.3820488 231.16402209 -97.3255927 231.19504645 -101.26953125 231.2265625 C-103.76041356 231.23309026 -106.25129961 231.23834162 -108.7421875 231.2421875 C-110.52187927 231.2607077 -110.52187927 231.2607077 -112.33752441 231.27960205 C-113.97932678 231.2751004 -113.97932678 231.2751004 -115.65429688 231.27050781 C-116.62089233 231.27415344 -117.58748779 231.27779907 -118.58337402 231.28155518 C-119.34734497 231.16028259 -120.11131592 231.03901001 -120.8984375 230.9140625 C-124.64492399 225.29433277 -123.50267463 217.45923505 -122.3984375 210.98046875 C-120.51851692 203.96281066 -117.5485635 199.33373254 -111.2109375 195.5390625 C-107.8984375 193.9140625 -107.8984375 193.9140625 -105.8984375 193.9140625 C-106.2284375 162.5640625 -106.5584375 131.2140625 -106.8984375 98.9140625 C-108.8784375 99.9040625 -110.8584375 100.8940625 -112.8984375 101.9140625 C-118.72575381 102.66945536 -123.2650726 101.45722389 -127.8984375 97.9140625 C-130.24373405 95.09245848 -132.12545913 92.12123356 -133.8984375 88.9140625 C-134.27613281 88.27339844 -134.65382812 87.63273437 -135.04296875 86.97265625 C-137.07583666 82.08077776 -136.67363591 75.89512509 -134.7734375 71.0390625 C-129.46308739 65.02066571 -122.90533227 61.44170112 -115.96716309 57.55731201 C-114.10684636 56.51577687 -112.25070167 55.46713414 -110.39550781 54.41650391 C-108.46800434 53.3250516 -106.54026315 52.23404574 -104.61126709 51.14523315 C-98.26818132 47.56483318 -91.95520128 43.93303434 -85.6484375 40.2890625 C-84.58012695 39.67240723 -83.51181641 39.05575195 -82.41113281 38.42041016 C-75.22890984 34.2709479 -68.06079324 30.09770355 -60.8984375 25.9140625 C-52.27965689 20.88249218 -43.65779843 15.8563485 -35.0234375 10.8515625 C-33.95996094 10.23216797 -32.89648438 9.61277344 -31.80078125 8.97460938 C-9.8869821 -3.70428709 -9.8869821 -3.70428709 0 0 Z " fill="#F7F4F7" transform="translate(135.8984375,13.0859375)"/>
<path d="M0 0 C3.80332896 1.8141787 7.44808281 3.81731039 11.1015625 5.9140625 C11.96620117 6.40777344 12.83083984 6.90148437 13.72167969 7.41015625 C18.76803786 10.30370229 23.78912831 13.23669422 28.79296875 16.203125 C32.9991332 18.69426235 37.23373317 21.12033293 41.50390625 23.5 C43.02564453 24.36117432 43.02564453 24.36117432 44.578125 25.23974609 C46.51327663 26.33401307 48.45706242 27.41318593 50.41015625 28.47509766 C56.85720292 32.16272201 56.85720292 32.16272201 58.19921875 36.2890625 C58.16699219 37.1553125 58.13476562 38.0215625 58.1015625 38.9140625 C60.83277296 39.55670025 63.1244341 39.91294912 65.94018555 39.77587891 C69.58210661 39.93506705 71.41730942 40.81556223 74.55859375 42.625 C76.09205444 43.49596313 76.09205444 43.49596313 77.65649414 44.38452148 C78.7314917 45.01302002 79.80648926 45.64151855 80.9140625 46.2890625 C82.57779907 47.24437866 82.57779907 47.24437866 84.27514648 48.21899414 C86.51161732 49.50597247 88.74482356 50.79864179 90.97460938 52.09716797 C93.72003765 53.69238012 96.47673677 55.26409337 99.2421875 56.82421875 C117.94946332 67.45776496 117.94946332 67.45776496 120.1015625 73.9140625 C121.54041656 82.42851849 119.13685259 88.08663436 114.38671875 95.140625 C110.29249442 100.10968359 106.75098355 101.59430479 100.4765625 102.3515625 C97.1015625 101.9140625 97.1015625 101.9140625 91.1015625 98.9140625 C90.6065625 145.9390625 90.6065625 145.9390625 90.1015625 193.9140625 C93.0715625 194.9040625 93.0715625 194.9040625 96.1015625 195.9140625 C101.8650001 199.83320007 104.95071547 204.44695888 106.6953125 211.21875 C107.19221194 214.51548664 107.27136784 217.70538935 107.2890625 221.0390625 C107.30324219 222.25851563 107.31742188 223.47796875 107.33203125 224.734375 C107.1015625 227.9140625 107.1015625 227.9140625 105.1015625 230.9140625 C102.35668755 231.28320599 102.35668755 231.28320599 98.78683472 231.27482605 C98.13175749 231.27738932 97.47668026 231.2799526 96.80175221 231.28259355 C94.59659193 231.28755313 92.3921094 231.27100375 90.18701172 231.25463867 C88.61038224 231.25379286 87.03375159 231.25426663 85.4571228 231.25596619 C81.16801904 231.25682938 76.87916532 231.23915142 72.59011984 231.21824431 C68.11112824 231.19953133 63.63213135 231.19773133 59.15310669 231.19416809 C50.66745205 231.18483177 42.18191291 231.16019659 33.69630921 231.13011962 C24.03745441 231.09662491 14.37859419 231.08010202 4.71969581 231.06503332 C-15.15307984 231.03364836 -35.02575141 230.98085711 -54.8984375 230.9140625 C-55.5584375 229.5940625 -56.2184375 228.2740625 -56.8984375 226.9140625 C-59.2084375 226.9140625 -61.5184375 226.9140625 -63.8984375 226.9140625 C-63.8984375 227.9040625 -63.8984375 228.8940625 -63.8984375 229.9140625 C-66.45351604 231.19160177 -68.28189207 231.05498751 -71.14257812 231.07519531 C-72.78438049 231.08960663 -72.78438049 231.08960663 -74.45935059 231.10430908 C-76.23904236 231.1106839 -76.23904236 231.1106839 -78.0546875 231.1171875 C-79.87450134 231.12573761 -79.87450134 231.12573761 -81.7310791 231.13446045 C-84.30003993 231.14391882 -86.86901293 231.15044774 -89.43798828 231.15429688 C-93.3820488 231.16402209 -97.3255927 231.19504645 -101.26953125 231.2265625 C-103.76041356 231.23309026 -106.25129961 231.23834162 -108.7421875 231.2421875 C-110.52187927 231.2607077 -110.52187927 231.2607077 -112.33752441 231.27960205 C-113.97932678 231.2751004 -113.97932678 231.2751004 -115.65429688 231.27050781 C-116.62089233 231.27415344 -117.58748779 231.27779907 -118.58337402 231.28155518 C-119.34734497 231.16028259 -120.11131592 231.03901001 -120.8984375 230.9140625 C-124.64492399 225.29433277 -123.50267463 217.45923505 -122.3984375 210.98046875 C-120.51851692 203.96281066 -117.5485635 199.33373254 -111.2109375 195.5390625 C-107.8984375 193.9140625 -107.8984375 193.9140625 -105.8984375 193.9140625 C-106.2284375 162.5640625 -106.5584375 131.2140625 -106.8984375 98.9140625 C-108.8784375 99.9040625 -110.8584375 100.8940625 -112.8984375 101.9140625 C-118.72575381 102.66945536 -123.2650726 101.45722389 -127.8984375 97.9140625 C-130.24373405 95.09245848 -132.12545913 92.12123356 -133.8984375 88.9140625 C-134.27613281 88.27339844 -134.65382812 87.63273437 -135.04296875 86.97265625 C-137.07583666 82.08077776 -136.67363591 75.89512509 -134.7734375 71.0390625 C-129.46308739 65.02066571 -122.90533227 61.44170112 -115.96716309 57.55731201 C-114.10684636 56.51577687 -112.25070167 55.46713414 -110.39550781 54.41650391 C-108.46800434 53.3250516 -106.54026315 52.23404574 -104.61126709 51.14523315 C-98.26818132 47.56483318 -91.95520128 43.93303434 -85.6484375 40.2890625 C-84.58012695 39.67240723 -83.51181641 39.05575195 -82.41113281 38.42041016 C-75.22890984 34.2709479 -68.06079324 30.09770355 -60.8984375 25.9140625 C-52.27965689 20.88249218 -43.65779843 15.8563485 -35.0234375 10.8515625 C-33.95996094 10.23216797 -32.89648438 9.61277344 -31.80078125 8.97460938 C-9.8869821 -3.70428709 -9.8869821 -3.70428709 0 0 Z M-14.16015625 43.52734375 C-15.1874585 44.11056396 -16.21476074 44.69378418 -17.27319336 45.29467773 C-18.36639893 45.93219971 -19.45960449 46.56972168 -20.5859375 47.2265625 C-21.71717041 47.87375244 -22.84840332 48.52094238 -24.01391602 49.18774414 C-27.31702263 51.08265333 -30.60966897 52.99439768 -33.8984375 54.9140625 C-34.69572266 55.37844727 -35.49300781 55.84283203 -36.31445312 56.32128906 C-39.66568355 58.2774724 -43.00707071 60.24958949 -46.34375 62.23046875 C-52.10093754 65.63839884 -57.91032131 68.95582261 -63.7109375 72.2890625 C-71.99969062 77.05857186 -80.25896334 81.87163177 -88.4609375 86.7890625 C-89.30567627 87.2948584 -90.15041504 87.8006543 -91.02075195 88.32177734 C-94.65950267 90.35110899 -94.65950267 90.35110899 -97.8984375 92.9140625 C-97.99377403 96.019135 -98.02394876 99.10192708 -98.01196289 102.20727539 C-98.01210892 103.18277847 -98.01225494 104.15828156 -98.0124054 105.16334534 C-98.01170583 108.40449203 -98.00391141 111.64558204 -97.99609375 114.88671875 C-97.99422972 117.12731393 -97.99280575 119.36790952 -97.99180603 121.60850525 C-97.98797963 127.5186576 -97.9781483 133.42878555 -97.96710205 139.33892822 C-97.95689056 145.36462067 -97.95230897 151.39031703 -97.94726562 157.41601562 C-97.93652614 169.24870866 -97.91944826 181.08138356 -97.8984375 192.9140625 C-97.07859375 193.22859375 -96.25875 193.543125 -95.4140625 193.8671875 C-94.33640625 194.29515625 -93.25875 194.723125 -92.1484375 195.1640625 C-91.08109375 195.58171875 -90.01375 195.999375 -88.9140625 196.4296875 C-85.90061879 197.91298881 -84.10165433 199.41137931 -81.8984375 201.9140625 C-79.13248649 200.69704406 -76.85827832 199.16265404 -74.4609375 197.3515625 C-71.58186576 195.27325169 -69.50957849 194.18489807 -65.8984375 193.9140625 C-64.8259375 193.8109375 -63.7534375 193.7078125 -62.6484375 193.6015625 C-55.49732 194.19748896 -49.63527168 197.79530976 -43.8984375 201.9140625 C-43.37894531 201.50414062 -42.85945313 201.09421875 -42.32421875 200.671875 C-35.88235323 195.69461106 -31.29819188 193.11881948 -22.8984375 193.9140625 C-18.19179988 195.04365553 -14.8490148 197.16583481 -10.8984375 199.9140625 C-9.57376004 200.597767 -8.24198859 201.26823537 -6.8984375 201.9140625 C-6.47433594 201.50414062 -6.05023438 201.09421875 -5.61328125 200.671875 C-0.06723756 195.57682827 5.19429291 193.34276672 12.91796875 193.5234375 C18.94527048 194.60166679 24.35007595 198.19787692 29.1015625 201.9140625 C29.9471875 201.1509375 30.7928125 200.3878125 31.6640625 199.6015625 C37.46816029 194.81691983 42.73365831 193.3293082 50.1015625 193.9140625 C54.80820012 195.04365553 58.1509852 197.16583481 62.1015625 199.9140625 C63.4207207 200.60835629 64.74805656 201.28936745 66.1015625 201.9140625 C66.1015625 201.2540625 66.1015625 200.5940625 66.1015625 199.9140625 C66.6584375 199.6459375 67.2153125 199.3778125 67.7890625 199.1015625 C70.14673625 197.93998559 70.14673625 197.93998559 72.4140625 196.4140625 C75.54959283 194.66399906 78.64649428 193.85377625 82.1015625 192.9140625 C82.31011815 179.97961891 82.47002042 167.04557537 82.56787205 154.10979271 C82.61483752 148.10302714 82.67853408 142.09741199 82.78051758 136.09130859 C82.87832925 130.29459975 82.93212496 124.49899702 82.95545769 118.70152664 C82.97208404 116.49018561 83.00455335 114.278905 83.05313301 112.06803513 C83.11851839 108.9689957 83.12746383 105.87452087 83.12329102 102.77490234 C83.17182724 101.40464905 83.17182724 101.40464905 83.22134399 100.00671387 C83.18275558 97.35659947 83.04742761 95.39376492 82.1015625 92.9140625 C79.38552774 90.31675407 76.42849456 88.62325304 73.1015625 86.9140625 C72.04187256 86.27791016 70.98218262 85.64175781 69.89038086 84.98632812 C68.91721924 84.43654297 67.94405762 83.88675781 66.94140625 83.3203125 C65.83071777 82.68988037 64.7200293 82.05944824 63.57568359 81.40991211 C62.99969421 81.08489716 62.42370483 80.7598822 61.83026123 80.42501831 C58.7199387 78.66954664 55.61618066 76.90252724 52.51171875 75.13671875 C51.8837439 74.77985489 51.25576904 74.42299103 50.60876465 74.05531311 C44.70597218 70.69739387 38.83736038 67.28221344 32.9765625 63.8515625 C31.04172291 62.72125788 29.1068266 61.59105036 27.171875 60.4609375 C23.98082324 58.59676369 20.79019964 56.73186717 17.60058594 54.86523438 C14.60238104 53.11139042 11.6010129 51.36306122 8.59771729 49.61795044 C6.88847303 48.62304709 5.18223762 47.62298025 3.47607422 46.62280273 C2.4398291 46.02153564 1.40358398 45.42026855 0.3359375 44.80078125 C-0.57961914 44.26670654 -1.49517578 43.73263184 -2.43847656 43.18237305 C-7.43769586 40.60486766 -9.20283567 40.6761341 -14.16015625 43.52734375 Z " fill="#040303" transform="translate(135.8984375,13.0859375)"/>
<path d="M0 0 C7.40886236 3.12902207 14.33527721 7.42434405 21.25 11.5 C22.2805249 12.10078369 23.3110498 12.70156738 24.37280273 13.32055664 C29.69265734 16.42938344 34.97373685 19.58725508 40.20703125 22.83984375 C41.19219727 23.44441406 42.17736328 24.04898438 43.19238281 24.671875 C45.06495574 25.82383548 46.92817459 26.99118336 48.78027344 28.17578125 C53.95885632 31.37551456 53.95885632 31.37551456 59.9453125 31.78125 C60.95335937 31.5234375 61.96140625 31.265625 63 31 C65.8125 32.0625 65.8125 32.0625 68 34 C68.2570874 34.95293945 68.5141748 35.90587891 68.77905273 36.88769531 C70.35274187 40.89917083 71.97718712 41.69092352 75.72265625 43.734375 C76.29601212 44.05431427 76.86936798 44.37425354 77.46009827 44.70388794 C79.3186789 45.73639621 81.19008275 46.74284159 83.0625 47.75 C84.34014679 48.45517427 85.61667562 49.16237781 86.89208984 49.87158203 C89.42000684 51.27561778 91.95201612 52.67173701 94.48779297 54.06152344 C99.08039726 56.58620726 103.61068048 59.21326693 108.125 61.875 C108.80957275 62.27299805 109.49414551 62.67099609 110.19946289 63.08105469 C112.72982736 64.56697928 114.91562293 65.91562293 117 68 C117.91478625 74.517852 116.35308734 77.80574781 112.60546875 83.1171875 C111 85 111 85 108 87 C102.33914661 86.79464861 98.37397229 84.82756438 93.6875 81.875 C92.18330504 80.95927084 90.67802338 80.04532521 89.171875 79.1328125 C88.35009766 78.63168945 87.52832031 78.13056641 86.68164062 77.61425781 C81.64515589 74.58246274 76.53591814 71.67598311 71.4375 68.75 C62.94273927 63.85976788 54.46235552 58.94608879 46 54 C37.36734769 48.95624361 28.72114855 43.93645914 20.0625 38.9375 C18.99064453 38.31810547 17.91878906 37.69871094 16.81445312 37.06054688 C14.80333551 35.90062876 12.78993927 34.74464945 10.77392578 33.59326172 C8.98181476 32.56392564 7.19817395 31.51963427 5.42529297 30.45751953 C4.64428223 29.99845215 3.86327148 29.53938477 3.05859375 29.06640625 C2.39013428 28.66494385 1.7216748 28.26348145 1.03295898 27.84985352 C-1.48998985 26.79516576 -3.28667057 26.74031641 -6 27 C-8.554378 28.28757265 -10.89665129 29.61441159 -13.3125 31.125 C-14.84057552 32.05172229 -16.36925623 32.97744718 -17.8984375 33.90234375 C-18.72053711 34.40362793 -19.54263672 34.90491211 -20.38964844 35.42138672 C-25.03916279 38.23318618 -29.74065753 40.95576089 -34.4375 43.6875 C-35.4493335 44.27748779 -36.46116699 44.86747559 -37.50366211 45.4753418 C-50.48065844 53.0389204 -63.499097 60.53084678 -76.51660156 68.02441406 C-78.87346291 69.38115258 -81.23006924 70.73833221 -83.58642578 72.09594727 C-85.79006869 73.36546119 -87.99413955 74.63423268 -90.19873047 75.90209961 C-95.82131351 79.14167558 -101.39895812 82.43301712 -106.91088867 85.8581543 C-109.8970343 87.49029209 -111.70067691 87.92074133 -115 87 C-117.01999658 84.98000342 -118.43989668 83.31802586 -120 81 C-120.598125 80.21625 -121.19625 79.4325 -121.8125 78.625 C-123.50304583 74.88800395 -124.20546384 71.99040401 -123 68 C-121.38208008 66.53686523 -121.38208008 66.53686523 -119.20703125 65.18359375 C-118.3876709 64.66982178 -117.56831055 64.1560498 -116.72412109 63.62670898 C-111.82326548 60.70016292 -106.89654353 57.82692319 -101.9375 55 C-99.6129802 53.66718751 -97.28876911 52.33384757 -94.96484375 51 C-94.37947845 50.66444092 -93.79411316 50.32888184 -93.19100952 49.9831543 C-87.44265387 46.68614658 -81.7198735 43.34609023 -76 40 C-63.36290974 32.61525572 -50.68284032 25.30580051 -38 18 C-33.8036869 15.58216338 -29.60779716 13.16359338 -25.41229248 10.74435425 C-23.72901778 9.77393527 -22.04542113 8.80407481 -20.36181641 7.83422852 C-19.33878418 7.24440186 -18.31575195 6.6545752 -17.26171875 6.046875 C-16.36412842 5.52963867 -15.46653809 5.01240234 -14.54174805 4.47949219 C-12.79903185 3.46509778 -11.07572571 2.41682592 -9.37036133 1.34082031 C-5.9342945 -0.60282775 -3.91958123 -0.51404344 0 0 Z " fill="#DA616C" transform="translate(131,20)"/>
<path d="M0 0 C3.79862853 2.06447202 4.78938296 3.43835457 6.3125 7.5 C8.35852392 11.74360516 9.87744335 12.24047307 13.9921875 14.0625 C17.22400288 15.57151886 18.96002534 17.06753642 21 20 C21.92614272 24.9667477 21.78193601 28.72283785 19.125 33.0625 C15.54937931 36.32262475 12.97399941 36.26418819 8.30078125 36.234375 C5.13542223 35.91192756 2.81440299 34.43714195 0 33 C-2.76110524 32.69321053 -5.20583725 32.81056524 -8 33 C-9.29633621 34.06645115 -9.29633621 34.06645115 -9.0625 36.5625 C-9.041875 37.366875 -9.02125 38.17125 -9 39 C-7.54980469 39.67095703 -7.54980469 39.67095703 -6.0703125 40.35546875 C-2.67937919 41.92696205 0.70337073 43.51545568 4.08496094 45.10693359 C5.70840834 45.86401807 7.34151469 46.60033662 8.9765625 47.33203125 C17.0779161 51.08172897 23.01506542 56.01081617 26.33984375 64.48828125 C28.66375112 73.33013001 27.18528929 81.97510903 23 90 C19.9021853 94.59574535 16.59074095 97.8126769 11.75 100.5 C7.8027122 102.73932673 6.91266334 104.89452734 5.6171875 109.1328125 C4.65587135 112.04109808 3.55697277 113.31778107 1 115 C-3.26801817 116.15308559 -6.7228624 116.4997495 -10.875 114.875 C-13.28729273 112.74650641 -14.64747893 110.91859809 -16 108 C-16 106.68 -16 105.36 -16 104 C-17.2065625 103.9071875 -17.2065625 103.9071875 -18.4375 103.8125 C-24.53817612 102.42111773 -29.38787756 99.80872274 -33.5625 95.125 C-35.31325383 91.3190134 -35.66607568 89.14447087 -35 85 C-33.19777327 82.03397372 -31.15401327 79.57700664 -28 78 C-23.23898167 77.58956739 -20.28808054 77.60538253 -16.125 80 C-11.4856032 82.56219153 -7.19958656 82.85619264 -2 82 C1.24790764 80.73680006 1.24790764 80.73680006 3 78 C3.22624101 75.98045056 3.22624101 75.98045056 3.1171875 73.84375 C3.05917969 71.94109375 3.05917969 71.94109375 3 70 C2.40574219 69.75878418 1.81148437 69.51756836 1.19921875 69.26904297 C-1.53890514 68.14962723 -4.26933148 67.01247474 -7 65.875 C-8.40185547 65.30652344 -8.40185547 65.30652344 -9.83203125 64.7265625 C-19.30888209 60.75026145 -26.57186992 55.99922763 -31.75 46.9375 C-34.17288197 40.68402811 -34.01009985 34.12977908 -31.96875 27.8046875 C-28.79329511 20.7657625 -24.76300286 15.84138563 -18 12 C-17.34 12 -16.68 12 -16 12 C-15.9175 11.113125 -15.835 10.22625 -15.75 9.3125 C-14.89879084 5.55299285 -13.62034678 3.77915568 -11 1 C-7.52954285 -0.73522857 -3.79456421 -0.46034575 0 0 Z " fill="#080605" transform="translate(132,83)"/>
<path d="M0 0 C5.48606568 2.65573364 8.81704103 6.26973269 11 12 C13.37897003 12.04510361 13.37897003 12.04510361 16 11 C17.00542685 9.28104441 18.00519738 7.55694077 18.921875 5.7890625 C20.76337753 2.73323584 22.80888162 1.50524452 26 0 C31.64461282 -0.89178802 36.21008867 -0.26584864 41 3 C43.70234575 5.74738485 45.86345351 8.79518027 48 12 C50.58380177 12.25030977 50.58380177 12.25030977 53 12 C53.020625 11.29875 53.04125 10.5975 53.0625 9.875 C54.44594919 5.63242249 57.46720744 3.57820427 61 1 C64.74503255 -0.87251627 68.92190855 -0.53192497 73 0 C78.70327565 2.39516096 81.36054767 6.61551725 84 12 C85.32 12 86.64 12 88 12 C89.36590165 10.38010874 89.36590165 10.38010874 90.375 8.25 C92.71624283 4.24860316 94.67907335 1.99427384 99 0 C104.64919652 -0.88395701 109.20492365 -0.26937024 114 3 C116.74991214 5.72755513 118.75845225 8.27535674 120 12 C122.37233611 11.96219702 122.37233611 11.96219702 125 11 C126.39300182 9.04109119 127.72245446 7.0360882 129 5 C133.93519535 0.65232791 136.90078541 -0.42417811 143.39453125 -0.33984375 C147.56600438 0.20426144 150.16136376 1.95806621 153 5 C154.58827779 7.28108739 155.76997241 9.49074372 157 12 C158.32 12 159.64 12 161 12 C162.36590165 10.38010874 162.36590165 10.38010874 163.375 8.25 C165.71624283 4.24860316 167.67907335 1.99427384 172 0 C177.64919652 -0.88395701 182.20492365 -0.26937024 187 3 C190.42163754 6.39381935 192.90145339 9.49691605 193.09765625 14.48046875 C193.08025391 15.82044922 193.08025391 15.82044922 193.0625 17.1875 C193.05347656 18.08855469 193.04445312 18.98960937 193.03515625 19.91796875 C193.01775391 20.94857422 193.01775391 20.94857422 193 22 C191.81225322 22.00358253 191.81225322 22.00358253 190.60051155 22.00723743 C171.35568694 22.0663092 152.11099145 22.14180873 132.8663044 22.23571491 C123.55980688 22.28072839 114.2533481 22.32013011 104.94677734 22.34643555 C96.83752934 22.36937081 88.72840338 22.40271835 80.61925209 22.44870156 C76.32336021 22.47269442 72.02758965 22.49138331 67.73163223 22.49761391 C63.69162558 22.50363754 59.65192958 22.52353763 55.61203766 22.55427551 C54.1261218 22.56309969 52.64016541 22.56676933 51.1542244 22.56500816 C49.13176233 22.56336734 47.10931304 22.58174529 45.08694458 22.60127258 C43.95313921 22.60588155 42.81933384 22.61049051 41.65117073 22.61523914 C40.77628439 22.74221023 39.90139805 22.86918131 39 23 C38.34 23.99 37.68 24.98 37 26 C33.5 26.375 33.5 26.375 30 26 C29.34 25.01 28.68 24.02 28 23 C25.82584957 22.52427183 25.82584957 22.52427183 23.27490234 22.56762695 C22.29403656 22.54783279 21.31317078 22.52803864 20.30258179 22.50764465 C19.24108917 22.50125473 18.17959656 22.49486481 17.0859375 22.48828125 C16.00116119 22.47033005 14.91638489 22.45237885 13.79873657 22.43388367 C10.32419761 22.3795769 6.84979758 22.34581932 3.375 22.3125 C1.02341808 22.27934496 -1.32814546 22.24485702 -3.6796875 22.20898438 C-9.45300041 22.12383894 -15.22633087 22.05557568 -21 22 C-21.04586008 20.41433592 -21.07842813 18.82828413 -21.10546875 17.2421875 C-21.12504639 16.35901855 -21.14462402 15.47584961 -21.16479492 14.56591797 C-20.82889319 9.33580359 -18.22160409 6.10526085 -14.375 2.625 C-9.69520214 -0.57696696 -5.5837095 -0.85589708 0 0 Z " fill="#B1E29D" transform="translate(42,214)"/>
<path d="M0 0 C3.0855433 1.19897004 5.78892653 2.56516056 8.64404297 4.23339844 C9.67400391 4.83152344 10.70396484 5.42964844 11.76513672 6.04589844 C12.86212891 6.69042969 13.95912109 7.33496094 15.08935547 7.99902344 C16.25182291 8.67660965 17.41458843 9.3536847 18.57763672 10.03027344 C21.55585216 11.76447083 24.53034172 13.50494907 27.50378418 15.24731445 C31.09839372 17.35231452 34.69805161 19.44867185 38.29663086 21.546875 C40.24437156 22.68315215 42.19147334 23.8205252 44.13793945 24.95898438 C49.47267682 28.07741491 54.81825279 31.17587531 60.17919922 34.24902344 C60.76271149 34.58393799 61.34622375 34.91885254 61.94741821 35.26391602 C64.76282249 36.87984336 67.57975384 38.49294867 70.39990234 40.10058594 C73.35222409 41.79402128 76.28848003 43.51033737 79.21435547 45.24902344 C80.11549072 45.78221191 81.01662598 46.31540039 81.94506836 46.86474609 C82.76612061 47.37569824 83.58717285 47.88665039 84.43310547 48.41308594 C85.15304688 48.85604004 85.87298828 49.29899414 86.61474609 49.75537109 C88.21435547 51.24902344 88.21435547 51.24902344 88.76708984 53.38720703 C88.77685547 55.62402344 88.77685547 55.62402344 88.21435547 59.24902344 C84.42916815 57.83297283 81.01686225 56.09481278 77.51513672 54.08105469 C76.40170898 53.44280762 75.28828125 52.80456055 74.14111328 52.14697266 C72.93630633 51.45191711 71.73155518 50.75676483 70.52685547 50.06152344 C69.27146875 49.34007594 68.01593255 48.6188885 66.76025391 47.89794922 C63.53315255 46.04399404 60.30839133 44.18600879 57.08428955 42.32684326 C55.30514622 41.30135473 53.52531498 40.27707472 51.74511719 39.25341797 C8.99625929 14.67172307 8.99625929 14.67172307 2.59155273 10.56884766 C0.25071123 9.008989 0.25071123 9.008989 -2.64501953 9.30371094 C-6.48406055 10.45924318 -9.65821685 12.27317197 -13.03564453 14.37402344 C-14.54905148 15.2896017 -16.06344027 16.20355827 -17.57861328 17.11621094 C-18.4066748 17.61733398 -19.23473633 18.11845703 -20.08789062 18.63476562 C-25.13623547 21.65554898 -30.24661985 24.56928529 -35.34814453 27.49902344 C-44.27912506 32.64128224 -53.19680807 37.80560961 -62.09814453 42.99902344 C-63.09982666 43.58329102 -64.10150879 44.16755859 -65.13354492 44.76953125 C-70.33004861 47.79421577 -70.33004861 47.79421577 -75.4621582 50.92578125 C-77.78564453 52.24902344 -77.78564453 52.24902344 -79.78564453 52.24902344 C-79.78564453 86.23902344 -79.78564453 120.22902344 -79.78564453 155.24902344 C-83.78564453 153.9156901 -87.78564453 152.58235677 -91.78564453 151.24902344 C-91.99420018 138.31457985 -92.15410245 125.38053631 -92.25195408 112.44475365 C-92.29891955 106.43798808 -92.36261611 100.43237292 -92.46459961 94.42626953 C-92.56241128 88.62956069 -92.61620699 82.83395795 -92.63953972 77.03648758 C-92.65616607 74.82514655 -92.68863538 72.61386594 -92.73721504 70.40299606 C-92.80260042 67.30395663 -92.81154586 64.20948181 -92.80737305 61.10986328 C-92.83973053 60.19636108 -92.87208801 59.28285889 -92.90542603 58.3416748 C-92.86683649 55.6914832 -92.73164075 53.72876529 -91.78564453 51.24902344 C-89.06936274 48.65218415 -86.11245078 46.95821252 -82.78564453 45.24902344 C-81.73642822 44.61810791 -80.68721191 43.98719238 -79.60620117 43.3371582 C-78.64576904 42.79373779 -77.68533691 42.25031738 -76.69580078 41.69042969 C-75.59526367 41.06507324 -74.49472656 40.4397168 -73.36083984 39.79541016 C-72.78901978 39.47247986 -72.21719971 39.14954956 -71.62805176 38.8168335 C-69.1636138 37.42489338 -66.70357401 36.02525728 -64.24319458 34.62615967 C-62.96937335 33.90187912 -61.69534489 33.17796292 -60.42111206 32.45440674 C-54.11090684 28.87036451 -47.82058716 25.25217328 -41.53564453 21.62402344 C-39.95891968 20.71414673 -39.95891968 20.71414673 -38.3503418 19.78588867 C-29.60795539 14.73519532 -20.88505852 9.65132234 -12.17138672 4.55126953 C-11.2294043 4.00035645 -10.28742188 3.44944336 -9.31689453 2.88183594 C-8.48738281 2.39602051 -7.65787109 1.91020508 -6.80322266 1.40966797 C-2.96382014 -0.79901058 -2.96382014 -0.79901058 0 0 Z " fill="#DBD8E9" transform="translate(129.78564453125,54.7509765625)"/>
<path d="M0 0 C2.0625 0.14453125 2.0625 0.14453125 4 1 C4.33 2.216875 4.66 3.43375 5 4.6875 C6.03365534 8.01420684 6.76456346 8.85912938 9.8203125 10.6875 C11.9851178 11.67010666 14.17311052 12.60347672 16.3828125 13.48046875 C19 15 19 15 19.9921875 17.55078125 C19.99605469 18.76314453 19.99605469 18.76314453 20 20 C19.34 20.66 18.68 21.32 18 22 C15.42451586 21.72889641 13.48087807 21.2814896 11.23828125 19.96875 C8.26029372 18.67984789 5.79792658 18.73503849 2.5625 18.75 C0.89380859 18.74226563 0.89380859 18.74226563 -0.80859375 18.734375 C-3.98388645 18.99865885 -6.17892441 19.54379731 -9 21 C-11.33141409 24.88569015 -11.32361862 28.55024402 -11 33 C-10.03457021 36.49360563 -8.81967532 37.10673554 -5.62109375 39 C-4.23265918 39.67927262 -2.83772087 40.34536777 -1.4375 41 C-0.71457764 41.35030273 0.00834473 41.70060547 0.75317383 42.06152344 C4.52848949 43.87909548 8.33395028 45.60407707 12.1875 47.25 C17.4904036 49.5788417 21.50664094 52.48860523 24.265625 57.7578125 C26.49828481 64.57455043 25.8956802 71.93939731 23 78.4375 C19.58849843 84.3907152 14.86620079 87.85351968 8.5625 90.375 C5.85868735 91.69265689 5.85868735 91.69265689 5.4453125 93.921875 C5.20919823 95.93957879 5.09818216 97.97090198 5 100 C4 101 4 101 1.5 101.125 C-1 101 -1 101 -2 100 C-2.2165625 98.2984375 -2.2165625 98.2984375 -2.4375 96.5625 C-2.64847551 92.95941003 -2.64847551 92.95941003 -5 91 C-6.94124584 90.53936539 -8.88293892 90.08041995 -10.828125 89.63671875 C-14.47591172 88.56731365 -18.29171465 86.70828535 -21 84 C-21.04063832 82.33382885 -21.042721 80.66611905 -21 79 C-18.8125 78.3125 -18.8125 78.3125 -16 78 C-13.4375 79.375 -13.4375 79.375 -11 81 C-4.63734636 83.12560812 3.25028231 82.8683319 9.5625 80.875 C14.01689226 77.44854442 16.07653235 73.95335122 16.875 68.4375 C17.12101685 64.77184899 17.00489023 62.1895981 15 59 C11.28875301 55.60085056 7.48216894 53.81626401 2.8125 52.125 C-13.86898253 45.69383072 -13.86898253 45.69383072 -17.625 39.3125 C-19.83962492 33.80757519 -20.19157331 27.5680257 -18.3046875 21.91796875 C-15.50833829 16.52500955 -11.23110388 12.92611859 -5.6875 10.625 C-4.800625 10.08875 -3.91375 9.5525 -3 9 C-2.17567358 5.48055874 -2.17567358 5.48055874 -2 2 C-1.34 1.34 -0.68 0.68 0 0 Z " fill="#DC903F" transform="translate(126,90)"/>
<path d="M0 0 C2.9375 1 2.9375 1 5 2 C2.04996214 4.30552433 -0.98545286 6.22399315 -4.234375 8.08203125 C-5.27078125 8.67693359 -6.3071875 9.27183594 -7.375 9.88476562 C-8.48875 10.52091797 -9.6025 11.15707031 -10.75 11.8125 C-13.12049585 13.1719515 -15.48989473 14.53331061 -17.859375 15.89453125 C-18.46019897 16.23936554 -19.06102295 16.58419983 -19.68005371 16.93948364 C-25.47006031 20.26447175 -31.23675498 23.62886337 -37 27 C-45.27756695 31.83711359 -53.5695349 36.64844411 -61.875 41.4375 C-62.94290771 42.05359131 -64.01081543 42.66968262 -65.11108398 43.30444336 C-70.17671411 46.22532806 -75.24473127 49.14191962 -80.3192749 52.04728699 C-82.09184277 53.06250835 -83.86366231 54.07902339 -85.63525391 55.09594727 C-87.85088136 56.3672736 -90.06791074 57.63616121 -92.28662109 58.90209961 C-104.67956515 64.96024077 -104.67956515 64.96024077 -113 75 C-112.83582968 78.56592619 -112.83582968 78.56592619 -112 82 C-111.855625 82.78375 -111.71125 83.5675 -111.5625 84.375 C-111.13443623 86.22400395 -111.13443623 86.22400395 -109 87 C-111.6875 87.375 -111.6875 87.375 -115 87 C-117.01999658 84.98000342 -118.43989668 83.31802586 -120 81 C-120.598125 80.21625 -121.19625 79.4325 -121.8125 78.625 C-123.50304583 74.88800395 -124.20546384 71.99040401 -123 68 C-121.38208008 66.53686523 -121.38208008 66.53686523 -119.20703125 65.18359375 C-118.3876709 64.66982178 -117.56831055 64.1560498 -116.72412109 63.62670898 C-111.82326548 60.70016292 -106.89654353 57.82692319 -101.9375 55 C-99.6129802 53.66718751 -97.28876911 52.33384757 -94.96484375 51 C-94.37947845 50.66444092 -93.79411316 50.32888184 -93.19100952 49.9831543 C-87.44265387 46.68614658 -81.7198735 43.34609023 -76 40 C-63.36290974 32.61525572 -50.68284032 25.30580051 -38 18 C-33.8036869 15.58216338 -29.60779716 13.16359338 -25.41229248 10.74435425 C-23.72901778 9.77393527 -22.04542113 8.80407481 -20.36181641 7.83422852 C-19.33878418 7.24440186 -18.31575195 6.6545752 -17.26171875 6.046875 C-16.36412842 5.52963867 -15.46653809 5.01240234 -14.54174805 4.47949219 C-12.80208058 3.46687238 -11.08518972 2.41437082 -9.38989258 1.32910156 C-6.09850046 -0.50135494 -3.71367719 -0.33157832 0 0 Z " fill="#D54852" transform="translate(131,20)"/>
<path d="M0 0 C5.48606568 2.65573364 8.81704103 6.26973269 11 12 C13.37897003 12.04510361 13.37897003 12.04510361 16 11 C17.00542685 9.28104441 18.00519738 7.55694077 18.921875 5.7890625 C20.76337753 2.73323584 22.80888162 1.50524452 26 0 C31.02938654 -0.70198151 35.43141013 -0.35798187 40 2 C39.0409375 3.175625 39.0409375 3.175625 38.0625 4.375 C34.66736321 8.69608319 34.70160914 12.29086128 34.4375 17.625 C34.37272461 18.82769531 34.37272461 18.82769531 34.30664062 20.0546875 C34.20048543 22.0362511 34.09973145 24.01810271 34 26 C32.68 26 31.36 26 30 26 C29.34 25.01 28.68 24.02 28 23 C25.82584957 22.52427183 25.82584957 22.52427183 23.27490234 22.56762695 C22.29403656 22.54783279 21.31317078 22.52803864 20.30258179 22.50764465 C19.24108917 22.50125473 18.17959656 22.49486481 17.0859375 22.48828125 C16.00116119 22.47033005 14.91638489 22.45237885 13.79873657 22.43388367 C10.32419761 22.3795769 6.84979758 22.34581932 3.375 22.3125 C1.02341808 22.27934496 -1.32814546 22.24485702 -3.6796875 22.20898438 C-9.45300041 22.12383894 -15.22633087 22.05557568 -21 22 C-21.04586008 20.41433592 -21.07842813 18.82828413 -21.10546875 17.2421875 C-21.12504639 16.35901855 -21.14462402 15.47584961 -21.16479492 14.56591797 C-20.82889319 9.33580359 -18.22160409 6.10526085 -14.375 2.625 C-9.69520214 -0.57696696 -5.5837095 -0.85589708 0 0 Z " fill="#93D3A1" transform="translate(42,214)"/>
</svg>
