<?xml version="1.0" encoding="UTF-8"?>
<svg version="1.1" xmlns="http://www.w3.org/2000/svg" width="256" height="256">
<path d="M0 0 C0.74153641 -0.00367669 1.48307282 -0.00735338 2.24708003 -0.01114148 C4.73892031 -0.0221796 7.23071889 -0.02602235 9.72257996 -0.02983093 C11.50636935 -0.03609542 13.29015744 -0.04274221 15.07394409 -0.04974365 C19.92524972 -0.06715302 24.77654549 -0.07770497 29.62787461 -0.08594918 C32.65802256 -0.09109885 35.68816744 -0.09717456 38.71831322 -0.10346031 C48.19674421 -0.12251112 57.67516741 -0.13674322 67.15361387 -0.14507228 C78.0992231 -0.15484917 89.04463035 -0.18118098 99.99016839 -0.22157317 C108.44800388 -0.25171546 116.9057814 -0.26653931 125.36366957 -0.26985329 C130.4164858 -0.27220566 135.4690862 -0.28119063 140.52184486 -0.30631447 C145.27512157 -0.32956758 150.02803992 -0.33383955 154.78135872 -0.32355309 C156.52525269 -0.32305696 158.26916415 -0.32939986 160.0130043 -0.34310913 C162.39557432 -0.36079087 164.77685304 -0.35374122 167.15942383 -0.34057617 C168.1923676 -0.35703004 168.1923676 -0.35703004 169.24617893 -0.37381631 C174.18562943 -0.30800884 176.94911856 1.09247575 180.77018738 4.14717102 C184.82832478 8.75370537 185.8936191 11.09780381 185.93081665 17.19132996 C185.94086227 18.48093124 185.9509079 19.77053253 185.96125793 21.09921265 C185.96728851 22.53691043 185.97317347 23.97460883 185.97892761 25.41230774 C185.98846445 26.92020893 185.99835554 28.42810792 186.00857544 29.93600464 C186.04000088 34.89959607 186.06024188 39.86320441 186.07878113 44.82685852 C186.08207845 45.67203364 186.08537577 46.51720876 186.08877301 47.38799524 C186.11957244 55.36470116 186.14627331 63.34141086 186.1631918 71.3181591 C186.1850593 81.50835582 186.22693211 91.69802294 186.29662937 101.888008 C186.34399815 109.05844945 186.36814306 116.22874876 186.37538868 123.3993417 C186.38032852 127.67787454 186.3952473 131.95581104 186.43513298 136.23417282 C186.47223783 140.26779311 186.48033209 144.30048252 186.46712685 148.33424187 C186.46718042 149.80634361 186.47732044 151.27848908 186.49887848 152.75043297 C186.6443754 163.25564248 185.02724063 171.78598383 178.18208981 180.06881523 C168.13815612 189.60782343 155.4118849 188.72195947 142.51628113 188.66474915 C140.46208705 188.67017518 138.40789686 188.67730053 136.35371399 188.68598938 C130.79586299 188.70416829 125.23831022 188.69717757 119.68045425 188.68447304 C113.85285411 188.67431723 108.0252788 188.68374588 102.19767761 188.6900177 C92.41288183 188.69728658 82.62820697 188.68772628 72.84342957 188.6686554 C61.54506075 188.64688821 50.24698071 188.65394011 38.94861889 188.67596102 C29.23281738 188.6941366 19.51710259 188.69666276 9.80128956 188.68620634 C4.00513796 188.67998331 -1.79087809 188.67910307 -7.58702087 188.69235229 C-13.03727299 188.70394152 -18.48715426 188.69582875 -23.93736649 188.67277527 C-25.93273936 188.66750461 -27.92814367 188.66897367 -29.92350388 188.67782593 C-53.42386004 188.772439 -53.42386004 188.772439 -62.64190102 180.07982063 C-69.28263396 171.99737454 -71.1141194 163.6045787 -70.97444153 153.4054718 C-70.98174286 152.19416092 -70.98904419 150.98285004 -70.99656677 149.73483276 C-71.00988606 146.45164023 -70.99673143 143.16996449 -70.96990252 139.88689661 C-70.94705831 136.4344205 -70.95550416 132.98199485 -70.95939636 129.52946472 C-70.9611542 123.74135254 -70.93916041 117.95371251 -70.9021759 112.16572571 C-70.85973178 105.4852835 -70.85285079 98.80552899 -70.86529982 92.12497914 C-70.8767027 85.67386863 -70.86538546 79.22299883 -70.84295273 72.77192307 C-70.83369337 70.03598936 -70.83189856 67.30020363 -70.83612442 64.56425858 C-70.83686593 60.74660548 -70.81162571 56.9299989 -70.77912903 53.11250305 C-70.78408386 51.98408493 -70.7890387 50.85566681 -70.79414368 49.6930542 C-70.71041831 43.53209865 -70.38066121 39.81834034 -66.22981262 35.14717102 C-60.78082142 30.34686924 -57.39288038 30.00708224 -50.28450012 30.04951477 C-49.39948822 30.05092972 -48.51447632 30.05234467 -47.60264587 30.05380249 C-44.77000071 30.05940962 -41.93743398 30.07196331 -39.10481262 30.08467102 C-37.18684501 30.0896851 -35.26887617 30.09424817 -33.35090637 30.0983429 C-28.64384481 30.10938136 -23.93684202 30.12665077 -19.22981262 30.14717102 C-19.28201965 28.30252258 -19.28201965 28.30252258 -19.33528137 26.42060852 C-19.36343307 24.78780975 -19.39073175 23.15499612 -19.41731262 21.52217102 C-19.44244934 20.71392883 -19.46758606 19.90568665 -19.4934845 19.07295227 C-19.56408946 13.28334531 -18.7895774 8.9535798 -14.72981262 4.50263977 C-9.70908137 0.5932683 -6.18095757 -0.00163886 0 0 Z " fill="#F3F3F3" transform="translate(70.22981262207031,33.85282897949219)"/>
<path d="M0 0 C0.74153641 -0.00367669 1.48307282 -0.00735338 2.24708003 -0.01114148 C4.73892031 -0.0221796 7.23071889 -0.02602235 9.72257996 -0.02983093 C11.50636935 -0.03609542 13.29015744 -0.04274221 15.07394409 -0.04974365 C19.92524972 -0.06715302 24.77654549 -0.07770497 29.62787461 -0.08594918 C32.65802256 -0.09109885 35.68816744 -0.09717456 38.71831322 -0.10346031 C48.19674421 -0.12251112 57.67516741 -0.13674322 67.15361387 -0.14507228 C78.0992231 -0.15484917 89.04463035 -0.18118098 99.99016839 -0.22157317 C108.44800388 -0.25171546 116.9057814 -0.26653931 125.36366957 -0.26985329 C130.4164858 -0.27220566 135.4690862 -0.28119063 140.52184486 -0.30631447 C145.27512157 -0.32956758 150.02803992 -0.33383955 154.78135872 -0.32355309 C156.52525269 -0.32305696 158.26916415 -0.32939986 160.0130043 -0.34310913 C162.39557432 -0.36079087 164.77685304 -0.35374122 167.15942383 -0.34057617 C168.1923676 -0.35703004 168.1923676 -0.35703004 169.24617893 -0.37381631 C174.18562943 -0.30800884 176.94911856 1.09247575 180.77018738 4.14717102 C184.82832478 8.75370537 185.8936191 11.09780381 185.93081665 17.19132996 C185.94086227 18.48093124 185.9509079 19.77053253 185.96125793 21.09921265 C185.96728851 22.53691043 185.97317347 23.97460883 185.97892761 25.41230774 C185.98846445 26.92020893 185.99835554 28.42810792 186.00857544 29.93600464 C186.04000088 34.89959607 186.06024188 39.86320441 186.07878113 44.82685852 C186.08207845 45.67203364 186.08537577 46.51720876 186.08877301 47.38799524 C186.11957244 55.36470116 186.14627331 63.34141086 186.1631918 71.3181591 C186.1850593 81.50835582 186.22693211 91.69802294 186.29662937 101.888008 C186.34399815 109.05844945 186.36814306 116.22874876 186.37538868 123.3993417 C186.38032852 127.67787454 186.3952473 131.95581104 186.43513298 136.23417282 C186.47223783 140.26779311 186.48033209 144.30048252 186.46712685 148.33424187 C186.46718042 149.80634361 186.47732044 151.27848908 186.49887848 152.75043297 C186.6443754 163.25564248 185.02724063 171.78598383 178.18208981 180.06881523 C168.13815612 189.60782343 155.4118849 188.72195947 142.51628113 188.66474915 C140.46208705 188.67017518 138.40789686 188.67730053 136.35371399 188.68598938 C130.79586299 188.70416829 125.23831022 188.69717757 119.68045425 188.68447304 C113.85285411 188.67431723 108.0252788 188.68374588 102.19767761 188.6900177 C92.41288183 188.69728658 82.62820697 188.68772628 72.84342957 188.6686554 C61.54506075 188.64688821 50.24698071 188.65394011 38.94861889 188.67596102 C29.23281738 188.6941366 19.51710259 188.69666276 9.80128956 188.68620634 C4.00513796 188.67998331 -1.79087809 188.67910307 -7.58702087 188.69235229 C-13.03727299 188.70394152 -18.48715426 188.69582875 -23.93736649 188.67277527 C-25.93273936 188.66750461 -27.92814367 188.66897367 -29.92350388 188.67782593 C-53.42386004 188.772439 -53.42386004 188.772439 -62.64190102 180.07982063 C-69.28263396 171.99737454 -71.1141194 163.6045787 -70.97444153 153.4054718 C-70.98174286 152.19416092 -70.98904419 150.98285004 -70.99656677 149.73483276 C-71.00988606 146.45164023 -70.99673143 143.16996449 -70.96990252 139.88689661 C-70.94705831 136.4344205 -70.95550416 132.98199485 -70.95939636 129.52946472 C-70.9611542 123.74135254 -70.93916041 117.95371251 -70.9021759 112.16572571 C-70.85973178 105.4852835 -70.85285079 98.80552899 -70.86529982 92.12497914 C-70.8767027 85.67386863 -70.86538546 79.22299883 -70.84295273 72.77192307 C-70.83369337 70.03598936 -70.83189856 67.30020363 -70.83612442 64.56425858 C-70.83686593 60.74660548 -70.81162571 56.9299989 -70.77912903 53.11250305 C-70.78408386 51.98408493 -70.7890387 50.85566681 -70.79414368 49.6930542 C-70.71041831 43.53209865 -70.38066121 39.81834034 -66.22981262 35.14717102 C-60.78082142 30.34686924 -57.39288038 30.00708224 -50.28450012 30.04951477 C-49.39948822 30.05092972 -48.51447632 30.05234467 -47.60264587 30.05380249 C-44.77000071 30.05940962 -41.93743398 30.07196331 -39.10481262 30.08467102 C-37.18684501 30.0896851 -35.26887617 30.09424817 -33.35090637 30.0983429 C-28.64384481 30.10938136 -23.93684202 30.12665077 -19.22981262 30.14717102 C-19.28201965 28.30252258 -19.28201965 28.30252258 -19.33528137 26.42060852 C-19.36343307 24.78780975 -19.39073175 23.15499612 -19.41731262 21.52217102 C-19.44244934 20.71392883 -19.46758606 19.90568665 -19.4934845 19.07295227 C-19.56408946 13.28334531 -18.7895774 8.9535798 -14.72981262 4.50263977 C-9.70908137 0.5932683 -6.18095757 -0.00163886 0 0 Z M-8.64894676 11.30147266 C-10.48057405 14.59856376 -10.72933823 16.55109253 -10.72860718 20.30653381 C-10.73818451 21.5456955 -10.74776184 22.78485718 -10.75762939 24.06156921 C-10.74813248 25.42701966 -10.73827861 26.79246765 -10.72810364 28.15791321 C-10.7319285 29.60216329 -10.73754898 31.04640956 -10.74482727 32.49064636 C-10.75676961 35.59711846 -10.75629488 38.70325251 -10.74623299 41.80973053 C-10.73065206 46.72744874 -10.7443654 51.64482094 -10.76226807 56.56251526 C-10.79308295 66.11995587 -10.79459025 75.67729063 -10.7926178 85.23477173 C-10.79122503 97.38551147 -10.80166397 109.53616911 -10.84119552 121.68684888 C-10.85608476 126.5692138 -10.85589172 131.45127121 -10.84371769 136.33364058 C-10.83898682 139.38022381 -10.84655761 142.42669086 -10.85726166 145.47325516 C-10.85965574 146.87885501 -10.85697538 148.28447478 -10.84865379 149.69005203 C-10.78839095 160.52284226 -11.96543704 168.29064003 -18.22981262 177.14717102 C-18.22981262 177.80717102 -18.22981262 178.46717102 -18.22981262 179.14717102 C4.9879719 179.21725986 28.20573897 179.27015862 51.42360783 179.30260754 C62.20412801 179.31807476 72.98458244 179.33916157 83.76506042 179.37348938 C93.16159704 179.40339609 102.55808605 179.42274708 111.95466894 179.4294365 C116.92984152 179.43334659 121.90487788 179.44253294 126.88000679 179.46436119 C131.56424694 179.48474637 136.24829493 179.49100068 140.93257523 179.48649406 C142.65024421 179.48731835 144.36791973 179.49327189 146.08555031 179.50478745 C148.4348925 179.51976358 150.78351387 179.51610631 153.13287354 179.50793457 C154.44642854 179.51069995 155.75998354 179.51346533 157.11334324 179.51631451 C163.27784159 178.89403357 168.29257826 176.50376367 172.77018738 172.14717102 C177.93139559 165.49063405 177.34408529 158.5889263 177.30363464 150.46284485 C177.31069886 148.97077585 177.31944599 147.47871401 177.32974243 145.98666382 C177.35218264 141.94963027 177.34931055 137.91298972 177.34042096 133.87591767 C177.33530221 130.50332608 177.34261029 127.13080776 177.34989303 123.75822371 C177.36687281 115.80455534 177.36334311 107.85107894 177.34660339 99.89741516 C177.32965707 91.69185457 177.34555511 83.48682498 177.37782627 75.2813223 C177.40450198 68.23145544 177.41180448 61.1817541 177.40331119 54.13184184 C177.39837932 49.92307943 177.40061238 45.71463701 177.42109871 41.50591469 C177.43942621 37.55186292 177.43353415 33.59857781 177.40889931 29.64456749 C177.40388326 28.1933315 177.40740191 26.74203734 177.42004776 25.29084778 C177.43593582 23.31114677 177.41803429 21.33126019 177.39837646 19.35159302 C177.39779016 18.24347165 177.39720385 17.13535028 177.39659977 15.99364948 C176.97921038 12.99960155 176.97921038 12.99960155 174.68917084 10.79156113 C171.03239707 8.73154171 168.62920655 8.64153663 164.43826294 8.63250732 C163.70994076 8.6255618 162.98161858 8.61861627 162.23122603 8.61146027 C159.79590168 8.59319453 157.36155195 8.60345269 154.92619324 8.61372375 C153.17826611 8.60666514 151.43034509 8.59792037 149.68243408 8.58761597 C144.93871111 8.56510865 140.19532155 8.56806437 135.4515655 8.57693744 C131.49254067 8.58204525 127.5335786 8.57475665 123.57456023 8.56746536 C114.23728839 8.55046294 104.90017997 8.55403668 95.56291199 8.570755 C85.92483224 8.58768851 76.28720498 8.57182569 66.64917463 8.53953212 C58.37643419 8.51286166 50.10383483 8.50555298 41.8310557 8.51404721 C36.8889868 8.51898242 31.9471904 8.51672836 27.00515556 8.49625969 C22.360077 8.47794168 17.71565134 8.4838134 13.07060814 8.50845909 C11.36458921 8.51347881 9.65852086 8.50994718 7.95254135 8.49731064 C5.62598063 8.48143849 3.30158559 8.4962719 0.97512817 8.51898193 C-0.32732377 8.51956824 -1.62977571 8.52015455 -2.9716959 8.52075863 C-6.347035 8.88135685 -6.347035 8.88135685 -8.64894676 11.30147266 Z " fill="#080808" transform="translate(70.22981262207031,33.85282897949219)"/>
<path d="M0 0 C7.70074353 4.33558122 14.08968383 11.66117786 20.484375 17.69921875 C23.62648754 20.66171106 26.83132263 23.53506537 30.1015625 26.35546875 C35.90695326 31.38441836 41.65405354 36.48160365 47 42 C47.33 42.33 47.66 42.66 48 43 C48.51657208 47.47695806 48.52373411 49.33471612 45.6875 52.9375 C43 55 43 55 40 55 C40.00999275 55.82899055 40.00999275 55.82899055 40.02018738 56.67472839 C40.08662483 62.43356501 40.13183542 68.19229252 40.16479492 73.95141602 C40.17986915 76.09989851 40.20033189 78.2483503 40.22631836 80.39672852 C40.26276114 83.48721908 40.27974019 86.57730231 40.29296875 89.66796875 C40.30845261 90.62648239 40.32393646 91.58499603 40.33988953 92.57255554 C40.34205533 101.18017164 40.34205533 101.18017164 37 105 C33.43001891 107.36302131 30.2250459 107.25920669 26.01586914 107.2746582 C25.32105942 107.27976913 24.62624969 107.28488007 23.91038513 107.29014587 C21.61855402 107.3040212 19.32702432 107.30308672 17.03515625 107.30078125 C15.43859241 107.3046693 13.84202961 107.3090042 12.24546814 107.31376648 C8.90067185 107.32122423 5.55598112 107.32094064 2.21118164 107.31567383 C-2.07060993 107.30987952 -6.35196888 107.32681114 -10.63368893 107.3500185 C-13.93057269 107.36476546 -17.22735248 107.36562625 -20.52426338 107.36250877 C-22.10268574 107.3630215 -23.681114 107.36825006 -25.25950432 107.37832069 C-27.46877866 107.39068693 -29.67721325 107.38389314 -31.88647461 107.37231445 C-33.142379 107.37294388 -34.39828339 107.3735733 -35.69224548 107.3742218 C-39.31336066 106.96454804 -41.15634548 106.25197856 -44 104 C-45.95841451 101.13255671 -46.24631483 98.84403987 -46.22705078 95.41503906 C-46.22682419 94.06409149 -46.22682419 94.06409149 -46.22659302 92.68585205 C-46.21627045 91.72217712 -46.20594788 90.7585022 -46.1953125 89.765625 C-46.1924826 88.77246277 -46.18965271 87.77930054 -46.18673706 86.75604248 C-46.17555143 83.58723856 -46.15044962 80.41871835 -46.125 77.25 C-46.11496812 75.1002645 -46.10584263 72.95052457 -46.09765625 70.80078125 C-46.07561741 65.53375754 -46.04215584 60.26689904 -46 55 C-46.78761719 54.86851562 -47.57523437 54.73703125 -48.38671875 54.6015625 C-51 54 -51 54 -52.8125 52.375 C-54.50860361 48.98279278 -54.52560443 46.74493155 -54 43 C-51.625 40.1875 -51.625 40.1875 -49 38 C-46.33449935 35.33449935 -46.74774037 34.01197491 -46.7265625 30.29296875 C-46.7059375 29.14892578 -46.6853125 28.00488281 -46.6640625 26.82617188 C-46.63814739 24.41217965 -46.61984268 21.99809301 -46.609375 19.58398438 C-46.58617188 18.43607422 -46.56296875 17.28816406 -46.5390625 16.10546875 C-46.52673584 14.52995239 -46.52673584 14.52995239 -46.51416016 12.92260742 C-45.87750768 9.30372478 -44.51842634 7.6263253 -42 5 C-39.07752427 3.53876214 -36.44146161 3.7522385 -33.1875 3.6875 C-31.96417969 3.65011719 -30.74085937 3.61273438 -29.48046875 3.57421875 C-25.39877904 4.07355004 -23.87965126 5.13068861 -21 8 C-20.34 8.99 -19.68 9.98 -19 11 C-18.32904297 10.31164062 -18.32904297 10.31164062 -17.64453125 9.609375 C-6.92547229 -1.26966992 -6.92547229 -1.26966992 0 0 Z " fill="#080706" transform="translate(131,94)"/>
<path d="M0 0 C0.64746585 -0.00367669 1.29493169 -0.00735338 1.96201771 -0.01114148 C4.14144971 -0.02219457 6.32083406 -0.02602488 8.50028992 -0.02983093 C10.05895642 -0.03609433 11.61762143 -0.04274102 13.17628479 -0.04974365 C17.41809713 -0.06716422 21.65989819 -0.07770818 25.90173745 -0.08594918 C28.55078786 -0.09109687 31.19983475 -0.09717269 33.84888268 -0.10346031 C42.13396775 -0.12251494 50.4190439 -0.13674576 58.70414668 -0.14507228 C68.27387672 -0.15484815 77.84337566 -0.18117556 87.41302425 -0.22157317 C94.80586487 -0.25171264 102.19863916 -0.26653907 109.59154004 -0.26985329 C114.00886763 -0.27220618 118.42594843 -0.28119736 122.84321022 -0.30631447 C126.99896091 -0.32956256 131.15430174 -0.33384175 135.31010056 -0.32355309 C136.83510767 -0.32305682 138.36013473 -0.32940396 139.88508034 -0.34310913 C141.96815026 -0.36078235 144.04974191 -0.35374662 146.1328125 -0.34057617 C147.29812657 -0.34296453 148.46344065 -0.34535288 149.66406727 -0.34781361 C153.41187607 0.25199856 155.06584009 1.52374046 157.75688171 4.14717102 C159.68186832 7.99714423 158.98526124 12.72475982 159.00688171 16.95967102 C159.03781921 18.45723938 159.03781921 18.45723938 159.06938171 19.98506165 C159.11878774 29.2548672 159.11878774 29.2548672 155.75688171 33.14717102 C152.93787804 34.55667286 150.58527005 34.28292117 147.43110657 34.29434204 C146.77476805 34.29801873 146.11842953 34.30169542 145.44220197 34.30548352 C143.23279703 34.31653713 141.0234391 34.32036699 138.81401062 34.32417297 C137.23401743 34.33043627 135.65402573 34.33708295 134.07403564 34.34408569 C129.77444098 34.36150578 125.47485744 34.37204982 121.17523623 34.38029122 C118.49068158 34.38543839 115.80613041 34.3915142 113.12157822 34.39780235 C104.72703829 34.41685576 96.33250718 34.43108755 87.93794978 34.43941432 C78.23860003 34.44919355 68.53947809 34.47553022 58.84020865 34.51591522 C51.34887069 34.54603995 43.85759818 34.56087965 36.3662008 34.56419533 C31.88910282 34.56654966 27.41224816 34.57555969 22.935215 34.60065651 C18.72447696 34.62387925 14.51414347 34.62819407 10.30335808 34.61789513 C8.75696787 34.61739826 7.21055814 34.62376294 5.66422844 34.63745117 C3.55453838 34.65508318 1.44631392 34.64810905 -0.66337585 34.63491821 C-2.43485269 34.63850074 -2.43485269 34.63850074 -4.24211693 34.64215565 C-7.86442781 34.04469234 -9.00183706 32.99007983 -11.24311829 30.14717102 C-13.17119513 26.29101733 -12.51501202 21.57667269 -12.55561829 17.33467102 C-12.58462219 16.33629211 -12.6136261 15.33791321 -12.64350891 14.3092804 C-12.70754045 6.91610091 -12.70754045 6.91610091 -10.34858704 3.01045227 C-6.82348673 -0.1091634 -4.64612168 0.01705498 0 0 Z " fill="#030607" transform="translate(80.24311828613281,50.85282897949219)"/>
<path d="M0 0 C50.49 0 100.98 0 153 0 C153 5.61 153 11.22 153 17 C102.51 17 52.02 17 0 17 C0 11.39 0 5.78 0 0 Z " fill="#02A8F3" transform="translate(77,60)"/>
<path d="M0 0 C0.00238835 0.62322458 0.00477671 1.24644917 0.00723743 1.88855934 C0.0664079 17.06235889 0.14197095 32.235981 0.23571491 47.40960121 C0.28065497 54.74749947 0.3200737 62.08534939 0.34643555 69.42333984 C0.3694302 75.82013431 0.40284448 82.21677557 0.44870156 88.6134485 C0.47261421 91.99956105 0.49135572 95.38552205 0.49761391 98.77171707 C0.50722589 102.55458422 0.53525217 106.33689765 0.56762695 110.11962891 C0.56619186 111.23884735 0.56475677 112.3580658 0.5632782 113.51119995 C0.63051813 119.06051975 0.77527081 123.25431253 4 128 C6.88932788 130.40777323 8.69478136 130.96115399 12.4375 131.4375 C16.71381679 130.91233829 18.71769265 129.76012209 22 127 C24.4998663 123.48236604 25.37658988 121.06624562 25.39872742 116.76713562 C25.41126556 115.7337355 25.42380371 114.70033539 25.4367218 113.63562012 C25.43528671 112.5128064 25.43385162 111.38999268 25.43237305 110.2331543 C25.4425647 109.04248856 25.45275635 107.85182281 25.46325684 106.62507629 C25.48823865 103.36921426 25.50010636 100.11362333 25.50611091 96.85768104 C25.51550395 93.45166614 25.54170805 90.04578123 25.56611633 86.6398468 C25.60975957 80.19433309 25.63831981 73.74884464 25.66143972 67.3032282 C25.68850312 59.9633947 25.73241388 52.6236921 25.77772844 45.28395212 C25.87054348 30.189372 25.94223852 15.09475801 26 0 C28.64 0 31.28 0 34 0 C34.11695161 16.15974925 34.20504574 32.3193606 34.25906086 48.47943115 C34.28481093 55.98333915 34.31989966 63.48698375 34.37719727 70.99072266 C34.42713092 77.53320784 34.45931426 84.0755022 34.47044247 90.61817265 C34.47694459 94.08057855 34.49215793 97.54243871 34.52865028 101.00466919 C34.5691172 104.8756104 34.56994304 108.74602425 34.56762695 112.6171875 C34.58560333 113.75726761 34.60357971 114.89734772 34.62210083 116.07197571 C34.57161181 123.87868762 33.00550732 128.88801485 27.52174854 134.51754761 C22.12908247 139.32799248 17.53822924 140.41086321 10.49609375 140.25390625 C4.77904837 139.67236016 0.05357263 137.05357263 -4 133 C-8.41216319 126.66016025 -8.57312975 120.57001796 -8.51757812 113.04785156 C-8.5245874 111.87292648 -8.53159668 110.6980014 -8.53881836 109.48747253 C-8.55635897 105.62161313 -8.54479167 101.75649124 -8.53125 97.890625 C-8.53214155 95.19878551 -8.53782207 92.506959 -8.54284668 89.81512451 C-8.55010548 84.18314672 -8.54057793 78.55137938 -8.52148438 72.91943359 C-8.49967642 66.4117409 -8.50680205 59.90454876 -8.52879 53.39686799 C-8.54694423 47.79919473 -8.54950357 42.20167205 -8.53903532 36.60397887 C-8.53280574 33.26488481 -8.53352559 29.92621534 -8.54518127 26.5871048 C-8.55531488 22.86924601 -8.53989052 19.15235668 -8.51757812 15.43457031 C-8.52567505 14.33008041 -8.53377197 13.22559052 -8.54211426 12.08763123 C-8.53083496 11.07558121 -8.51955566 10.06353119 -8.50793457 9.02081299 C-8.50642647 8.1425951 -8.50491837 7.26437721 -8.50336456 6.35954666 C-7.43349285 1.34446929 -4.89550017 0 0 0 Z " fill="#CED7DB" transform="translate(17,73)"/>
<path d="M0 0 C22.44 0 44.88 0 68 0 C68 14.19 68 28.38 68 43 C61.07 43 54.14 43 47 43 C46.75 35.375 46.75 35.375 46.70214844 33.00927734 C46.45974665 27.98390563 45.28194172 24.9886372 42 21 C37.7567553 18.1711702 33.98265471 18.34731999 29 19 C25.36157878 21.12241238 23.49724271 23.10972835 22 27 C21.70409176 29.78042086 21.49352981 32.46483032 21.375 35.25 C21.25125 37.8075 21.1275 40.365 21 43 C14.07 43 7.14 43 0 43 C0 28.81 0 14.62 0 0 Z " fill="#F3F3F3" transform="translate(94,149)"/>
<path d="M0 0 C4.08379341 1.35172847 6.37683519 3.06936242 9.3125 6.1875 C12.67416907 9.66527935 16.10599992 12.9098575 19.7734375 16.05859375 C23.06650429 18.9299169 26.26887617 21.8990188 29.48071289 24.86035156 C33.4169216 28.48334577 37.41447168 32.03030341 41.453125 35.5390625 C41.96359375 36.02117187 42.4740625 36.50328125 43 37 C43 37.33 43 37.66 43 38 C15.28 38 -12.44 38 -41 38 C-41 37.34 -41 36.68 -41 36 C-39.52931586 34.69136629 -37.99398682 33.4553144 -36.4375 32.25 C-31.5203192 28.3238789 -26.88895241 24.19234318 -22.3125 19.875 C-17.29322669 15.14463729 -12.25049027 10.47484966 -7 6 C-5.99453125 5.13568359 -5.99453125 5.13568359 -4.96875 4.25390625 C-3.31494938 2.83308151 -1.65785866 1.4160876 0 0 Z " fill="#F24234" transform="translate(127,103)"/>
<path d="M0 0 C3.62572519 -0.33727676 5.51825444 -0.29420141 8.66692829 1.62868977 C11.63180287 4.64215798 11.62962246 6.01570958 11.64164734 10.19096375 C11.66496376 12.0981292 11.66496376 12.0981292 11.68875122 14.04382324 C11.68062446 15.45068663 11.67197026 16.85754705 11.6628418 18.2644043 C11.67125556 19.74792265 11.68178094 21.23143031 11.69425964 22.71492004 C11.72134241 26.74427375 11.71659641 30.77300909 11.70455909 34.8024137 C11.69742888 38.16942699 11.70592696 41.53632582 11.71446449 44.90333015 C11.73442988 52.85191784 11.72883655 60.80020493 11.70678711 68.7487793 C11.68445899 76.93666056 11.7019751 85.12375194 11.73983639 93.31155843 C11.77112872 100.34872515 11.77896764 107.3856481 11.76788265 114.4228757 C11.76140928 118.62238988 11.76333037 122.82144913 11.78720665 127.02091026 C11.80854176 130.97506048 11.80037486 134.92810366 11.77011299 138.88218498 C11.76381221 140.32808922 11.76758196 141.77408036 11.78252411 143.21992111 C11.86640464 152.05755902 11.21299977 158.37997127 5 165 C1.4241157 167.91908922 -1.40712158 169.45966136 -6 170 C-4.84576027 167.49914724 -3.5573905 165.3499173 -2 163.0625 C1.19813126 158.1653615 2.24996939 154.54490849 2.25396729 148.69309998 C2.25960693 147.42147003 2.26524658 146.14984009 2.27105713 144.8396759 C2.26716888 143.43795719 2.26307257 142.03623904 2.25878906 140.63452148 C2.26150026 139.15260649 2.26506191 137.67069284 2.26940918 136.18878174 C2.27851939 132.17030869 2.27499479 128.15193845 2.26865101 124.13346362 C2.26358489 119.92727556 2.26828408 115.72109625 2.27142334 111.51490784 C2.27506079 104.4527122 2.27026925 97.39055842 2.26074219 90.32836914 C2.24985384 82.16277511 2.25338685 73.99728092 2.264395 65.8316893 C2.27346913 58.82011035 2.27475266 51.80856146 2.26951766 44.79697853 C2.26639919 40.60952846 2.26598532 36.42212533 2.27259064 32.23467827 C2.27836544 28.29893185 2.27436477 24.36331428 2.26280212 20.42758179 C2.26015644 18.98279599 2.26091908 17.53799935 2.26532745 16.09321785 C2.27078753 14.12212129 2.26272843 12.15100104 2.25396729 10.17991638 C2.25321323 9.07657172 2.25245918 7.97322706 2.25168228 6.83644772 C2.00297216 4.03349606 1.4515858 2.38028635 0 0 Z " fill="#CED7DB" transform="translate(236,43)"/>
<path d="M0 0 C2.64 0 5.28 0 8 0 C8.04667656 15.74188837 8.08196748 31.48375812 8.10362434 47.22569847 C8.11394632 54.53460373 8.12802417 61.84346605 8.15087891 69.15234375 C8.17078467 75.5211746 8.18370973 81.88997435 8.18817699 88.25883543 C8.19078916 91.6325405 8.19694785 95.00615661 8.21146011 98.37983322 C8.22589009 102.14178587 8.22798151 105.90355167 8.22705078 109.66552734 C8.23424133 110.78977615 8.24143188 111.91402496 8.24884033 113.07234192 C8.246091 114.09320389 8.24334167 115.11406586 8.24050903 116.16586304 C8.24235262 117.05631506 8.24419621 117.94676708 8.24609566 118.8642025 C8 121 8 121 6 123 C3.4375 123.1875 3.4375 123.1875 1 123 C0 122 0 122 -0.12304783 119.97163296 C-0.12212604 119.0728848 -0.12120424 118.17413664 -0.12025452 117.24815369 C-0.12162918 116.22025223 -0.12300385 115.19235077 -0.12442017 114.13330078 C-0.12082489 112.99610596 -0.11722961 111.85891113 -0.11352539 110.68725586 C-0.11367142 109.49717422 -0.11381744 108.30709259 -0.1139679 107.08094788 C-0.11338894 103.80836726 -0.10835981 100.53582893 -0.10139394 97.26325679 C-0.09515967 93.84661335 -0.09455654 90.42996917 -0.09336853 87.01332092 C-0.09025543 80.53930733 -0.08204233 74.06531054 -0.07201904 67.59130436 C-0.06085725 60.2226208 -0.05534729 52.85393645 -0.05032361 45.48524654 C-0.03985969 30.32348831 -0.02226066 15.16174583 0 0 Z " fill="#9D9D9D" transform="translate(26,73)"/>
<path d="M0 0 C0.83103745 -0.00953201 1.66207489 -0.01906403 2.51829529 -0.02888489 C3.41726028 -0.02797348 4.31622528 -0.02706207 5.24243164 -0.02612305 C6.16472061 -0.03040817 7.08700958 -0.0346933 8.0372467 -0.03910828 C9.98999205 -0.04485738 11.94275881 -0.04534758 13.89550781 -0.04101562 C16.88717124 -0.03785807 19.87784388 -0.06129909 22.86938477 -0.08666992 C24.76456581 -0.08894305 26.65974951 -0.08964635 28.55493164 -0.08862305 C29.45187241 -0.09783279 30.34881317 -0.10704254 31.27293396 -0.11653137 C32.10712357 -0.11030258 32.94131317 -0.10407379 33.80078125 -0.09765625 C34.53421249 -0.09828568 35.26764374 -0.0989151 36.02330017 -0.0995636 C38.53295283 0.38409727 39.44792914 1.24752568 40.96508789 3.2746582 C40.77758789 5.8996582 40.77758789 5.8996582 39.96508789 8.2746582 C37.69524231 9.409581 36.43453689 9.40686324 33.91430664 9.41992188 C33.0800415 9.42630173 32.24577637 9.43268158 31.38623047 9.43925476 C30.48412842 9.44036758 29.58202637 9.44148041 28.65258789 9.44262695 C27.72792725 9.44595535 26.8032666 9.44928375 25.85058594 9.45271301 C23.89364114 9.45778041 21.93668768 9.4601214 19.97973633 9.45996094 C16.97731395 9.46214929 13.9752578 9.48031206 10.97290039 9.49926758 C9.07446415 9.5022011 7.17602616 9.50418617 5.27758789 9.50512695 C4.37548584 9.51231247 3.47338379 9.51949799 2.54394531 9.52690125 C1.29254761 9.5222863 1.29254761 9.5222863 0.01586914 9.51757812 C-0.71978271 9.51900314 -1.45543457 9.52042816 -2.21337891 9.52189636 C-4.03491211 9.2746582 -4.03491211 9.2746582 -6.03491211 7.2746582 C-6.28491211 4.7746582 -6.28491211 4.7746582 -6.03491211 2.2746582 C-3.67033153 -0.08992238 -3.20777003 0.02017299 0 0 Z " fill="#0E0E0E" transform="translate(194.034912109375,165.725341796875)"/>
<path d="M0 0 C1.21641174 -0.01429802 1.21641174 -0.01429802 2.45739746 -0.02888489 C3.76529236 -0.02751778 3.76529236 -0.02751778 5.09960938 -0.02612305 C5.99828735 -0.03040817 6.89696533 -0.0346933 7.82287598 -0.03910828 C9.7225663 -0.04485023 11.62227861 -0.04535283 13.52197266 -0.04101562 C16.43234619 -0.03785376 19.34170517 -0.06132276 22.25195312 -0.08666992 C24.09700392 -0.08894269 25.94205746 -0.08964651 27.78710938 -0.08862305 C29.09500427 -0.10243767 29.09500427 -0.10243767 30.42932129 -0.11653137 C31.24026245 -0.11030258 32.05120361 -0.10407379 32.88671875 -0.09765625 C33.95569397 -0.09860039 33.95569397 -0.09860039 35.04626465 -0.0995636 C37.52387553 0.38917109 38.43963294 1.27642282 39.94335938 3.2746582 C39.75585938 5.8996582 39.75585938 5.8996582 38.94335938 8.2746582 C36.67351379 9.409581 35.41280838 9.40686324 32.89257812 9.41992188 C32.05831299 9.42630173 31.22404785 9.43268158 30.36450195 9.43925476 C29.4623999 9.44036758 28.56029785 9.44148041 27.63085938 9.44262695 C26.70619873 9.44595535 25.78153809 9.44928375 24.82885742 9.45271301 C22.87191262 9.45778041 20.91495917 9.4601214 18.95800781 9.45996094 C15.95558544 9.46214929 12.95352928 9.48031206 9.95117188 9.49926758 C8.05273564 9.5022011 6.15429765 9.50418617 4.25585938 9.50512695 C3.35375732 9.51231247 2.45165527 9.51949799 1.5222168 9.52690125 C0.27081909 9.5222863 0.27081909 9.5222863 -1.00585938 9.51757812 C-1.74151123 9.51900314 -2.47716309 9.52042816 -3.23510742 9.52189636 C-5.05664062 9.2746582 -5.05664062 9.2746582 -7.05664062 7.2746582 C-7.36914062 4.7746582 -7.36914062 4.7746582 -7.05664062 2.2746582 C-4.01856835 0.24927669 -3.41232889 0.02206122 0 0 Z " fill="#0D0D0D" transform="translate(195.056640625,182.725341796875)"/>
<path d="M0 0 C0.83103745 -0.00953201 1.66207489 -0.01906403 2.51829529 -0.02888489 C3.41726028 -0.02797348 4.31622528 -0.02706207 5.24243164 -0.02612305 C6.16472061 -0.03040817 7.08700958 -0.0346933 8.0372467 -0.03910828 C9.98999205 -0.04485738 11.94275881 -0.04534758 13.89550781 -0.04101562 C16.88717124 -0.03785807 19.87784388 -0.06129909 22.86938477 -0.08666992 C24.76456581 -0.08894305 26.65974951 -0.08964635 28.55493164 -0.08862305 C29.45187241 -0.09783279 30.34881317 -0.10704254 31.27293396 -0.11653137 C32.10712357 -0.11030258 32.94131317 -0.10407379 33.80078125 -0.09765625 C34.53421249 -0.09828568 35.26764374 -0.0989151 36.02330017 -0.0995636 C38.51939689 0.38148477 39.4375494 1.2773882 40.96508789 3.2746582 C40.69472642 6.24863436 40.11062763 7.12911846 37.96508789 9.2746582 C36.14355469 9.52862549 36.14355469 9.52862549 33.91430664 9.53344727 C32.66290894 9.54290375 32.66290894 9.54290375 31.38623047 9.55255127 C30.48412842 9.54850281 29.58202637 9.54445435 28.65258789 9.5402832 C27.26559692 9.54315338 27.26559692 9.54315338 25.85058594 9.54608154 C23.8936333 9.54744386 21.93667165 9.54374416 19.97973633 9.53540039 C16.97725199 9.52470155 13.97536602 9.53529411 10.97290039 9.5480957 C9.07446156 9.54677412 7.17602311 9.54421174 5.27758789 9.5402832 C4.37548584 9.54433167 3.47338379 9.54838013 2.54394531 9.55255127 C1.29254761 9.54309479 1.29254761 9.54309479 0.01586914 9.53344727 C-0.71978271 9.53185608 -1.45543457 9.53026489 -2.21337891 9.52862549 C-4.03491211 9.2746582 -4.03491211 9.2746582 -6.03491211 7.2746582 C-6.28491211 4.7746582 -6.28491211 4.7746582 -6.03491211 2.2746582 C-3.67033153 -0.08992238 -3.20777003 0.02017299 0 0 Z " fill="#0D0D0D" transform="translate(194.034912109375,148.725341796875)"/>
<path d="M0 0 C0.83103745 -0.00953201 1.66207489 -0.01906403 2.51829529 -0.02888489 C3.41726028 -0.02797348 4.31622528 -0.02706207 5.24243164 -0.02612305 C6.16472061 -0.03040817 7.08700958 -0.0346933 8.0372467 -0.03910828 C9.98999205 -0.04485738 11.94275881 -0.04534758 13.89550781 -0.04101562 C16.88717124 -0.03785807 19.87784388 -0.06129909 22.86938477 -0.08666992 C24.76456581 -0.08894305 26.65974951 -0.08964635 28.55493164 -0.08862305 C29.45187241 -0.09783279 30.34881317 -0.10704254 31.27293396 -0.11653137 C32.10712357 -0.11030258 32.94131317 -0.10407379 33.80078125 -0.09765625 C34.53421249 -0.09828568 35.26764374 -0.0989151 36.02330017 -0.0995636 C38.51939689 0.38148477 39.4375494 1.2773882 40.96508789 3.2746582 C40.69472642 6.24863436 40.11062763 7.12911846 37.96508789 9.2746582 C36.14355469 9.52862549 36.14355469 9.52862549 33.91430664 9.53344727 C32.66290894 9.54290375 32.66290894 9.54290375 31.38623047 9.55255127 C30.48412842 9.54850281 29.58202637 9.54445435 28.65258789 9.5402832 C27.26559692 9.54315338 27.26559692 9.54315338 25.85058594 9.54608154 C23.8936333 9.54744386 21.93667165 9.54374416 19.97973633 9.53540039 C16.97725199 9.52470155 13.97536602 9.53529411 10.97290039 9.5480957 C9.07446156 9.54677412 7.17602311 9.54421174 5.27758789 9.5402832 C4.37548584 9.54433167 3.47338379 9.54838013 2.54394531 9.55255127 C1.29254761 9.54309479 1.29254761 9.54309479 0.01586914 9.53344727 C-0.71978271 9.53185608 -1.45543457 9.53026489 -2.21337891 9.52862549 C-4.03491211 9.2746582 -4.03491211 9.2746582 -6.03491211 7.2746582 C-6.28491211 4.7746582 -6.28491211 4.7746582 -6.03491211 2.2746582 C-3.67033153 -0.08992238 -3.20777003 0.02017299 0 0 Z " fill="#0D0D0D" transform="translate(194.034912109375,131.725341796875)"/>
<path d="M0 0 C0.83103745 -0.00953201 1.66207489 -0.01906403 2.51829529 -0.02888489 C3.41726028 -0.02797348 4.31622528 -0.02706207 5.24243164 -0.02612305 C6.16472061 -0.03040817 7.08700958 -0.0346933 8.0372467 -0.03910828 C9.98999205 -0.04485738 11.94275881 -0.04534758 13.89550781 -0.04101562 C16.88717124 -0.03785807 19.87784388 -0.06129909 22.86938477 -0.08666992 C24.76456581 -0.08894305 26.65974951 -0.08964635 28.55493164 -0.08862305 C29.45187241 -0.09783279 30.34881317 -0.10704254 31.27293396 -0.11653137 C32.10712357 -0.11030258 32.94131317 -0.10407379 33.80078125 -0.09765625 C34.53421249 -0.09828568 35.26764374 -0.0989151 36.02330017 -0.0995636 C38.51939689 0.38148477 39.4375494 1.2773882 40.96508789 3.2746582 C40.69472642 6.24863436 40.11062763 7.12911846 37.96508789 9.2746582 C36.14355469 9.52862549 36.14355469 9.52862549 33.91430664 9.53344727 C32.66290894 9.54290375 32.66290894 9.54290375 31.38623047 9.55255127 C30.48412842 9.54850281 29.58202637 9.54445435 28.65258789 9.5402832 C27.26559692 9.54315338 27.26559692 9.54315338 25.85058594 9.54608154 C23.8936333 9.54744386 21.93667165 9.54374416 19.97973633 9.53540039 C16.97725199 9.52470155 13.97536602 9.53529411 10.97290039 9.5480957 C9.07446156 9.54677412 7.17602311 9.54421174 5.27758789 9.5402832 C4.37548584 9.54433167 3.47338379 9.54838013 2.54394531 9.55255127 C1.29254761 9.54309479 1.29254761 9.54309479 0.01586914 9.53344727 C-0.71978271 9.53185608 -1.45543457 9.53026489 -2.21337891 9.52862549 C-4.03491211 9.2746582 -4.03491211 9.2746582 -6.03491211 7.2746582 C-6.28491211 4.7746582 -6.28491211 4.7746582 -6.03491211 2.2746582 C-3.67033153 -0.08992238 -3.20777003 0.02017299 0 0 Z " fill="#0D0D0D" transform="translate(194.034912109375,114.725341796875)"/>
<path d="M0 0 C0.83103745 -0.00953201 1.66207489 -0.01906403 2.51829529 -0.02888489 C3.41726028 -0.02797348 4.31622528 -0.02706207 5.24243164 -0.02612305 C6.16472061 -0.03040817 7.08700958 -0.0346933 8.0372467 -0.03910828 C9.98999205 -0.04485738 11.94275881 -0.04534758 13.89550781 -0.04101562 C16.88717124 -0.03785807 19.87784388 -0.06129909 22.86938477 -0.08666992 C24.76456581 -0.08894305 26.65974951 -0.08964635 28.55493164 -0.08862305 C29.45187241 -0.09783279 30.34881317 -0.10704254 31.27293396 -0.11653137 C32.10712357 -0.11030258 32.94131317 -0.10407379 33.80078125 -0.09765625 C34.53421249 -0.09828568 35.26764374 -0.0989151 36.02330017 -0.0995636 C38.51939689 0.38148477 39.4375494 1.2773882 40.96508789 3.2746582 C40.69472642 6.24863436 40.11062763 7.12911846 37.96508789 9.2746582 C36.14355469 9.52862549 36.14355469 9.52862549 33.91430664 9.53344727 C32.66290894 9.54290375 32.66290894 9.54290375 31.38623047 9.55255127 C30.48412842 9.54850281 29.58202637 9.54445435 28.65258789 9.5402832 C27.26559692 9.54315338 27.26559692 9.54315338 25.85058594 9.54608154 C23.8936333 9.54744386 21.93667165 9.54374416 19.97973633 9.53540039 C16.97725199 9.52470155 13.97536602 9.53529411 10.97290039 9.5480957 C9.07446156 9.54677412 7.17602311 9.54421174 5.27758789 9.5402832 C4.37548584 9.54433167 3.47338379 9.54838013 2.54394531 9.55255127 C1.29254761 9.54309479 1.29254761 9.54309479 0.01586914 9.53344727 C-0.71978271 9.53185608 -1.45543457 9.53026489 -2.21337891 9.52862549 C-4.03491211 9.2746582 -4.03491211 9.2746582 -6.03491211 7.2746582 C-6.28491211 4.7746582 -6.28491211 4.7746582 -6.03491211 2.2746582 C-3.67033153 -0.08992238 -3.20777003 0.02017299 0 0 Z " fill="#0D0D0D" transform="translate(194.034912109375,97.725341796875)"/>
<path d="M0 0 C22.44 0 44.88 0 68 0 C68 14.19 68 28.38 68 43 C65.36 43 62.72 43 60 43 C60 29.14 60 15.28 60 1 C40.2 1 20.4 1 0 1 C0 0.67 0 0.34 0 0 Z " fill="#C7CED2" transform="translate(94,149)"/>
<path d="M0 0 C4.08379341 1.35172847 6.37683519 3.06936242 9.3125 6.1875 C12.67416907 9.66527935 16.10599992 12.9098575 19.7734375 16.05859375 C23.06650429 18.9299169 26.26887617 21.8990188 29.48071289 24.86035156 C33.4169216 28.48334577 37.41447168 32.03030341 41.453125 35.5390625 C41.96359375 36.02117187 42.4740625 36.50328125 43 37 C43 37.33 43 37.66 43 38 C15.28 38 -12.44 38 -41 38 C-40.67 37.34 -40.34 36.68 -40 36 C-15.25 36.33 9.5 36.66 35 37 C32.36769669 33.70962086 30.51164131 31.39530987 27.4375 28.8125 C24.06862363 25.93295763 20.77139736 22.99008441 17.5 20 C11.12023336 14.18497066 4.65872703 8.4934498 -2 3 C-1.34 2.01 -0.68 1.02 0 0 Z " fill="#BD221F" transform="translate(127,103)"/>
<path d="M0 0 C2.64 0 5.28 0 8 0 C8 5.61 8 11.22 8 17 C-42.49 17 -92.98 17 -145 17 C-145 16.67 -145 16.34 -145 16 C-97.15 16 -49.3 16 0 16 C0 10.72 0 5.44 0 0 Z " fill="#0286C2" transform="translate(222,60)"/>
<path d="M0 0 C2.64 0 5.28 0 8 0 C8 5.61 8 11.22 8 17 C5.36 17 2.72 17 0 17 C0 11.39 0 5.78 0 0 Z " fill="#0275B9" transform="translate(222,60)"/>
<path d="M0 0 C4.55555556 0.55555556 4.55555556 0.55555556 6 2 C6.07313567 4.53049402 6.09247527 7.03304837 6.0625 9.5625 C6.05798828 10.27341797 6.05347656 10.98433594 6.04882812 11.71679688 C6.03700864 13.47790013 6.01907263 15.23896036 6 17 C3.36 17 0.72 17 -2 17 C-2.05383848 14.54137599 -2.09359038 12.0839245 -2.125 9.625 C-2.14175781 8.92632812 -2.15851563 8.22765625 -2.17578125 7.5078125 C-2.19344267 5.67102514 -2.10303261 3.83398037 -2 2 C-1.34 1.34 -0.68 0.68 0 0 Z " fill="#9F512C" transform="translate(126,175)"/>
<path d="M0 0 C2.64 0 5.28 0 8 0 C8.70466321 5.10880829 8.70466321 5.10880829 8 8 C5.54583429 10.57256844 3.05247597 12.09220252 0 14 C0 9.38 0 4.76 0 0 Z " fill="#C51D1D" transform="translate(94,107)"/>
</svg>
