<?xml version="1.0" encoding="UTF-8"?>
<svg version="1.1" xmlns="http://www.w3.org/2000/svg" width="256" height="256">
<path d="M0 0 C1.23659866 -0.0112793 2.47319733 -0.02255859 3.74726868 -0.03417969 C5.11483999 -0.02640273 6.48240899 -0.01821006 7.84997559 -0.00964355 C9.29234016 -0.01506457 10.73469919 -0.02218712 12.17704773 -0.03088379 C16.09238186 -0.04912289 20.00729451 -0.04204744 23.92263603 -0.02936745 C28.01939915 -0.01924272 32.1161261 -0.02863165 36.21289062 -0.03491211 C43.09279868 -0.04219007 49.97253501 -0.03259699 56.85241699 -0.0135498 C64.80735426 0.00821933 72.76188147 0.00116805 80.7168088 -0.02085543 C87.54580588 -0.03900526 94.3746795 -0.04156982 101.20369291 -0.03110075 C105.28278036 -0.02486349 109.36167504 -0.02403646 113.44075012 -0.0372467 C117.27567561 -0.04879866 121.11007224 -0.0407921 124.94494057 -0.01766968 C126.35262994 -0.01237899 127.7603638 -0.01390261 129.16803551 -0.02272034 C131.08881419 -0.03364322 133.00969008 -0.01751941 134.93041992 0 C136.00556602 0.0015081 137.08071213 0.0030162 138.18843842 0.00457001 C141.67469109 0.63654712 142.8568379 1.70063466 144.96520996 4.50793457 C145.35978773 7.42644454 145.51258307 9.96736928 145.48278809 12.8848877 C145.48979736 13.72760727 145.49680664 14.57032684 145.50402832 15.43858337 C145.52162441 18.22245293 145.50998005 21.00530479 145.49645996 23.78918457 C145.49915442 25.7244486 145.50303645 27.65971131 145.50805664 29.5949707 C145.51395387 33.65023695 145.50538146 37.70515071 145.48669434 41.76037598 C145.4639047 46.95936389 145.47702657 52.15752586 145.50098419 57.35648346 C145.51543606 61.35250068 145.51083898 65.34832198 145.50047302 69.34434509 C145.49780405 71.26130776 145.50108148 73.17828819 145.51039124 75.0952301 C145.52054679 77.7742934 145.50507023 80.45201791 145.48278809 83.13098145 C145.49088501 83.92383041 145.49898193 84.71667938 145.50732422 85.53355408 C145.45420301 88.9798163 145.22604056 91.12636307 143.25958252 94.00311279 C140.50513944 95.80968336 139.01454014 95.9938504 135.7376709 95.96203613 C134.69689392 95.96173401 133.65611694 95.96143188 132.58380127 95.96112061 C130.9086142 95.93015289 130.9086142 95.93015289 129.19958496 95.89855957 C128.05105042 95.89289978 126.90251587 95.88723999 125.71917725 95.88140869 C122.05076422 95.85901788 118.38332779 95.80881399 114.71520996 95.75793457 C112.2282449 95.73787318 109.74126453 95.71962179 107.25427246 95.70324707 C101.15754199 95.65914381 95.06154156 95.59009537 88.96520996 95.50793457 C88.96520996 99.13793457 88.96520996 102.76793457 88.96520996 106.50793457 C112.72520996 106.50793457 136.48520996 106.50793457 160.96520996 106.50793457 C160.88609578 85.67060234 160.88609578 85.67060234 160.78503418 64.83337402 C160.77919292 62.22098961 160.7740965 59.60860339 160.76989746 56.99621582 C160.76467072 56.32092331 160.75944397 55.6456308 160.75405884 54.94987488 C160.7393614 52.95015075 160.73853134 50.95033963 160.73815918 48.95056152 C160.73371796 47.82471146 160.72927673 46.69886139 160.72470093 45.53889465 C161.04515514 41.50044377 161.85980895 38.61318426 164.74865723 35.72473145 C169.09126761 33.3408158 174.06243985 33.99647153 178.90270996 34.00793457 C179.98745605 33.9795752 181.07220215 33.95121582 182.18981934 33.92199707 C183.76279785 33.91812988 183.76279785 33.91812988 185.36755371 33.91418457 C186.32137939 33.90709473 187.27520508 33.90000488 188.25793457 33.8927002 C192.07546158 34.76024173 193.48723886 36.52465852 195.96520996 39.50793457 C196.59162235 42.45460606 196.59162235 42.45460606 196.59339905 45.77687073 C196.61237999 47.67169441 196.61237999 47.67169441 196.63174438 49.60479736 C196.62042912 50.99707442 196.60860169 52.3893474 196.59631348 53.78161621 C196.60145374 55.25368614 196.60873583 56.72574991 196.61799622 58.19779968 C196.63650368 62.18961245 196.62357695 66.18075694 196.60390592 70.17254186 C196.58751553 74.35070776 196.5963327 78.52883147 196.60142517 82.70701599 C196.60594521 89.72222567 196.59008078 96.73716863 196.56213379 103.75231934 C196.53006967 111.86349655 196.53010265 119.97419306 196.54734856 128.08540446 C196.56320921 135.8889367 196.55648392 143.69229266 196.53941154 151.49581718 C196.53253794 154.81674325 196.53357658 158.13752813 196.5409565 161.45845222 C196.54861483 165.36809986 196.53650871 169.27719998 196.50910759 173.18675423 C196.50221829 174.62185033 196.50213169 176.05699751 196.50932312 177.49209213 C196.51800457 179.4500608 196.49963972 181.40809391 196.47987366 183.36598206 C196.47706674 184.46195237 196.47425982 185.55792269 196.47136784 186.68710423 C195.84285156 190.18984099 194.74070405 191.34630995 191.96520996 193.50793457 C189.23009966 194.419638 187.64298977 194.63385998 184.83062935 194.63656902 C183.98475797 194.63979347 183.13888659 194.64301792 182.26738274 194.64634007 C180.87319219 194.64401717 180.87319219 194.64401717 179.45083618 194.64164734 C178.46358106 194.6439129 177.47632595 194.64617845 176.45915401 194.64851266 C173.13580285 194.65486604 169.81249232 194.65402244 166.48913574 194.65319824 C164.11259915 194.6561889 161.73606305 194.65959121 159.35952759 194.66337585 C153.56497861 194.67130904 147.77044205 194.67443092 141.97588791 194.67498823 C137.2663322 194.67546317 132.55677984 194.67751678 127.84722519 194.68068886 C114.49859437 194.68949689 101.1499716 194.69410802 87.80133785 194.69335838 C87.08149475 194.69331843 86.36165165 194.69327847 85.61999512 194.6932373 C84.8992744 194.69319642 84.17855368 194.69315554 83.43599294 194.69311342 C71.75453434 194.69270694 60.07310796 194.70227676 48.39165868 194.71637567 C36.40097568 194.73073376 24.4103084 194.73764616 12.41961658 194.7367819 C5.68625648 194.73644972 -1.04706984 194.73920562 -7.78042221 194.74995995 C-14.1119653 194.7596187 -20.44343689 194.75973539 -26.77498245 194.75244331 C-29.1014186 194.7513947 -31.42785914 194.75377665 -33.75428772 194.75980377 C-36.92509304 194.76748761 -40.09564926 194.76290276 -43.26644897 194.75517273 C-44.1914479 194.76031629 -45.11644682 194.76545986 -46.06947601 194.77075928 C-54.22122531 194.72671181 -54.22122531 194.72671181 -58.03479004 192.50793457 C-60.37197843 189.00215198 -60.29149904 187.58890283 -60.3089447 183.44154358 C-60.31891983 182.17266296 -60.32889496 180.90378235 -60.33917236 179.59645081 C-60.34006818 178.18746961 -60.34073174 176.77848825 -60.34118652 175.36950684 C-60.34880671 173.88788433 -60.35723396 172.40626579 -60.3664093 170.9246521 C-60.38837315 166.89782249 -60.39715552 162.87106882 -60.40223575 158.84418607 C-60.4058766 156.32930615 -60.41211519 153.81444621 -60.41923714 151.2995739 C-60.44373661 142.52876789 -60.45678494 133.75802109 -60.46032715 124.98718262 C-60.46396451 116.80673233 -60.49387273 108.62665677 -60.53573173 100.44632107 C-60.57039643 93.42628551 -60.58587491 86.40637438 -60.58657318 79.38625377 C-60.58736721 75.19192697 -60.59616303 70.99798187 -60.62457085 66.80374336 C-60.65068703 62.85964555 -60.65299352 58.91624769 -60.63691521 54.97210312 C-60.63509561 53.52407624 -60.64183753 52.07600969 -60.65773392 50.62806892 C-60.67810102 48.65258544 -60.66468826 46.67683945 -60.64952087 44.7013092 C-60.6515322 43.59536691 -60.65354353 42.48942461 -60.65561581 41.34996891 C-60.03479004 38.50793457 -60.03479004 38.50793457 -57.66458225 36.15418911 C-53.06762112 33.27648338 -48.31738639 33.89185215 -43.03479004 33.94543457 C-41.41443848 33.90966309 -41.41443848 33.90966309 -39.76135254 33.87316895 C-38.71721191 33.87510254 -37.67307129 33.87703613 -36.59729004 33.87902832 C-35.17609863 33.87794067 -35.17609863 33.87794067 -33.72619629 33.87683105 C-29.91483154 34.77055184 -28.49975151 36.50862615 -26.03479004 39.50793457 C-25.43351746 42.65278625 -25.43351746 42.65278625 -25.46716309 46.22595215 C-25.46656041 46.89067126 -25.46595774 47.55539038 -25.4653368 48.24025249 C-25.4690503 50.37852718 -25.50702743 52.51458451 -25.54650879 54.65246582 C-25.55154419 55.96453003 -25.55657959 57.27659424 -25.56176758 58.62841797 C-25.5879124 63.52597935 -25.65771929 68.42322908 -25.72229004 73.32043457 C-25.82541504 84.27230957 -25.92854004 95.22418457 -26.03479004 106.50793457 C-2.27479004 106.50793457 21.48520996 106.50793457 45.96520996 106.50793457 C45.96520996 102.87793457 45.96520996 99.24793457 45.96520996 95.50793457 C44.41092285 95.52888184 42.85663574 95.5498291 41.25524902 95.57141113 C35.49297282 95.64376835 29.73073683 95.68971936 23.96813965 95.72766113 C21.47327931 95.74778621 18.97846618 95.77508909 16.48376465 95.80969238 C12.89933628 95.85816914 9.31553112 95.88089478 5.73083496 95.89855957 C4.61404358 95.91920471 3.4972522 95.93984985 2.34661865 95.96112061 C0.78545319 95.96157379 0.78545319 95.96157379 -0.80725098 95.96203613 C-1.72214294 95.97091858 -2.63703491 95.97980103 -3.57965088 95.98895264 C-6.99569812 95.31967064 -8.068777 94.3840333 -10.03479004 91.50793457 C-10.42936781 88.5894246 -10.58216315 86.04849986 -10.55236816 83.13098145 C-10.55937744 82.28826187 -10.56638672 81.4455423 -10.5736084 80.57728577 C-10.59120449 77.79341621 -10.57956013 75.01056435 -10.56604004 72.22668457 C-10.56873449 70.29142054 -10.57261653 68.35615783 -10.57763672 66.42089844 C-10.58353395 62.36563219 -10.57496154 58.31071843 -10.55627441 54.25549316 C-10.53348478 49.05650525 -10.54660665 43.85834328 -10.57056427 38.65938568 C-10.58501614 34.66336846 -10.58041905 30.66754716 -10.5700531 26.67152405 C-10.56738413 24.75456139 -10.57066156 22.83758095 -10.57997131 20.92063904 C-10.59012686 18.24157574 -10.57465031 15.56385123 -10.55236816 12.8848877 C-10.56046509 12.09203873 -10.56856201 11.29918976 -10.5769043 10.48231506 C-10.52560412 7.15419304 -10.41009513 5.00765375 -8.38021851 2.30487061 C-5.38982695 0.01379994 -3.74381 0.00525142 0 0 Z " fill="#D68148" transform="translate(60.0347900390625,30.4920654296875)"/>
<path d="M0 0 C47.85 0 95.7 0 145 0 C145 28.05 145 56.1 145 85 C102.08510412 85.62535367 102.08510412 85.62535367 89.58984375 85.7734375 C88.28047505 85.78895723 88.28047505 85.78895723 86.94465446 85.8047905 C68.61577121 86.01811941 50.28756458 86.11454745 31.95749283 86.12338257 C29.74512546 86.12500357 27.53276829 86.12856211 25.32040405 86.13256836 C21.22920692 86.1394137 17.13807593 86.1370351 13.046875 86.1328125 C11.8308107 86.13479645 10.6147464 86.1367804 9.36183167 86.13882446 C7.71851112 86.13415665 7.71851112 86.13415665 6.04199219 86.12939453 C4.60832306 86.12820114 4.60832306 86.12820114 3.14569092 86.12698364 C1 86 1 86 0 85 C-0.09511403 82.35258118 -0.12554328 79.73144543 -0.11352539 77.08374023 C-0.11364593 76.24108392 -0.11376646 75.3984276 -0.11389065 74.53023624 C-0.11314142 71.78966233 -0.10551277 69.04915557 -0.09765625 66.30859375 C-0.09618686 64.62178582 -0.09516613 62.93497743 -0.09460449 61.24816895 C-0.08935126 54.97793903 -0.07539018 48.70771886 -0.0625 42.4375 C-0.0315625 21.4309375 -0.0315625 21.4309375 0 0 Z " fill="#C8FDF3" transform="translate(55,36)"/>
<path d="M0 0 C1.23659866 -0.0112793 2.47319733 -0.02255859 3.74726868 -0.03417969 C5.11483999 -0.02640273 6.48240899 -0.01821006 7.84997559 -0.00964355 C9.29234016 -0.01506457 10.73469919 -0.02218712 12.17704773 -0.03088379 C16.09238186 -0.04912289 20.00729451 -0.04204744 23.92263603 -0.02936745 C28.01939915 -0.01924272 32.1161261 -0.02863165 36.21289062 -0.03491211 C43.09279868 -0.04219007 49.97253501 -0.03259699 56.85241699 -0.0135498 C64.80735426 0.00821933 72.76188147 0.00116805 80.7168088 -0.02085543 C87.54580588 -0.03900526 94.3746795 -0.04156982 101.20369291 -0.03110075 C105.28278036 -0.02486349 109.36167504 -0.02403646 113.44075012 -0.0372467 C117.27567561 -0.04879866 121.11007224 -0.0407921 124.94494057 -0.01766968 C126.35262994 -0.01237899 127.7603638 -0.01390261 129.16803551 -0.02272034 C131.08881419 -0.03364322 133.00969008 -0.01751941 134.93041992 0 C136.00556602 0.0015081 137.08071213 0.0030162 138.18843842 0.00457001 C141.67469109 0.63654712 142.8568379 1.70063466 144.96520996 4.50793457 C145.35978773 7.42644454 145.51258307 9.96736928 145.48278809 12.8848877 C145.48979736 13.72760727 145.49680664 14.57032684 145.50402832 15.43858337 C145.52162441 18.22245293 145.50998005 21.00530479 145.49645996 23.78918457 C145.49915442 25.7244486 145.50303645 27.65971131 145.50805664 29.5949707 C145.51395387 33.65023695 145.50538146 37.70515071 145.48669434 41.76037598 C145.4639047 46.95936389 145.47702657 52.15752586 145.50098419 57.35648346 C145.51543606 61.35250068 145.51083898 65.34832198 145.50047302 69.34434509 C145.49780405 71.26130776 145.50108148 73.17828819 145.51039124 75.0952301 C145.52054679 77.7742934 145.50507023 80.45201791 145.48278809 83.13098145 C145.49088501 83.92383041 145.49898193 84.71667938 145.50732422 85.53355408 C145.45420301 88.9798163 145.22604056 91.12636307 143.25958252 94.00311279 C140.50513944 95.80968336 139.01454014 95.9938504 135.7376709 95.96203613 C134.69689392 95.96173401 133.65611694 95.96143188 132.58380127 95.96112061 C130.9086142 95.93015289 130.9086142 95.93015289 129.19958496 95.89855957 C128.05105042 95.89289978 126.90251587 95.88723999 125.71917725 95.88140869 C122.05076422 95.85901788 118.38332779 95.80881399 114.71520996 95.75793457 C112.2282449 95.73787318 109.74126453 95.71962179 107.25427246 95.70324707 C101.15754199 95.65914381 95.06154156 95.59009537 88.96520996 95.50793457 C88.96520996 99.13793457 88.96520996 102.76793457 88.96520996 106.50793457 C112.72520996 106.50793457 136.48520996 106.50793457 160.96520996 106.50793457 C160.88609578 85.67060234 160.88609578 85.67060234 160.78503418 64.83337402 C160.77919292 62.22098961 160.7740965 59.60860339 160.76989746 56.99621582 C160.76467072 56.32092331 160.75944397 55.6456308 160.75405884 54.94987488 C160.7393614 52.95015075 160.73853134 50.95033963 160.73815918 48.95056152 C160.73371796 47.82471146 160.72927673 46.69886139 160.72470093 45.53889465 C161.04515514 41.50044377 161.85980895 38.61318426 164.74865723 35.72473145 C169.09126761 33.3408158 174.06243985 33.99647153 178.90270996 34.00793457 C179.98745605 33.9795752 181.07220215 33.95121582 182.18981934 33.92199707 C183.76279785 33.91812988 183.76279785 33.91812988 185.36755371 33.91418457 C186.32137939 33.90709473 187.27520508 33.90000488 188.25793457 33.8927002 C192.07546158 34.76024173 193.48723886 36.52465852 195.96520996 39.50793457 C196.59162235 42.45460606 196.59162235 42.45460606 196.59339905 45.77687073 C196.61237999 47.67169441 196.61237999 47.67169441 196.63174438 49.60479736 C196.62042912 50.99707442 196.60860169 52.3893474 196.59631348 53.78161621 C196.60145374 55.25368614 196.60873583 56.72574991 196.61799622 58.19779968 C196.63650368 62.18961245 196.62357695 66.18075694 196.60390592 70.17254186 C196.58751553 74.35070776 196.5963327 78.52883147 196.60142517 82.70701599 C196.60594521 89.72222567 196.59008078 96.73716863 196.56213379 103.75231934 C196.53006967 111.86349655 196.53010265 119.97419306 196.54734856 128.08540446 C196.56320921 135.8889367 196.55648392 143.69229266 196.53941154 151.49581718 C196.53253794 154.81674325 196.53357658 158.13752813 196.5409565 161.45845222 C196.54861483 165.36809986 196.53650871 169.27719998 196.50910759 173.18675423 C196.50221829 174.62185033 196.50213169 176.05699751 196.50932312 177.49209213 C196.51800457 179.4500608 196.49963972 181.40809391 196.47987366 183.36598206 C196.47706674 184.46195237 196.47425982 185.55792269 196.47136784 186.68710423 C195.84285156 190.18984099 194.74070405 191.34630995 191.96520996 193.50793457 C189.23009966 194.419638 187.64298977 194.63385998 184.83062935 194.63656902 C183.98475797 194.63979347 183.13888659 194.64301792 182.26738274 194.64634007 C180.87319219 194.64401717 180.87319219 194.64401717 179.45083618 194.64164734 C178.46358106 194.6439129 177.47632595 194.64617845 176.45915401 194.64851266 C173.13580285 194.65486604 169.81249232 194.65402244 166.48913574 194.65319824 C164.11259915 194.6561889 161.73606305 194.65959121 159.35952759 194.66337585 C153.56497861 194.67130904 147.77044205 194.67443092 141.97588791 194.67498823 C137.2663322 194.67546317 132.55677984 194.67751678 127.84722519 194.68068886 C114.49859437 194.68949689 101.1499716 194.69410802 87.80133785 194.69335838 C87.08149475 194.69331843 86.36165165 194.69327847 85.61999512 194.6932373 C84.8992744 194.69319642 84.17855368 194.69315554 83.43599294 194.69311342 C71.75453434 194.69270694 60.07310796 194.70227676 48.39165868 194.71637567 C36.40097568 194.73073376 24.4103084 194.73764616 12.41961658 194.7367819 C5.68625648 194.73644972 -1.04706984 194.73920562 -7.78042221 194.74995995 C-14.1119653 194.7596187 -20.44343689 194.75973539 -26.77498245 194.75244331 C-29.1014186 194.7513947 -31.42785914 194.75377665 -33.75428772 194.75980377 C-36.92509304 194.76748761 -40.09564926 194.76290276 -43.26644897 194.75517273 C-44.1914479 194.76031629 -45.11644682 194.76545986 -46.06947601 194.77075928 C-54.22122531 194.72671181 -54.22122531 194.72671181 -58.03479004 192.50793457 C-60.37197843 189.00215198 -60.29149904 187.58890283 -60.3089447 183.44154358 C-60.31891983 182.17266296 -60.32889496 180.90378235 -60.33917236 179.59645081 C-60.34006818 178.18746961 -60.34073174 176.77848825 -60.34118652 175.36950684 C-60.34880671 173.88788433 -60.35723396 172.40626579 -60.3664093 170.9246521 C-60.38837315 166.89782249 -60.39715552 162.87106882 -60.40223575 158.84418607 C-60.4058766 156.32930615 -60.41211519 153.81444621 -60.41923714 151.2995739 C-60.44373661 142.52876789 -60.45678494 133.75802109 -60.46032715 124.98718262 C-60.46396451 116.80673233 -60.49387273 108.62665677 -60.53573173 100.44632107 C-60.57039643 93.42628551 -60.58587491 86.40637438 -60.58657318 79.38625377 C-60.58736721 75.19192697 -60.59616303 70.99798187 -60.62457085 66.80374336 C-60.65068703 62.85964555 -60.65299352 58.91624769 -60.63691521 54.97210312 C-60.63509561 53.52407624 -60.64183753 52.07600969 -60.65773392 50.62806892 C-60.67810102 48.65258544 -60.66468826 46.67683945 -60.64952087 44.7013092 C-60.6515322 43.59536691 -60.65354353 42.48942461 -60.65561581 41.34996891 C-60.03479004 38.50793457 -60.03479004 38.50793457 -57.66458225 36.15418911 C-53.06762112 33.27648338 -48.31738639 33.89185215 -43.03479004 33.94543457 C-41.41443848 33.90966309 -41.41443848 33.90966309 -39.76135254 33.87316895 C-38.71721191 33.87510254 -37.67307129 33.87703613 -36.59729004 33.87902832 C-35.17609863 33.87794067 -35.17609863 33.87794067 -33.72619629 33.87683105 C-29.91483154 34.77055184 -28.49975151 36.50862615 -26.03479004 39.50793457 C-25.43351746 42.65278625 -25.43351746 42.65278625 -25.46716309 46.22595215 C-25.46656041 46.89067126 -25.46595774 47.55539038 -25.4653368 48.24025249 C-25.4690503 50.37852718 -25.50702743 52.51458451 -25.54650879 54.65246582 C-25.55154419 55.96453003 -25.55657959 57.27659424 -25.56176758 58.62841797 C-25.5879124 63.52597935 -25.65771929 68.42322908 -25.72229004 73.32043457 C-25.82541504 84.27230957 -25.92854004 95.22418457 -26.03479004 106.50793457 C-2.27479004 106.50793457 21.48520996 106.50793457 45.96520996 106.50793457 C45.96520996 102.87793457 45.96520996 99.24793457 45.96520996 95.50793457 C44.41092285 95.52888184 42.85663574 95.5498291 41.25524902 95.57141113 C35.49297282 95.64376835 29.73073683 95.68971936 23.96813965 95.72766113 C21.47327931 95.74778621 18.97846618 95.77508909 16.48376465 95.80969238 C12.89933628 95.85816914 9.31553112 95.88089478 5.73083496 95.89855957 C4.61404358 95.91920471 3.4972522 95.93984985 2.34661865 95.96112061 C0.78545319 95.96157379 0.78545319 95.96157379 -0.80725098 95.96203613 C-1.72214294 95.97091858 -2.63703491 95.97980103 -3.57965088 95.98895264 C-6.99569812 95.31967064 -8.068777 94.3840333 -10.03479004 91.50793457 C-10.42936781 88.5894246 -10.58216315 86.04849986 -10.55236816 83.13098145 C-10.55937744 82.28826187 -10.56638672 81.4455423 -10.5736084 80.57728577 C-10.59120449 77.79341621 -10.57956013 75.01056435 -10.56604004 72.22668457 C-10.56873449 70.29142054 -10.57261653 68.35615783 -10.57763672 66.42089844 C-10.58353395 62.36563219 -10.57496154 58.31071843 -10.55627441 54.25549316 C-10.53348478 49.05650525 -10.54660665 43.85834328 -10.57056427 38.65938568 C-10.58501614 34.66336846 -10.58041905 30.66754716 -10.5700531 26.67152405 C-10.56738413 24.75456139 -10.57066156 22.83758095 -10.57997131 20.92063904 C-10.59012686 18.24157574 -10.57465031 15.56385123 -10.55236816 12.8848877 C-10.56046509 12.09203873 -10.56856201 11.29918976 -10.5769043 10.48231506 C-10.52560412 7.15419304 -10.41009513 5.00765375 -8.38021851 2.30487061 C-5.38982695 0.01379994 -3.74381 0.00525142 0 0 Z M-5.03479004 5.50793457 C-5.05541504 19.51230957 -5.07604004 33.51668457 -5.09729004 47.94543457 C-5.10639404 52.37392822 -5.11549805 56.80242187 -5.12487793 61.3651123 C-5.12822153 65.32086906 -5.12822153 65.32086906 -5.13023376 69.27662659 C-5.13177341 71.0440852 -5.13529875 72.81154273 -5.1403656 74.57899475 C-5.14764233 77.24990678 -5.14869748 79.92075441 -5.14831543 82.5916748 C-5.15191354 83.3843875 -5.15551165 84.1771002 -5.15921879 84.9938345 C-5.48301345 88.54520906 -5.48301345 88.54520906 -4.03479004 91.50793457 C-2.35650902 91.60725653 -0.67401469 91.63592965 1.00720215 91.6373291 C2.65052269 91.64199692 2.65052269 91.64199692 4.32704163 91.64675903 C5.54310593 91.64477509 6.75917023 91.64279114 8.01208496 91.64074707 C9.29030624 91.64206635 10.56852753 91.64338562 11.88548279 91.64474487 C15.42144245 91.64748226 18.95735918 91.64290819 22.49331284 91.63650513 C24.70844402 91.63294544 26.9235687 91.63131672 29.13870239 91.63024902 C47.61195276 91.61925502 66.08309976 91.50031713 84.55505371 91.28137207 C85.36435396 91.27178089 86.17365421 91.26218971 87.00747871 91.25230789 C104.66052738 91.03932119 122.31277561 90.76516494 139.96520996 90.50793457 C139.96520996 62.45793457 139.96520996 34.40793457 139.96520996 5.50793457 C92.11520996 5.50793457 44.26520996 5.50793457 -5.03479004 5.50793457 Z M-56.03479004 110.50793457 C-62.34068275 152.2199809 -62.34068275 152.2199809 -54.03479004 189.50793457 C-52.1749154 189.95964956 -52.1749154 189.95964956 -50.00205326 189.88545799 C-49.15345614 189.89328123 -48.30485901 189.90110448 -47.43054682 189.90916479 C-46.49291843 189.90247262 -45.55529003 189.89578046 -44.58924866 189.8888855 C-43.10140559 189.89590546 -43.10140559 189.89590546 -41.58350509 189.90306723 C-38.23843863 189.91509462 -34.89377602 189.90552973 -31.54870605 189.89611816 C-29.15921793 189.90018045 -26.76973168 189.90552039 -24.38024902 189.91204834 C-18.55076787 189.92434228 -12.72141645 189.92249516 -6.89193124 189.91381042 C-2.1551523 189.90704482 2.58159416 189.90611226 7.31837654 189.90938187 C7.99165217 189.90984157 8.66492781 189.91030126 9.35860573 189.91077489 C10.72621648 189.91173404 12.09382722 189.91270668 13.46143795 189.91369267 C26.29713779 189.9222551 39.13277345 189.91239943 51.96846277 189.89629157 C62.98832539 189.88289064 74.0080932 189.88521294 85.0279541 189.89904785 C97.81507764 189.91509389 110.60214484 189.92142783 123.38927704 189.91221106 C124.75226056 189.91125538 126.11524408 189.91031227 127.47822762 189.90938187 C128.48422764 189.90868763 128.48422764 189.90868763 129.5105509 189.90797936 C134.24256134 189.90538631 138.97453614 189.90976731 143.70654106 189.91682053 C150.07340138 189.92546419 156.44008207 189.91951584 162.80692291 189.90213776 C165.14870721 189.89815883 167.49050654 189.89933082 169.83228493 189.90592575 C173.0192915 189.91407586 176.20571585 189.90389868 179.39268494 189.8888855 C180.32808261 189.89557766 181.26348028 189.90226983 182.22722334 189.90916479 C183.50403065 189.89742992 183.50403065 189.89742992 184.80663204 189.88545799 C185.54258506 189.88497094 186.27853807 189.88448388 187.0367927 189.88398206 C189.42769723 189.60414259 189.42769723 189.60414259 191.96520996 186.50793457 C191.96520996 161.42793457 191.96520996 136.34793457 191.96520996 110.50793457 C110.12520996 110.50793457 28.28520996 110.50793457 -56.03479004 110.50793457 Z " fill="#4B2323" transform="translate(60.0347900390625,30.4920654296875)"/>
<path d="M0 0 C81.84 0 163.68 0 248 0 C248 25.08 248 50.16 248 76 C244.62498055 79.37501945 244.62498055 79.37501945 240.84142208 79.37752342 C239.56461477 79.38925829 239.56461477 79.38925829 238.26201338 79.40123022 C236.85891687 79.39119197 236.85891687 79.39119197 235.42747498 79.38095093 C234.43401961 79.3856309 233.44056424 79.39031087 232.41700417 79.39513266 C229.07270932 79.40714288 225.72881971 79.39760183 222.38452148 79.38818359 C219.99326334 79.39224658 217.60200708 79.39758692 215.21075439 79.40411377 C209.38107743 79.41639949 203.55153026 79.41456519 197.72184926 79.40587585 C192.98556237 79.39910773 188.24930798 79.39817879 183.51301765 79.4014473 C182.83958879 79.401907 182.16615992 79.40236669 181.47232412 79.40284032 C180.10438918 79.40379947 178.73645424 79.40477211 177.36851931 79.4057581 C164.5347529 79.41431734 151.70105073 79.40446917 138.86729486 79.388357 C127.847126 79.37495027 116.82705192 79.37728377 105.80688477 79.39111328 C93.01829865 79.40715445 80.22976885 79.41349653 67.44117409 79.40427649 C66.07850493 79.40332081 64.71583576 79.4023777 63.35316658 79.4014473 C62.34739797 79.40075306 62.34739797 79.40075306 61.3213108 79.40004479 C56.58831801 79.39745073 51.85536085 79.40183477 47.12237358 79.40888596 C40.75714461 79.4175235 34.39209544 79.41159264 28.02688599 79.39420319 C25.6846808 79.39022129 23.3424606 79.39140125 21.00026131 79.39799118 C17.81514725 79.40612952 14.63061769 79.39597879 11.44554138 79.38095093 C10.50791299 79.38764309 9.57028459 79.39433526 8.60424322 79.40123022 C7.75564609 79.39340697 6.90704897 79.38558373 6.03273678 79.37752342 C5.29694611 79.37703637 4.56115545 79.37654931 3.8030681 79.37604749 C2 79 2 79 0 76 C0 50.92 0 25.84 0 0 Z M11 11 C11 29.81 11 48.62 11 68 C85.58 68 160.16 68 237 68 C237 49.19 237 30.38 237 11 C162.42 11 87.84 11 11 11 Z " fill="#E4B296" transform="translate(4,141)"/>
<path d="M0 0 C35.64 0 71.28 0 108 0 C108 15.84 108 31.68 108 48 C72.36 48 36.72 48 0 48 C0 32.16 0 16.32 0 0 Z " fill="#EAAB6C" transform="translate(20,157)"/>
<path d="M0 0 C40.59 0 81.18 0 123 0 C123 3.3 123 6.6 123 10 C85.71 10 48.42 10 10 10 C10 29.14 10 48.28 10 68 C47.29 68 84.58 68 123 68 C123 71.3 123 74.6 123 78 C107.1104482 78.02311913 91.22090231 78.0409793 75.33133793 78.05181217 C67.95404044 78.05697508 60.57675357 78.06401767 53.19946289 78.07543945 C46.7716782 78.08538646 40.3439012 78.09185347 33.91610903 78.09408849 C30.51060722 78.09539557 27.10512742 78.09848125 23.69963264 78.10573006 C19.90398959 78.11293606 16.10839288 78.11399113 12.31274414 78.11352539 C11.17554932 78.11712067 10.03835449 78.12071594 8.86669922 78.12442017 C7.83879776 78.1230455 6.8108963 78.12167084 5.75184631 78.12025452 C4.85309815 78.12117631 3.95434999 78.1220981 3.02836704 78.12304783 C1 78 1 78 0 77 C-0.09496873 74.5964754 -0.12557554 72.22192907 -0.11352539 69.81811523 C-0.11364593 69.0547564 -0.11376646 68.29139757 -0.11389065 67.50490665 C-0.11314155 65.02277317 -0.1055135 62.54071388 -0.09765625 60.05859375 C-0.09618682 58.53064002 -0.09516612 57.00268578 -0.09460449 55.47473145 C-0.08935173 49.79564664 -0.07539065 44.1165726 -0.0625 38.4375 C-0.041875 25.753125 -0.02125 13.06875 0 0 Z " fill="#FEE2CB" transform="translate(5,142)"/>
<path d="M0 0 C0 25.08 0 50.16 0 76 C-25.08 76 -50.16 76 -76 76 C-69.24974259 68.12469969 -69.24974259 68.12469969 -66.66569519 65.53871155 C-65.78462601 64.65341263 -65.78462601 64.65341263 -64.88575745 63.75022888 C-64.26369919 63.13019485 -63.64164093 62.51016083 -63.00073242 61.87133789 C-62.32846619 61.19731934 -61.65619995 60.52330078 -60.96356201 59.82885742 C-58.76335571 57.62428542 -56.55955475 55.42334889 -54.35546875 53.22265625 C-52.81929656 51.68580997 -51.2832728 50.14881532 -49.74739075 48.61167908 C-46.54065417 45.40347311 -43.33212772 42.197071 -40.12231445 38.99194336 C-35.99831471 34.87366941 -31.87885915 30.75088363 -27.7607069 26.62676334 C-24.59622692 23.45868186 -21.42938404 20.29297105 -18.26180458 17.12798882 C-16.74074104 15.60759419 -15.22042503 14.08645133 -13.70085716 12.56456184 C-11.58707168 10.44825349 -9.47013644 8.33514867 -7.35229492 6.22290039 C-6.4040258 5.27159492 -6.4040258 5.27159492 -5.43659973 4.30107117 C-1.11426808 0 -1.11426808 0 0 0 Z " fill="#8BCCBF" transform="translate(200,45)"/>
<path d="M0 0 C23.43 0 46.86 0 71 0 C66.92881403 4.74971696 62.87413993 9.27078692 58.4597168 13.66967773 C57.83621841 14.29492844 57.21272003 14.92017914 56.57032776 15.56437683 C54.53244661 17.60661893 52.49097817 19.64522957 50.44921875 21.68359375 C49.02514784 23.10833884 47.60122536 24.53323231 46.17744446 25.95826721 C43.20609959 28.9310808 40.23296712 31.90209168 37.25854492 34.87182617 C33.4372144 38.68742863 29.62043253 42.50754483 25.80494976 46.3289938 C22.87208533 49.26545963 19.93685845 52.19955462 17.00089455 55.13292122 C15.59147452 56.54167242 14.18280176 57.95117163 12.77487755 59.36141777 C10.81675642 61.32206185 8.85548758 63.27950017 6.89331055 65.23608398 C6.01517197 66.11725891 6.01517197 66.11725891 5.11929321 67.01623535 C1.11426866 71 1.11426866 71 0 71 C0 47.57 0 24.14 0 0 Z " fill="#8BCCBF" transform="translate(55,36)"/>
<path d="M0 0 C74.58 0 149.16 0 226 0 C226 18.81 226 37.62 226 57 C151.42 57 76.84 57 0 57 C0 38.19 0 19.38 0 0 Z M4 4 C4 20.17 4 36.34 4 53 C75.94 53 147.88 53 222 53 C222 36.83 222 20.66 222 4 C150.06 4 78.12 4 4 4 Z " fill="#4B2221" transform="translate(15,152)"/>
<path d="M0 0 C0.53935535 3.94425917 0.84644661 7.48199353 -1.13993454 11.04434395 C-2.85317078 13.14252053 -4.66055442 15.07075528 -6.56396484 16.99829102 C-7.2634726 17.74087662 -7.96298035 18.48346222 -8.6836853 19.24855042 C-11.0012876 21.69225234 -13.35223611 24.09988757 -15.7109375 26.50390625 C-17.35265884 28.19491499 -18.99431015 29.88599172 -20.63589478 31.57713318 C-24.08749307 35.1187152 -27.55929629 38.63915536 -31.04248047 42.1496582 C-35.47054485 46.6213055 -39.81184639 51.16792551 -44.13707542 55.738801 C-47.50255466 59.26569309 -50.92614356 62.73172971 -54.36735916 66.18461418 C-55.99248713 67.83489922 -57.59627335 69.50652083 -59.17612839 71.20019722 C-66.23474047 78.72868484 -72.29485685 85.05112336 -82.98175049 86.00045776 C-89.36742779 86.17652638 -95.66368949 85.78740866 -102 85 C-97.65216773 79.83506607 -93.13159336 74.90269107 -88.44433594 70.04516602 C-87.71159454 69.28336533 -86.97885315 68.52156464 -86.22390747 67.73667908 C-79.49826473 60.75815759 -72.72254231 53.82865576 -65.93001938 46.9152689 C-61.37873807 42.28120245 -56.84632386 37.63151134 -52.35351562 32.94067383 C-47.99028574 28.38614337 -43.58384521 23.87781311 -39.14435577 19.39762688 C-37.46848457 17.69118659 -35.80828775 15.96919494 -34.16503143 14.23132515 C-23.3416375 2.81272809 -16.06612153 -2.89295019 0 0 Z " fill="#C9FEF4" transform="translate(200,36)"/>
<path d="M0 0 C1.46566406 -0.00386719 1.46566406 -0.00386719 2.9609375 -0.0078125 C3.98445312 -0.00007813 5.00796875 0.00765625 6.0625 0.015625 C7.08601562 0.00789063 8.10953125 0.00015625 9.1640625 -0.0078125 C10.14117187 -0.00523438 11.11828125 -0.00265625 12.125 0 C13.02347656 0.00225586 13.92195313 0.00451172 14.84765625 0.00683594 C17.0625 0.265625 17.0625 0.265625 19.0625 2.265625 C19.30300903 4.9737854 19.30300903 4.9737854 19.28955078 8.45947266 C19.28939972 9.76067047 19.28924866 11.06186829 19.28909302 12.40249634 C19.27887893 13.82822827 19.26844692 15.25395865 19.2578125 16.6796875 C19.25408295 18.13414313 19.2512357 19.58860127 19.24923706 21.0430603 C19.241596 24.87360556 19.22194357 28.70399946 19.1998291 32.53448486 C19.17938078 36.44223991 19.17023752 40.35001939 19.16015625 44.2578125 C19.138698 51.92716036 19.10351215 59.59635221 19.0625 67.265625 C10.4825 67.265625 1.9025 67.265625 -6.9375 67.265625 C-6.98263587 58.82521709 -7.01934966 50.38490257 -7.04112434 41.94440651 C-7.05157365 38.02539216 -7.06575362 34.10646447 -7.08837891 30.1875 C-7.11006661 26.40739461 -7.12205998 22.62737272 -7.12725449 18.84720993 C-7.13095759 17.40306661 -7.1381886 15.958928 -7.14896011 14.5148201 C-7.16342017 12.49641606 -7.16431645 10.47792848 -7.16455078 8.45947266 C-7.168992 7.30919586 -7.17343323 6.15891907 -7.17800903 4.9737854 C-6.74062491 0.04878803 -4.33536484 0.01088506 0 0 Z " fill="#D17D46" transform="translate(232.9375,69.734375)"/>
<path d="M0 0 C1.46566406 -0.00386719 1.46566406 -0.00386719 2.9609375 -0.0078125 C3.98445312 -0.00007813 5.00796875 0.00765625 6.0625 0.015625 C7.08601563 0.00789063 8.10953125 0.00015625 9.1640625 -0.0078125 C10.14117188 -0.00523438 11.11828125 -0.00265625 12.125 0 C13.02347656 0.00225586 13.92195313 0.00451172 14.84765625 0.00683594 C17.0625 0.265625 17.0625 0.265625 19.0625 2.265625 C19.30300903 4.9737854 19.30300903 4.9737854 19.28955078 8.45947266 C19.28939972 9.76067047 19.28924866 11.06186829 19.28909302 12.40249634 C19.27887893 13.82822827 19.26844692 15.25395865 19.2578125 16.6796875 C19.25408295 18.13414313 19.2512357 19.58860127 19.24923706 21.0430603 C19.241596 24.87360556 19.22194357 28.70399946 19.1998291 32.53448486 C19.17938078 36.44223991 19.17023752 40.35001939 19.16015625 44.2578125 C19.138698 51.92716036 19.10351215 59.59635221 19.0625 67.265625 C10.4825 67.265625 1.9025 67.265625 -6.9375 67.265625 C-6.98263587 58.82521709 -7.01934966 50.38490257 -7.04112434 41.94440651 C-7.05157365 38.02539216 -7.06575362 34.10646447 -7.08837891 30.1875 C-7.11006661 26.40739461 -7.12205998 22.62737272 -7.12725449 18.84720993 C-7.13095759 17.40306661 -7.1381886 15.958928 -7.14896011 14.5148201 C-7.16342017 12.49641606 -7.16431645 10.47792848 -7.16455078 8.45947266 C-7.168992 7.30919586 -7.17343323 6.15891907 -7.17800903 4.9737854 C-6.74062491 0.04878803 -4.33536484 0.01088506 0 0 Z " fill="#E2A468" transform="translate(10.9375,69.734375)"/>
<path d="M0 0 C-4.35695899 5.21063922 -8.9358616 10.07416581 -13.74951172 14.86303711 C-14.50141281 15.61508423 -15.2533139 16.36713135 -16.02799988 17.14196777 C-18.492864 19.60613996 -20.96124211 22.06675951 -23.4296875 24.52734375 C-25.14768975 26.24347927 -26.86547012 27.95983694 -28.58303833 29.67640686 C-33.08856861 34.17813208 -37.59709471 38.67684517 -42.10626221 43.17492676 C-46.71328801 47.77169509 -51.31745913 52.37132077 -55.921875 56.97070312 C-64.94513371 65.98326 -73.97182353 74.99236941 -83 84 C-75.08 84.33 -67.16 84.66 -59 85 C-59 85.33 -59 85.66 -59 86 C-87.15153143 86.20638953 -87.15153143 86.20638953 -99 85 C-94.6463995 79.82211886 -90.11011656 74.89612413 -85.39672852 70.04516602 C-84.65916824 69.28336533 -83.92160797 68.52156464 -83.16169739 67.73667908 C-76.39907792 60.76382045 -69.59375036 53.83279591 -62.77458286 46.9152689 C-58.2039328 42.27744364 -53.64889568 37.62627936 -49.12719727 32.94067383 C-44.73781505 28.39295942 -40.31243721 23.8833223 -35.85972404 19.39762688 C-34.17575913 17.68856599 -32.5048446 15.96653894 -30.84784126 14.23132515 C-14.18692298 -3.18025637 -14.18692298 -3.18025637 0 0 Z " fill="#8BCBBE" transform="translate(182,36)"/>
<path d="M0 0 C10.89 0 21.78 0 33 0 C33 3.63 33 7.26 33 11 C22.11 11 11.22 11 0 11 C0 7.37 0 3.74 0 0 Z " fill="#936767" transform="translate(111,126)"/>
<path d="M0 0 C3.55247432 0.87379409 4.94828114 2.4927342 6.9375 5.4765625 C7.63574523 8.31532999 7.64128755 10.63852492 6.9375 13.4765625 C4.875 16.4765625 4.875 16.4765625 1.9375 18.4765625 C-2.60348553 19.30219623 -4.50316142 18.80199585 -8.5 16.4765625 C-11.51325301 12.94885166 -11.51325301 12.94885166 -11.75 9.4765625 C-11.47825661 6.28810677 -10.92846227 5.2755059 -9.0625 2.4765625 C-5.73362371 0.25731164 -3.92313492 -0.28234683 0 0 Z " fill="#512724" transform="translate(19.0625,109.5234375)"/>
<path d="M0 0 C3.55247432 0.87379409 4.94828114 2.4927342 6.9375 5.4765625 C7.63597125 8.3162489 7.63597125 10.6368761 6.9375 13.4765625 C4.94828114 16.4603908 3.55247432 18.07933091 0 18.953125 C-3.92313492 19.23547183 -5.73362371 18.69581336 -9.0625 16.4765625 C-11.28175086 13.14768621 -11.82140933 11.33719742 -11.5390625 7.4140625 C-10.07519871 1.46261629 -5.59135555 -0.40240816 0 0 Z " fill="#4F2522" transform="translate(241.0625,78.5234375)"/>
<path d="M0 0 C2.85801731 1.98818595 4.61901083 3.47604331 5.484375 6.9375 C5.75188458 10.86097377 5.22001397 12.66997904 3 16 C-0.32887629 18.21925086 -2.13936508 18.75890933 -6.0625 18.4765625 C-9.61497432 17.60276841 -11.01078114 15.9838283 -13 13 C-13.67639058 9.97719254 -13.45558841 8.18911887 -13 5 C-9.55706352 0.36984405 -5.63495996 -0.6761952 0 0 Z " fill="#4F2623" transform="translate(21,79)"/>
<path d="M0 0 C3.55247432 0.87379409 4.94828114 2.4927342 6.9375 5.4765625 C7.61389058 8.49936996 7.39308841 10.28744363 6.9375 13.4765625 C4.79494848 16.81894288 3.33467502 17.36824204 -0.5 18.4140625 C-4.48173028 18.48391742 -5.95519999 17.87362251 -9.0625 15.4765625 C-11.0625 13.4765625 -11.0625 13.4765625 -11.5 9.6640625 C-11.39580662 6.29922921 -11.03336646 5.43286219 -9.0625 2.4765625 C-5.73362371 0.25731164 -3.92313492 -0.28234683 0 0 Z " fill="#4F2422" transform="translate(241.0625,109.5234375)"/>
<path d="M0 0 C3 0.25 3 0.25 5 2.25 C5.36796448 5.12012296 5.37509409 6.65774618 3.8125 9.125 C2 10.25 2 10.25 -0.5625 10.0625 C-3 9.25 -3 9.25 -5 7.25 C-5.25 4.75 -5.25 4.75 -5 2.25 C-3 0.25 -3 0.25 0 0 Z " fill="#8E6262" transform="translate(239,113.75)"/>
<path d="M0 0 C3 0.25 3 0.25 5 2.25 C5.36796448 5.12012296 5.37509409 6.65774618 3.8125 9.125 C2 10.25 2 10.25 -0.5625 10.0625 C-3 9.25 -3 9.25 -5 7.25 C-5.25 4.75 -5.25 4.75 -5 2.25 C-3 0.25 -3 0.25 0 0 Z " fill="#8E6262" transform="translate(17,113.75)"/>
<path d="M0 0 C2.4375 0.8125 2.4375 0.8125 4.4375 2.8125 C4.0625 5.9375 4.0625 5.9375 3.4375 8.8125 C0.0625 9.4375 0.0625 9.4375 -3.5625 9.8125 C-5.5625 7.8125 -5.5625 7.8125 -5.875 5.375 C-5.5625 2.8125 -5.5625 2.8125 -4.375 0.9375 C-2.5625 -0.1875 -2.5625 -0.1875 0 0 Z " fill="#8F6363" transform="translate(239.5625,83.1875)"/>
<path d="M0 0 C2.4375 0.8125 2.4375 0.8125 4.4375 2.8125 C4.6875 5.3125 4.6875 5.3125 4.4375 7.8125 C3.7775 8.4725 3.1175 9.1325 2.4375 9.8125 C-1.1875 9.4375 -1.1875 9.4375 -4.5625 8.8125 C-5.89091008 3.37809513 -5.89091008 3.37809513 -4.4375 0.875 C-2.5625 -0.1875 -2.5625 -0.1875 0 0 Z " fill="#8F6363" transform="translate(17.5625,83.1875)"/>
</svg>
