<?xml version="1.0" encoding="UTF-8"?>
<svg version="1.1" xmlns="http://www.w3.org/2000/svg" width="256" height="256">
<path d="M0 0 C3.48552287 1.57799126 6.72157738 3.53385497 10 5.5 C12.05392813 6.69755304 14.11003286 7.89137853 16.16796875 9.08203125 C17.2667334 9.71834473 18.36549805 10.3546582 19.49755859 11.01025391 C25.68635979 14.55380464 32.00899011 17.8541128 38.3125 21.1875 C40.8691839 22.54296496 43.42504052 23.89998188 45.98046875 25.2578125 C46.59059814 25.58195633 47.20072754 25.90610016 47.8293457 26.24006653 C55.61489008 30.38264829 63.33124171 34.64542951 71 39 C71.61584961 39.3491748 72.23169922 39.69834961 72.86621094 40.05810547 C82.59056839 45.59056839 82.59056839 45.59056839 85 48 C85.39863496 52.25742138 85.32902541 56.52947574 85.31567383 60.8034668 C85.31251689 62.92614206 85.33595761 65.04741936 85.36132812 67.16992188 C85.36360146 68.51822741 85.36430446 69.86653669 85.36328125 71.21484375 C85.36775269 73.05743774 85.36775269 73.05743774 85.37231445 74.93725586 C85 78 85 78 83.69213867 79.93579102 C82 81 82 81 78.5625 80.8125 C75.61334606 80.13988594 73.61471699 79.39643127 71 78 C70.99413376 78.93294388 70.98826752 79.86588776 70.98222351 80.82710266 C70.92505303 89.6118761 70.85232147 98.39640065 70.76428509 107.1809206 C70.71952465 111.69733719 70.68028123 116.21366238 70.65356445 120.73022461 C70.62758781 125.08757806 70.58722595 129.44458088 70.53681374 133.80171776 C70.52010671 135.46547274 70.50861637 137.12928842 70.50238609 138.79311562 C70.49278635 141.12067193 70.46477853 143.44732343 70.43237305 145.7746582 C70.43380814 146.46517776 70.43524323 147.15569733 70.4367218 147.86714172 C70.38384973 150.54565381 70.22874898 152.59025859 68.91047668 154.95158386 C65.97751278 156.56111237 63.27215322 156.18521622 60 156 C60.00999275 157.81284233 60.00999275 157.81284233 60.02018738 159.66230774 C60.08093158 171.03692502 60.12594045 182.41150951 60.15543652 193.78625202 C60.17111037 199.63450682 60.19238012 205.48263096 60.22631836 211.33081055 C60.25885031 216.97179135 60.27684005 222.61264626 60.28463173 228.25371361 C60.29018632 230.40876435 60.3010327 232.56380799 60.31719017 234.71880531 C60.33888235 237.73106548 60.34197035 240.74280159 60.34057617 243.75512695 C60.351362 244.65136276 60.36214783 245.54759857 60.3732605 246.47099304 C60.36913651 247.29128998 60.36501251 248.11158691 60.36076355 248.95674133 C60.36352893 249.66928731 60.36629431 250.38183329 60.36914349 251.11597157 C59.88531679 253.5853183 58.96654459 254.47451069 57 256 C54.41210938 256.38818359 54.41210938 256.38818359 51.34375 256.3984375 C50.23902344 256.40230469 49.13429687 256.40617187 47.99609375 256.41015625 C46.84238281 256.39855469 45.68867188 256.38695312 44.5 256.375 C43.34628906 256.38660156 42.19257813 256.39820313 41.00390625 256.41015625 C39.89917969 256.40628906 38.79445312 256.40242188 37.65625 256.3984375 C36.64369141 256.39505371 35.63113281 256.39166992 34.58789062 256.38818359 C32 256 32 256 30.16479492 254.63012695 C28.51235335 252.31754 28.70321232 250.61755035 28.8125 247.8125 C28.85310547 246.46091797 28.85310547 246.46091797 28.89453125 245.08203125 C28.92933594 244.39496094 28.96414062 243.70789063 29 243 C28.29423828 242.7424292 27.58847656 242.4848584 26.86132812 242.21948242 C23.75829688 240.89698745 21.07097069 239.28810683 18.21875 237.48828125 C17.12949219 236.81345703 16.04023438 236.13863281 14.91796875 235.44335938 C13.20215975 234.37670221 11.48956336 233.30587726 9.78369141 232.22338867 C8.12454975 231.17339243 6.45302009 230.14305205 4.78125 229.11328125 C3.79189453 228.49235596 2.80253906 227.87143066 1.78320312 227.23168945 C-1.52557613 225.76740951 -2.63202522 225.77793689 -6 227 C-8.14744273 228.12720307 -10.25272572 229.33630234 -12.32421875 230.59765625 C-12.91169388 230.95137802 -13.49916901 231.30509979 -14.10444641 231.66954041 C-15.96973574 232.79364017 -17.82897532 233.92725659 -19.6875 235.0625 C-21.55733145 236.200251 -23.42838274 237.33580533 -25.3026886 238.46617126 C-26.99614555 239.48804496 -28.68507824 240.51740509 -30.3737793 241.54711914 C-33 243 -33 243 -35 243 C-34.96519531 243.68707031 -34.93039063 244.37414062 -34.89453125 245.08203125 C-34.86746094 245.98308594 -34.84039062 246.88414062 -34.8125 247.8125 C-34.77769531 248.70582031 -34.74289063 249.59914062 -34.70703125 250.51953125 C-35 253 -35 253 -36.16479492 254.63012695 C-38.71223573 256.53164224 -40.49813784 256.38788366 -43.65625 256.3984375 C-44.76097656 256.40230469 -45.86570312 256.40617187 -47.00390625 256.41015625 C-48.15761719 256.39855469 -49.31132813 256.38695312 -50.5 256.375 C-51.65371094 256.38660156 -52.80742188 256.39820313 -53.99609375 256.41015625 C-55.10082031 256.40628906 -56.20554687 256.40242188 -57.34375 256.3984375 C-58.35630859 256.39505371 -59.36886719 256.39166992 -60.41210938 256.38818359 C-63 256 -63 256 -64.83520508 254.83520508 C-66.48540404 252.23521648 -66.33962168 250.3018236 -66.29296875 247.23828125 C-66.28330078 246.12001953 -66.27363281 245.00175781 -66.26367188 243.84960938 C-66.23853516 242.68236328 -66.21339844 241.51511719 -66.1875 240.3125 C-66.17396484 239.13365234 -66.16042969 237.95480469 -66.14648438 236.74023438 C-66.11109326 233.82636589 -66.06171809 230.91341055 -66 228 C-66.73940826 227.72467941 -67.47881653 227.44935883 -68.2406311 227.16569519 C-70.79658103 226.08593433 -72.86421689 224.90573724 -75.14990234 223.34887695 C-76.33061813 222.55012901 -76.33061813 222.55012901 -77.53518677 221.73524475 C-78.37693451 221.1587468 -79.21868225 220.58224884 -80.0859375 219.98828125 C-80.9709494 219.38717026 -81.8559613 218.78605927 -82.76779175 218.16673279 C-84.65900259 216.88218921 -86.54907559 215.5959691 -88.43811035 214.30822754 C-91.38942497 212.30269769 -94.35072694 210.31282396 -97.31542969 208.32714844 C-113.75084299 197.30042653 -113.75084299 197.30042653 -120.8671875 191.77734375 C-135.16230757 180.91589209 -147.78609818 180.13411146 -165.17871094 181.19433594 C-168 181 -168 181 -169.86669922 179.92285156 C-171.5716207 177.03014118 -171.38919593 174.58752797 -171.3984375 171.25 C-171.40130768 170.59547852 -171.40417786 169.94095703 -171.40713501 169.26660156 C-171.40917368 167.88475681 -171.40365746 166.50288307 -171.39111328 165.12109375 C-171.37505436 163.0071555 -171.39096601 160.89512887 -171.41015625 158.78125 C-171.40817378 157.43749578 -171.40433002 156.09374276 -171.3984375 154.75 C-171.39505371 153.52796875 -171.39166992 152.3059375 -171.38818359 151.046875 C-171 148 -171 148 -168 145 C-164.04 145 -160.08 145 -156 145 C-156 135.43 -156 125.86 -156 116 C-159.96 116 -163.92 116 -168 116 C-168.99 115.01 -169.98 114.02 -171 113 C-170.8125 109.375 -170.8125 109.375 -170 106 C-166.68248407 104.34124203 -162.97402946 104.87110697 -159.32763672 104.88647461 C-158.43001617 104.88632858 -157.53239563 104.88618256 -156.60757446 104.8860321 C-153.63158782 104.88673047 -150.65566325 104.89451933 -147.6796875 104.90234375 C-145.61988357 104.9042082 -143.56007919 104.90563198 -141.50027466 104.90663147 C-136.07182598 104.91045452 -130.64340395 104.92028301 -125.21496582 104.93133545 C-119.67847046 104.94155412 -114.14197081 104.94613007 -108.60546875 104.95117188 C-97.73696556 104.96190546 -86.86848916 104.97950056 -76 105 C-76.33 96.09 -76.66 87.18 -77 78 C-78.98 78.99 -80.96 79.98 -83 81 C-85.83679674 81.3958321 -87.23767305 81.52093109 -89.61523438 79.89624023 C-92.53652008 75.89595355 -91.51671565 69.991623 -91.50097656 65.17602539 C-91.50000454 63.07233651 -91.54161376 60.97230224 -91.5859375 58.86914062 C-91.59114526 57.52865342 -91.59383268 56.18815357 -91.59375 54.84765625 C-91.60083984 53.63086182 -91.60792969 52.41406738 -91.61523438 51.16040039 C-91 48 -91 48 -88.83666992 45.77954102 C-85.9418476 43.96351899 -83.04338148 42.27267814 -80.01953125 40.6796875 C-78.86525635 40.06746338 -77.71098145 39.45523926 -76.52172852 38.82446289 C-75.91676544 38.50655792 -75.31180237 38.18865295 -74.68850708 37.8611145 C-71.50013834 36.18516313 -68.32113493 34.49158396 -65.140625 32.80078125 C-64.19939537 32.30133247 -64.19939537 32.30133247 -63.239151 31.79179382 C-58.48437376 29.26641882 -53.76035196 26.69199689 -49.0625 24.0625 C-43.59556719 21.0031636 -38.12053608 17.95942264 -32.6328125 14.9375 C-31.98080368 14.57837021 -31.32879486 14.21924042 -30.6570282 13.84922791 C-28.01813826 12.39591652 -25.37913784 10.94280926 -22.73928833 9.49124146 C-20.89214412 8.47545269 -19.0456355 7.45851658 -17.19921875 6.44140625 C-15.58793091 5.55497437 -15.58793091 5.55497437 -13.9440918 4.65063477 C-12.03346839 3.57942448 -10.14345355 2.47026228 -8.28051758 1.31811523 C-5.11935615 -0.50900291 -3.63234669 -0.58254617 0 0 Z M-145 116 C-145 125.57 -145 135.14 -145 145 C-142.03 145 -139.06 145 -136 145 C-136 135.43 -136 125.86 -136 116 C-138.97 116 -141.94 116 -145 116 Z M-125 116 C-125 125.57 -125 135.14 -125 145 C-122.03 145 -119.06 145 -116 145 C-116 135.43 -116 125.86 -116 116 C-118.97 116 -121.94 116 -125 116 Z M-105 116 C-105 125.57 -105 135.14 -105 145 C-102.03 145 -99.06 145 -96 145 C-96 135.43 -96 125.86 -96 116 C-98.97 116 -101.94 116 -105 116 Z M-85 116 C-85 125.57 -85 135.14 -85 145 C-82.03 145 -79.06 145 -76 145 C-76 135.43 -76 125.86 -76 116 C-78.97 116 -81.94 116 -85 116 Z M-20 156 C-16.66795359 158.66563713 -13.57722408 161.05996671 -10 163.3125 C-9.175 163.84488281 -8.35 164.37726563 -7.5 164.92578125 C-4.34630484 166.28088464 -3.22974693 166.12587929 0 165 C2.50883664 163.75994662 4.9095957 162.37033377 7.3125 160.9375 C7.95767578 160.56044922 8.60285156 160.18339844 9.26757812 159.79492188 C10.84878152 158.86962507 12.4249146 157.93567319 14 157 C14 156.67 14 156.34 14 156 C2.78 156 -8.44 156 -20 156 Z M-35 161 C-35 168.92 -35 176.84 -35 185 C-31.71948224 183.68779289 -29.15606285 182.61673391 -26.23046875 180.8359375 C-25.56982422 180.43632812 -24.90917969 180.03671875 -24.22851562 179.625 C-23.55498047 179.2125 -22.88144531 178.8 -22.1875 178.375 C-21.14819336 177.74464844 -21.14819336 177.74464844 -20.08789062 177.1015625 C-18.38989252 176.0710533 -16.69466386 175.03598319 -15 174 C-16.1557532 170.53274039 -16.71152851 170.28209351 -19.74609375 168.51953125 C-20.50083984 168.07802734 -21.25558594 167.63652344 -22.03320312 167.18164062 C-22.82662109 166.72982422 -23.62003906 166.27800781 -24.4375 165.8125 C-25.22705078 165.34908203 -26.01660156 164.88566406 -26.83007812 164.40820312 C-30.67796039 161.91845462 -30.67796039 161.91845462 -35 161 Z M22.8671875 163.40625 C22.06152344 163.90253906 21.25585938 164.39882812 20.42578125 164.91015625 C19.58402344 165.43480469 18.74226562 165.95945313 17.875 166.5 C17.02550781 167.02464844 16.17601562 167.54929688 15.30078125 168.08984375 C13.19803875 169.38929136 11.09793958 170.6928174 9 172 C10.1557532 175.46725961 10.71152851 175.71790649 13.74609375 177.48046875 C14.50083984 177.92197266 15.25558594 178.36347656 16.03320312 178.81835938 C16.82662109 179.27017578 17.62003906 179.72199219 18.4375 180.1875 C19.62182617 180.88262695 19.62182617 180.88262695 20.83007812 181.59179688 C24.67796039 184.08154538 24.67796039 184.08154538 29 185 C29 177.08 29 169.16 29 161 C26.33566865 161 25.12816336 162.00508186 22.8671875 163.40625 Z M-10.859375 183.28125 C-11.97441406 183.95800781 -13.08945313 184.63476562 -14.23828125 185.33203125 C-15.40897145 186.05449749 -16.57954288 186.77715621 -17.75 187.5 C-18.93570507 188.2234646 -20.12189797 188.94613035 -21.30859375 189.66796875 C-24.21062985 191.43750296 -27.10741241 193.21507724 -30 195 C-25.24130647 198.90118117 -20.24296001 202.1097353 -15 205.3125 C-13.66582031 206.15651367 -13.66582031 206.15651367 -12.3046875 207.01757812 C-11.44101563 207.54416016 -10.57734375 208.07074219 -9.6875 208.61328125 C-8.90761719 209.09579346 -8.12773437 209.57830566 -7.32421875 210.07543945 C-4.34650931 211.25995475 -3.02813054 210.99929172 0 210 C1.94934606 209.01596585 3.86053235 207.95444337 5.73828125 206.83984375 C6.80498047 206.21142578 7.87167969 205.58300781 8.97070312 204.93554688 C10.07349609 204.27619141 11.17628906 203.61683594 12.3125 202.9375 C13.43462891 202.27427734 14.55675781 201.61105469 15.71289062 200.92773438 C18.4791287 199.29153398 21.2412485 197.64878136 24 196 C19.23417499 192.08432935 14.21052188 188.92825976 8.9375 185.75 C8.03966797 185.19570312 7.14183594 184.64140625 6.21679688 184.0703125 C5.34990234 183.54695312 4.48300781 183.02359375 3.58984375 182.484375 C2.80472412 182.00709961 2.01960449 181.52982422 1.21069336 181.03808594 C-3.70447156 178.73004825 -6.61669894 180.68369323 -10.859375 183.28125 Z M-116 181 C-113.08145364 183.91854636 -110.88201838 185.90572762 -107.53857422 188.1003418 C-106.66441864 188.67741379 -105.79026306 189.25448578 -104.88961792 189.8490448 C-103.48632736 190.76488091 -103.48632736 190.76488091 -102.0546875 191.69921875 C-101.08846466 192.33487259 -100.12224182 192.97052643 -99.1267395 193.6254425 C-96.04573183 195.65059329 -92.96034997 197.66897263 -89.875 199.6875 C-87.79009363 201.05753046 -85.70545505 202.42796854 -83.62109375 203.79882812 C-81.6408642 205.09932264 -79.66040339 206.39946509 -77.6796875 207.69921875 C-76.740112 208.31584885 -75.8005365 208.93247894 -74.83248901 209.5677948 C-73.96463776 210.13541031 -73.0967865 210.70302582 -72.20263672 211.2878418 C-71.43748749 211.78873825 -70.67233826 212.2896347 -69.88400269 212.80570984 C-68.01776227 214.03326915 -68.01776227 214.03326915 -66 215 C-66 203.78 -66 192.56 -66 181 C-82.5 181 -99 181 -116 181 Z M-35 206 C-35 213.92 -35 221.84 -35 230 C-31.71948224 228.68779289 -29.15606285 227.61673391 -26.23046875 225.8359375 C-25.56982422 225.43632812 -24.90917969 225.03671875 -24.22851562 224.625 C-23.55498047 224.2125 -22.88144531 223.8 -22.1875 223.375 C-21.14819336 222.74464844 -21.14819336 222.74464844 -20.08789062 222.1015625 C-18.38989252 221.0710533 -16.69466386 220.03598319 -15 219 C-16.1557532 215.53274039 -16.71152851 215.28209351 -19.74609375 213.51953125 C-20.50083984 213.07802734 -21.25558594 212.63652344 -22.03320312 212.18164062 C-22.82662109 211.72982422 -23.62003906 211.27800781 -24.4375 210.8125 C-25.22705078 210.34908203 -26.01660156 209.88566406 -26.83007812 209.40820312 C-30.67796039 206.91845462 -30.67796039 206.91845462 -35 206 Z M22.8671875 208.40625 C22.06152344 208.90253906 21.25585938 209.39882812 20.42578125 209.91015625 C19.58402344 210.43480469 18.74226562 210.95945313 17.875 211.5 C17.02550781 212.02464844 16.17601562 212.54929688 15.30078125 213.08984375 C13.19803875 214.38929136 11.09793958 215.6928174 9 217 C10.1557532 220.46725961 10.71152851 220.71790649 13.74609375 222.48046875 C14.50083984 222.92197266 15.25558594 223.36347656 16.03320312 223.81835938 C16.82662109 224.27017578 17.62003906 224.72199219 18.4375 225.1875 C19.62182617 225.88262695 19.62182617 225.88262695 20.83007812 226.59179688 C24.67796039 229.08154538 24.67796039 229.08154538 29 230 C29 222.08 29 214.16 29 206 C26.33566865 206 25.12816336 207.00508186 22.8671875 208.40625 Z " fill="#030302" transform="translate(171,0)"/>
<path d="M0 0 C0.95950058 0.47125305 1.91900116 0.9425061 2.90757751 1.42803955 C5.97010634 2.93282773 9.03010738 4.44266802 12.08984375 5.953125 C15.1249576 7.44852693 18.16062113 8.94279303 21.1971283 10.43536377 C23.08145693 11.36188926 24.96495855 12.2900996 26.84742737 13.22039795 C33.85881077 16.67238538 40.9244977 19.92488836 48.02734375 23.203125 C48.02734375 47.953125 48.02734375 72.703125 48.02734375 98.203125 C6.44734375 98.203125 -35.13265625 98.203125 -77.97265625 98.203125 C-77.97265625 73.453125 -77.97265625 48.703125 -77.97265625 23.203125 C-61.51780997 15.20333807 -61.51780997 15.20333807 -54.72558594 11.91906738 C-48.72055252 9.01393502 -42.72468642 6.0957866 -36.77275085 3.08308411 C-34.90068762 2.13619816 -33.02492787 1.19710643 -31.14770508 0.26049805 C-28.86609726 -0.8810246 -26.59206987 -2.03785857 -24.3269043 -3.21166992 C-23.30636963 -3.71802979 -22.28583496 -4.22438965 -21.234375 -4.74609375 C-20.35740967 -5.19299561 -19.48044434 -5.63989746 -18.5769043 -6.1003418 C-12.38669513 -7.75597757 -5.47102003 -2.71028786 0 0 Z " fill="#F7EDDC" transform="translate(182.97265625,47.796875)"/>
<path d="M0 0 C0.99112793 -0.00945648 1.98225586 -0.01891296 3.00341797 -0.02865601 C4.07221191 -0.02258331 5.14100586 -0.01651062 6.2421875 -0.01025391 C7.34062988 -0.01312408 8.43907227 -0.01599426 9.57080078 -0.01895142 C11.89421097 -0.02099377 14.21763828 -0.01545204 16.54101562 -0.00292969 C20.10325462 0.01312082 23.66435892 -0.00277338 27.2265625 -0.02197266 C29.48177335 -0.01999026 31.73698348 -0.01614665 33.9921875 -0.01025391 C35.06098145 -0.0163266 36.12977539 -0.02239929 37.23095703 -0.02865601 C38.71764893 -0.01447128 38.71764893 -0.01447128 40.234375 0 C41.10690918 0.00238678 41.97944336 0.00477356 42.87841797 0.00723267 C45.1171875 0.38818359 45.1171875 0.38818359 46.89710999 1.53367615 C48.65516453 4.2059041 48.50560485 6.2639241 48.52124023 9.44848633 C48.53392441 10.69665634 48.54660858 11.94482635 48.55967712 13.2308197 C48.5576256 14.59447393 48.5546375 15.95812703 48.55078125 17.32177734 C48.55534226 18.72038528 48.56064759 20.11899096 48.56666565 21.51759338 C48.57560133 24.44891463 48.57316898 27.37996351 48.56323242 30.3112793 C48.55174605 34.06539264 48.57194529 37.8185649 48.60114956 41.57255459 C48.61950892 44.46110494 48.61921968 47.3494297 48.61351204 50.23802376 C48.61335877 51.62190127 48.6194082 53.00579401 48.63180351 54.38961601 C48.64670228 56.32585358 48.63341215 58.26224585 48.61889648 60.19848633 C48.61873032 61.2997435 48.61856415 62.40100067 48.61839294 63.53562927 C47.99170207 67.10236976 47.02849476 68.27637205 44.1171875 70.38818359 C41.84082031 70.89611816 41.84082031 70.89611816 39.3203125 70.90576172 C37.8986377 70.92467468 37.8986377 70.92467468 36.44824219 70.94396973 C34.92312012 70.93182434 34.92312012 70.93182434 33.3671875 70.91943359 C31.79179199 70.92517395 31.79179199 70.92517395 30.18457031 70.93103027 C27.96548503 70.93375055 25.74636776 70.92638136 23.52734375 70.90966797 C20.12948155 70.88826105 16.73373389 70.90946685 13.3359375 70.93505859 C11.17968283 70.93241534 9.02342948 70.92729041 6.8671875 70.91943359 C5.85043945 70.92753052 4.83369141 70.93562744 3.78613281 70.94396973 C2.36445801 70.92505676 2.36445801 70.92505676 0.9140625 70.90576172 C0.08229492 70.90257935 -0.74947266 70.89939697 -1.60644531 70.89611816 C-4.7997132 70.18359201 -5.95556039 69.00879742 -7.8828125 66.38818359 C-8.38401794 63.53562927 -8.38401794 63.53562927 -8.38452148 60.19848633 C-8.39390244 58.94716415 -8.40328339 57.69584198 -8.41294861 56.40660095 C-8.40247139 55.04498611 -8.39110252 53.68337787 -8.37890625 52.32177734 C-8.37906126 50.92220484 -8.3805506 49.52263191 -8.38331604 48.12306213 C-8.38469917 45.19342007 -8.37215576 42.26426812 -8.34936523 39.3347168 C-8.32095378 35.57951684 -8.32372578 31.82512938 -8.33645535 28.06986904 C-8.34340917 25.18135129 -8.33562725 22.29302143 -8.32319832 19.40452766 C-8.31868272 18.01984439 -8.31834798 16.63514096 -8.32226372 15.25045586 C-8.32517333 13.31643221 -8.30651821 11.38241231 -8.28686523 9.44848633 C-8.28146225 8.34802475 -8.27605927 7.24756317 -8.27049255 6.11375427 C-7.8828125 3.38818359 -7.8828125 3.38818359 -6.66273499 1.53367615 C-4.32073576 0.0264517 -2.77921651 0.00760243 0 0 Z " fill="#071011" transform="translate(147.8828125,65.61181640625)"/>
<path d="M0 0 C0.85875732 0.43368896 1.71751465 0.86737793 2.60229492 1.31420898 C3.51736816 1.77545166 4.43244141 2.23669434 5.37524414 2.71191406 C6.37571777 3.2471167 7.37619141 3.78231934 8.40698242 4.33374023 C9.53604004 4.93726318 10.66509766 5.54078613 11.82836914 6.16259766 C13.04481057 6.8170546 14.26111591 7.47176454 15.47729492 8.12670898 C16.09799866 8.45990143 16.71870239 8.79309387 17.35821533 9.13638306 C26.72387703 14.16554561 36.01375386 19.31614686 45.2487793 24.58203125 C53.06396476 29.03372792 60.94826396 33.3506082 68.86352539 37.62158203 C69.73380371 38.09249268 70.60408203 38.56340332 71.50073242 39.04858398 C72.27078613 39.46333984 73.04083984 39.8780957 73.83422852 40.30541992 C75.60229492 41.31420898 75.60229492 41.31420898 76.60229492 42.31420898 C76.67488438 44.50060352 76.68603275 46.68921287 76.66479492 48.87670898 C76.65577148 50.07424805 76.64674805 51.27178711 76.63745117 52.50561523 C76.62004883 53.89586914 76.62004883 53.89586914 76.60229492 55.31420898 C73.08902136 54.73214188 70.27216913 53.82464327 67.11010742 52.19702148 C66.25247803 51.76075439 65.39484863 51.3244873 64.51123047 50.875 C63.59253174 50.40118896 62.67383301 49.92737793 61.72729492 49.43920898 C59.73726726 48.42840391 57.74635399 47.41934083 55.75463867 46.41186523 C54.73354004 45.8951123 53.71244141 45.37835938 52.66040039 44.84594727 C46.96641561 41.99395457 41.21523609 39.26281628 35.46044922 36.53613281 C30.22010023 34.05151912 25.001566 31.53082708 19.80541992 28.95483398 C18.676604 28.39981201 17.54778809 27.84479004 16.38476562 27.27294922 C14.20158539 26.19848865 12.02279155 25.11505567 9.84912109 24.02148438 C8.85887939 23.53671631 7.8686377 23.05194824 6.84838867 22.55249023 C5.97883545 22.11976807 5.10928223 21.6870459 4.21337891 21.24121094 C-0.29144746 19.64188174 -3.31982629 19.89633088 -7.76806641 21.62084961 C-9.01122843 22.22532202 -10.24817557 22.84268768 -11.47973633 23.47045898 C-12.15928375 23.80472397 -12.83883118 24.13898895 -13.53897095 24.48338318 C-15.7682447 25.58286521 -17.98901796 26.69849365 -20.21020508 27.81420898 C-21.75980248 28.58180755 -23.31002332 29.34814872 -24.86083984 30.11328125 C-28.08089477 31.70304957 -31.29821022 33.29818291 -34.51391602 34.89672852 C-41.53898174 38.38226751 -48.60130393 41.79073333 -55.66268921 45.2019043 C-59.11608258 46.87065554 -62.56753086 48.5434114 -66.01879883 50.21655273 C-67.15760498 50.76819092 -68.29641113 51.3198291 -69.46972656 51.88818359 C-71.19837684 52.73009523 -72.91689144 53.59446758 -74.60888672 54.5078125 C-76.39770508 55.31420898 -76.39770508 55.31420898 -79.39770508 55.31420898 C-80.51623776 50.65000082 -80.74822319 46.95047038 -79.39770508 42.31420898 C-75.19990008 38.47353942 -70.38626689 36.20847697 -65.29125977 33.73950195 C-60.31174299 31.28671601 -55.45241832 28.60868336 -50.56985474 25.96960449 C-48.76740852 24.9988564 -46.96115815 24.03561707 -45.15332031 23.07495117 C-35.45045605 17.91761919 -25.86833523 12.56356854 -16.32348633 7.11889648 C-15.49929199 6.65451172 -14.67509766 6.19012695 -13.82592773 5.71166992 C-12.17660628 4.76247266 -10.54617708 3.77983086 -8.93432617 2.76831055 C-8.1526709 2.29103516 -7.37101562 1.81375977 -6.56567383 1.32202148 C-5.5392981 0.67064209 -5.5392981 0.67064209 -4.4921875 0.00610352 C-2.39770508 -0.68579102 -2.39770508 -0.68579102 0 0 Z " fill="#F47400" transform="translate(169.397705078125,11.685791015625)"/>
<path d="M0 0 C31.68 0 63.36 0 96 0 C96 4.95 96 9.9 96 15 C64.32 15 32.64 15 0 15 C0 10.05 0 5.1 0 0 Z " fill="#F4DDB8" transform="translate(10,156)"/>
<path d="M0 0 C2.97 0 5.94 0 9 0 C9 29.37 9 58.74 9 89 C6.03 89 3.06 89 0 89 C0 59.63 0 30.26 0 0 Z " fill="#ECE4F0" transform="translate(211,156)"/>
<path d="M0 0 C2.97 0 5.94 0 9 0 C9 29.37 9 58.74 9 89 C6.03 89 3.06 89 0 89 C0 59.63 0 30.26 0 0 Z " fill="#ECE4F0" transform="translate(116,156)"/>
<path d="M0 0 C11.22 0 22.44 0 34 0 C34 2.97 34 5.94 34 9 C22.78 9 11.56 9 0 9 C0 6.03 0 3.06 0 0 Z " fill="#05E2F8" transform="translate(151,116)"/>
<path d="M0 0 C11.22 0 22.44 0 34 0 C34 2.97 34 5.94 34 9 C22.78 9 11.56 9 0 9 C0 6.03 0 3.06 0 0 Z " fill="#07B9E5" transform="translate(151,96)"/>
<path d="M0 0 C11.22 0 22.44 0 34 0 C34 2.97 34 5.94 34 9 C22.78 9 11.56 9 0 9 C0 6.03 0 3.06 0 0 Z " fill="#05E2F8" transform="translate(151,76)"/>
<path d="M0 0 C1.3303125 0.00773437 1.3303125 0.00773437 2.6875 0.015625 C3.574375 0.01046875 4.46125 0.0053125 5.375 0 C7.6875 0.265625 7.6875 0.265625 9.6875 2.265625 C9.9375 4.765625 9.9375 4.765625 9.6875 7.265625 C7.6875 9.265625 7.6875 9.265625 5.375 9.53125 C4.488125 9.52609375 3.60125 9.5209375 2.6875 9.515625 C1.3571875 9.52335937 1.3571875 9.52335937 0 9.53125 C-2.3125 9.265625 -2.3125 9.265625 -4.3125 7.265625 C-4.5625 4.765625 -4.5625 4.765625 -4.3125 2.265625 C-2.3125 0.265625 -2.3125 0.265625 0 0 Z " fill="#000000" transform="translate(210.3125,95.734375)"/>
<path d="M0 0 C1.3303125 0.00773437 1.3303125 0.00773437 2.6875 0.015625 C3.574375 0.01046875 4.46125 0.0053125 5.375 0 C7.6875 0.265625 7.6875 0.265625 9.6875 2.265625 C9.9375 4.765625 9.9375 4.765625 9.6875 7.265625 C7.6875 9.265625 7.6875 9.265625 5.375 9.53125 C4.488125 9.52609375 3.60125 9.5209375 2.6875 9.515625 C1.3571875 9.52335937 1.3571875 9.52335937 0 9.53125 C-2.3125 9.265625 -2.3125 9.265625 -4.3125 7.265625 C-4.5625 4.765625 -4.5625 4.765625 -4.3125 2.265625 C-2.3125 0.265625 -2.3125 0.265625 0 0 Z " fill="#000000" transform="translate(120.3125,95.734375)"/>
</svg>
