<?xml version="1.0" encoding="UTF-8"?>
<svg version="1.1" xmlns="http://www.w3.org/2000/svg" width="600" height="600">
<path d="M0 0 C198 0 396 0 600 0 C600 198 600 396 600 600 C402 600 204 600 0 600 C0 402 0 204 0 0 Z " fill="#FEFEFE" transform="translate(0,0)"/>
<path d="M0 0 C115.5 0 231 0 350 0 C350 89.1 350 178.2 350 270 C234.5 270 119 270 0 270 C0 180.9 0 91.8 0 0 Z " fill="#FCFCFC" transform="translate(125,134)"/>
<path d="M0 0 C4.20837537 1.40279179 5.59882894 4.44418908 7.9375 8 C8.92736193 9.47204292 9.91828212 10.94337466 10.91015625 12.4140625 C11.42078613 13.17493164 11.93141602 13.93580078 12.45751953 14.71972656 C14.88275091 18.30498473 17.37462692 21.84190008 19.875 25.375 C20.37128906 26.0777002 20.86757813 26.78040039 21.37890625 27.50439453 C25.02632051 32.65636717 28.72754785 37.76797378 32.4375 42.875 C36.94080509 49.0754663 41.321064 55.34714219 45.625 61.6875 C49.93328449 68.0337122 54.34336733 74.27931683 58.90893555 80.44262695 C63.88113618 87.16252236 68.67995517 94.00207374 73.48388672 100.84277344 C75.48614998 103.69172644 77.49376355 106.53685949 79.50512695 109.37939453 C80.4999521 110.79063921 81.48940626 112.20568571 82.47338867 113.62451172 C85.01177241 117.27063758 87.61790028 120.80285368 90.421875 124.25 C91.2571875 125.31831055 91.2571875 125.31831055 92.109375 126.40820312 C93.15450513 127.74074405 94.23021186 129.05024276 95.34375 130.32617188 C101.30126419 138.08535366 99 142.84035619 99 154 C-1.32 154 -101.64 154 -205 154 C-205 92 -205 92 -200 87 C-198.97226621 85.98215119 -197.94375718 84.9650838 -196.9140625 83.94921875 C-191.67322716 78.75893555 -186.51331619 73.58517417 -181.73828125 67.95703125 C-178.78883658 64.63642051 -175.58033851 61.57330411 -172.421875 58.453125 C-169.6827805 55.67868734 -167.137572 52.77991845 -164.59375 49.828125 C-162.17422117 47.05278311 -159.72750313 44.4795483 -157 42 C-156.01 42 -155.02 42 -154 42 C-152.4140625 43.625 -152.4140625 43.625 -150.625 46 C-149.92632812 46.9075 -149.22765625 47.815 -148.5078125 48.75 C-148.1149707 49.26304687 -147.72212891 49.77609375 -147.31738281 50.3046875 C-144.7697969 53.58312274 -142.12641307 56.78466112 -139.5 60 C-135.3608549 65.0849333 -131.24369462 70.18587455 -127.15625 75.3125 C-124.28723143 78.88837821 -121.39344878 82.44387927 -118.5 86 C-114.98424582 90.32094958 -111.47275614 94.64433976 -108 99 C-104.46154024 103.43627791 -100.88994197 107.84514966 -97.3125 112.25 C-96.49168945 113.26126953 -96.49168945 113.26126953 -95.65429688 114.29296875 C-92.46333501 118.21851258 -89.24689973 122.12058733 -86 126 C-82.67675762 122.91627058 -80.20054552 119.53283577 -77.75 115.75 C-76.86483302 114.40478359 -75.97939704 113.05974416 -75.09375 111.71484375 C-74.60519531 110.96960449 -74.11664063 110.22436523 -73.61328125 109.45654297 C-64.88444509 96.16514627 -56.04361477 82.96088088 -46.88134766 69.96411133 C-42.25115602 63.38854514 -37.76295498 56.73121296 -33.33422852 50.01855469 C-28.67992578 42.97705881 -23.98702683 35.9624835 -19.23828125 28.984375 C-18.83498596 28.39168823 -18.43169067 27.79900146 -18.01617432 27.18835449 C-16.36358154 24.7606344 -14.71041496 22.3333098 -13.05541992 19.90722656 C-8.58039965 13.34514265 -4.1409395 6.78068301 0 0 Z " fill="#4D4D4D" transform="translate(353,227)"/>
<path d="M0 0 C115.5 0 231 0 350 0 C350 89.1 350 178.2 350 270 C234.5 270 119 270 0 270 C0 180.9 0 91.8 0 0 Z M14 16 C14 94.54 14 173.08 14 254 C120.26 254 226.52 254 336 254 C336 175.46 336 96.92 336 16 C229.74 16 123.48 16 14 16 Z " fill="#4F4F4F" transform="translate(125,134)"/>
<path d="M0 0 C6.4197408 3.46353797 10.70338146 8.09353427 13.1328125 15.01171875 C14.17028156 21.76337285 14.0323459 28.3196379 10.46875 34.296875 C6.84903792 38.94323057 2.76434446 42.2004073 -2.8671875 44.01171875 C-10.46272224 44.84810286 -17.65672883 44.86408167 -23.8671875 40.01171875 C-29.63821506 34.44726041 -32.1682322 29.95651674 -32.3671875 21.82421875 C-32.38169471 14.76006207 -30.88158584 10.06991096 -25.8671875 5.01171875 C-18.46618728 -1.452446 -9.41886251 -3.24655615 0 0 Z " fill="#4E4E4E" transform="translate(246.8671875,197.98828125)"/>
<path d="M0 0 C3.375 0.5 3.375 0.5 6.375 2.5 C6.375 1.84 6.375 1.18 6.375 0.5 C8.025 0.5 9.675 0.5 11.375 0.5 C11.52092789 4.20791544 11.60927895 7.91508726 11.6875 11.625 C11.72939453 12.67171875 11.77128906 13.7184375 11.81445312 14.796875 C11.95267444 23.5324619 11.95267444 23.5324619 9.13671875 27.203125 C5.56750695 30.17157838 3.97704091 30.26887926 -0.46484375 29.96484375 C-3.68079484 29.27280364 -5.46579903 27.93780754 -7.625 25.5 C-7.625 24.51 -7.625 23.52 -7.625 22.5 C-5.645 22.5 -3.665 22.5 -1.625 22.5 C-1.625 23.16 -1.625 23.82 -1.625 24.5 C0.685 24.5 2.995 24.5 5.375 24.5 C5.045 22.85 4.715 21.2 4.375 19.5 C4.045 19.83 3.715 20.16 3.375 20.5 C-2.8548784 21.08772438 -2.8548784 21.08772438 -6 18.6875 C-8.91777104 14.7597313 -9.11087074 11.27772893 -8.625 6.5 C-6.65425014 2.45245096 -4.56557531 0.62973453 0 0 Z " fill="#565656" transform="translate(264.625,436.5)"/>
<path d="M0 0 C6 0 6 0 7.49145508 1.34521484 C7.83072021 1.96090332 8.16998535 2.5765918 8.51953125 3.2109375 C8.90173828 3.87867188 9.28394531 4.54640625 9.67773438 5.234375 C10.05220703 5.94078125 10.42667969 6.6471875 10.8125 7.375 C11.20630859 8.07367188 11.60011719 8.77234375 12.00585938 9.4921875 C13.39314568 11.96693495 14.73117615 14.4623523 16 17 C16.33 11.39 16.66 5.78 17 0 C18.65 0 20.3 0 22 0 C22 9.24 22 18.48 22 28 C20.02 28 18.04 28 16 28 C14.19740027 25.82708691 12.99306208 24.06616933 11.6875 21.625 C11.34138672 21.02171875 10.99527344 20.4184375 10.63867188 19.796875 C9.36442017 17.5613457 8.15076093 15.30152187 7 13 C6.67 18.28 6.34 23.56 6 29 C4.02 29 2.04 29 0 29 C0 19.43 0 9.86 0 0 Z " fill="#5F5F5F" transform="translate(130,429)"/>
<path d="M0 0 C2.87029869 1.79393668 4.49131638 2.98263276 6 6 C6.34708476 11.29304255 6.51351894 14.73358414 3 19 C-0.42094119 21.56570589 -3.84773484 21.43708054 -8 21 C-10.75329021 19.20437595 -12.52627461 17.94745078 -14 15 C-14.61885492 10.00495675 -14.75635505 6.2199275 -12.0625 1.875 C-7.95133369 -0.6420406 -4.7063369 -0.94638296 0 0 Z " fill="#525252" transform="translate(171,437)"/>
<path d="M0 0 C6.33333333 0 12.66666667 0 19 0 C20.175625 -0.061875 21.35125 -0.12375 22.5625 -0.1875 C26 0 26 0 27.6965332 1.26098633 C29.27923492 3.37253986 29.3518816 4.39991567 29.29296875 7.01171875 C29.28330078 7.76904297 29.27363281 8.52636719 29.26367188 9.30664062 C29.23853516 10.09232422 29.21339844 10.87800781 29.1875 11.6875 C29.16719727 12.88342773 29.16719727 12.88342773 29.14648438 14.10351562 C29.11117089 16.06929967 29.05736447 18.03473582 29 20 C27.35 20 25.7 20 24 20 C23.67 15.05 23.34 10.1 23 5 C21.35 5.33 19.7 5.66 18 6 C17.67 10.62 17.34 15.24 17 20 C15.35 20 13.7 20 12 20 C11.67 15.05 11.34 10.1 11 5 C9.35 5.33 7.7 5.66 6 6 C5.67 10.62 5.34 15.24 5 20 C3.35 20 1.7 20 0 20 C0 13.4 0 6.8 0 0 Z " fill="#4D4D4D" transform="translate(202,437)"/>
<path d="M0 0 C0.96808594 -0.01675781 1.93617188 -0.03351563 2.93359375 -0.05078125 C6.01268194 0.37470939 6.6817678 0.9122435 8.5625 3.3125 C8.90307617 5.21362305 8.90307617 5.21362305 8.85546875 7.32421875 C8.84580078 8.08154297 8.83613281 8.83886719 8.82617188 9.61914062 C8.80103516 10.40482422 8.77589844 11.19050781 8.75 12 C8.72969727 13.19592773 8.72969727 13.19592773 8.70898438 14.41601562 C8.67367089 16.38179967 8.61986447 18.34723582 8.5625 20.3125 C7.428125 20.291875 6.29375 20.27125 5.125 20.25 C1.74674326 19.89672523 1.74674326 19.89672523 0.5625 21.3125 C-3.04027895 21.71280877 -4.8145462 21.75512507 -7.8125 19.625 C-9.4375 17.3125 -9.4375 17.3125 -9.875 14.75 C-9.35037213 11.82707329 -8.72006716 11.15067356 -6.4375 9.3125 C-4.17578125 8.58203125 -4.17578125 8.58203125 -1.75 8.125 C-0.53763672 7.88716797 -0.53763672 7.88716797 0.69921875 7.64453125 C1.62154297 7.48017578 1.62154297 7.48017578 2.5625 7.3125 C2.5625 6.3225 2.5625 5.3325 2.5625 4.3125 C0.5825 4.3125 -1.3975 4.3125 -3.4375 4.3125 C-3.4375 4.9725 -3.4375 5.6325 -3.4375 6.3125 C-5.0875 6.3125 -6.7375 6.3125 -8.4375 6.3125 C-7.34259159 0.83795796 -5.42805773 0.02162573 0 0 Z " fill="#5D5D5D" transform="translate(405.4375,436.6875)"/>
<path d="M0 0 C0.96808594 -0.01675781 1.93617188 -0.03351563 2.93359375 -0.05078125 C6.01268194 0.37470939 6.6817678 0.9122435 8.5625 3.3125 C8.90307617 5.21362305 8.90307617 5.21362305 8.85546875 7.32421875 C8.84580078 8.08154297 8.83613281 8.83886719 8.82617188 9.61914062 C8.80103516 10.40482422 8.77589844 11.19050781 8.75 12 C8.72969727 13.19592773 8.72969727 13.19592773 8.70898438 14.41601562 C8.67367089 16.38179967 8.61986447 18.34723582 8.5625 20.3125 C7.61375 20.291875 6.665 20.27125 5.6875 20.25 C2.65583717 20.08698174 2.65583717 20.08698174 0.5625 21.3125 C-3.04191333 21.70428406 -4.8214863 21.7231758 -7.875 19.6875 C-9.4375 17.3125 -9.4375 17.3125 -9.3125 14.1875 C-8.4375 11.3125 -8.4375 11.3125 -6.4375 9.3125 C-4.2734375 8.8984375 -4.2734375 8.8984375 -1.8125 8.6875 C-0.58660156 8.57535156 -0.58660156 8.57535156 0.6640625 8.4609375 C1.29054688 8.41195313 1.91703125 8.36296875 2.5625 8.3125 C2.5625 6.9925 2.5625 5.6725 2.5625 4.3125 C1.675625 4.6425 0.78875 4.9725 -0.125 5.3125 C-3.14673347 6.22472143 -5.32123706 6.49580958 -8.4375 6.3125 C-7.34259159 0.83795796 -5.42805773 0.02162573 0 0 Z " fill="#5D5D5D" transform="translate(320.4375,436.6875)"/>
<path d="M0 0 C3.99449676 1.08349822 5.11670028 3.02636904 7.16015625 6.5859375 C7.16015625 8.5659375 7.16015625 10.5459375 7.16015625 12.5859375 C2.87015625 12.5859375 -1.41984375 12.5859375 -5.83984375 12.5859375 C-5.17984375 13.9059375 -4.51984375 15.2259375 -3.83984375 16.5859375 C-1.08342959 16.08837658 -1.08342959 16.08837658 1.16015625 14.5859375 C2.8263274 14.54529918 4.4940372 14.5432165 6.16015625 14.5859375 C5.80408934 17.16742258 5.32687432 18.40639497 3.53515625 20.3359375 C0.14848083 22.11839825 -2.0648067 22.11576726 -5.83984375 21.5859375 C-8.71484375 19.1484375 -8.71484375 19.1484375 -10.83984375 16.5859375 C-11.16984375 16.2559375 -11.49984375 15.9259375 -11.83984375 15.5859375 C-12.50621787 11.06411313 -12.58294607 6.87392468 -9.90234375 3.0234375 C-6.34042816 0.18844346 -4.45641875 -0.3124701 0 0 Z " fill="#636363" transform="translate(462.83984375,436.4140625)"/>
<path d="M0 0 C0.87527344 -0.01417969 1.75054687 -0.02835937 2.65234375 -0.04296875 C5.0625 0.1875 5.0625 0.1875 8.0625 2.1875 C8.49487305 4.06689453 8.49487305 4.06689453 8.57421875 6.3203125 C8.62739258 7.52880859 8.62739258 7.52880859 8.68164062 8.76171875 C8.70419922 9.60347656 8.72675781 10.44523437 8.75 11.3125 C8.80124023 12.58673828 8.80124023 12.58673828 8.85351562 13.88671875 C8.93609173 15.98651105 9.00096978 18.08698564 9.0625 20.1875 C7.94875 20.166875 6.835 20.14625 5.6875 20.125 C2.23034079 19.92369282 2.23034079 19.92369282 0.0625 21.1875 C-5.19215839 21.63470497 -5.19215839 21.63470497 -7.8125 20.0625 C-9.51202613 17.22995644 -9.46591321 15.42403093 -8.9375 12.1875 C-5.40338175 8.22500377 -2.11730188 7.59375897 3.0625 7.1875 C2.7325 6.5275 2.4025 5.8675 2.0625 5.1875 C0.39638095 5.144779 -1.27132885 5.14686168 -2.9375 5.1875 C-3.2675 5.5175 -3.5975 5.8475 -3.9375 6.1875 C-5.60367115 6.22813832 -7.27138095 6.230221 -8.9375 6.1875 C-6.97061466 0.70831942 -5.74171626 0.04215651 0 0 Z " fill="#4F4F4F" transform="translate(362.9375,436.8125)"/>
<path d="M0 0 C2.08984375 0.4453125 2.08984375 0.4453125 4.58984375 1.9453125 C6.70258553 5.4665488 6.81745894 8.35954034 7.08984375 12.4453125 C2.79984375 12.4453125 -1.49015625 12.4453125 -5.91015625 12.4453125 C-5.25015625 13.7653125 -4.59015625 15.0853125 -3.91015625 16.4453125 C-2.59015625 16.4453125 -1.27015625 16.4453125 0.08984375 16.4453125 C0.41984375 15.7853125 0.74984375 15.1253125 1.08984375 14.4453125 C2.73984375 14.7753125 4.38984375 15.1053125 6.08984375 15.4453125 C4.72000872 18.60647026 4.10077995 19.4380217 1.08984375 21.4453125 C-2.28515625 21.8828125 -2.28515625 21.8828125 -5.91015625 21.4453125 C-8.78515625 19.0078125 -8.78515625 19.0078125 -10.91015625 16.4453125 C-11.24015625 16.1153125 -11.57015625 15.7853125 -11.91015625 15.4453125 C-12.57653037 10.92348813 -12.65325857 6.73329968 -9.97265625 2.8828125 C-6.36862064 0.01429436 -4.49015189 -0.34367219 0 0 Z " fill="#616161" transform="translate(290.91015625,436.5546875)"/>
<path d="M0 0 C0.87785156 0.00515625 1.75570312 0.0103125 2.66015625 0.015625 C3.53542969 0.01046875 4.41070312 0.0053125 5.3125 0 C7.72265625 0.265625 7.72265625 0.265625 10.72265625 2.265625 C11.1550293 4.14501953 11.1550293 4.14501953 11.234375 6.3984375 C11.28754883 7.60693359 11.28754883 7.60693359 11.34179688 8.83984375 C11.36435547 9.68160156 11.38691406 10.52335937 11.41015625 11.390625 C11.46139648 12.66486328 11.46139648 12.66486328 11.51367188 13.96484375 C11.59624798 16.06463605 11.66112603 18.16511064 11.72265625 20.265625 C10.60890625 20.245 9.49515625 20.224375 8.34765625 20.203125 C4.89049704 20.00181782 4.89049704 20.00181782 2.72265625 21.265625 C-2.53200214 21.71282997 -2.53200214 21.71282997 -5.15234375 20.140625 C-6.80588906 17.38471616 -6.67099943 15.41487048 -6.27734375 12.265625 C-4.08342047 9.38914781 -2.08254143 8.73616949 1.41015625 8.078125 C2.62251953 7.84029297 2.62251953 7.84029297 3.859375 7.59765625 C4.78169922 7.43330078 4.78169922 7.43330078 5.72265625 7.265625 C5.72265625 6.275625 5.72265625 5.285625 5.72265625 4.265625 C3.74265625 4.265625 1.76265625 4.265625 -0.27734375 4.265625 C-0.27734375 4.925625 -0.27734375 5.585625 -0.27734375 6.265625 C-1.92734375 6.265625 -3.57734375 6.265625 -5.27734375 6.265625 C-4.56477836 2.70279807 -3.99623312 0.46611295 0 0 Z " fill="#4A4A4A" transform="translate(241.27734375,436.734375)"/>
<path d="M0 0 C1.32 0 2.64 0 4 0 C4.06058594 0.68707031 4.12117188 1.37414062 4.18359375 2.08203125 C4.26738281 2.98308594 4.35117187 3.88414062 4.4375 4.8125 C4.51871094 5.70582031 4.59992188 6.59914063 4.68359375 7.51953125 C4.93489767 10.12743559 4.93489767 10.12743559 6 13 C6.04278083 14.37433431 6.04057273 15.75059873 6 17.125 C6 18.40375 6 19.6825 6 21 C7.06645115 22.29633621 7.06645115 22.29633621 9.5625 22.0625 C10.7690625 22.0315625 10.7690625 22.0315625 12 22 C12.66 19.36 13.32 16.72 14 14 C14.33 14.99 14.66 15.98 15 17 C15.66 17 16.32 17 17 17 C17 15.35 17 13.7 17 12 C17.66 12.33 18.32 12.66 19 13 C19.31817712 17.61356825 19.36922033 20.18771527 17.4375 24.4375 C15 27 15 27 11.4375 28 C8 28 8 28 5 26 C3.35 26.33 1.7 26.66 0 27 C0 18.09 0 9.18 0 0 Z " fill="#464646" transform="translate(419,430)"/>
<path d="M0 0 C1.65 0 3.3 0 5 0 C5 9.24 5 18.48 5 28 C3.02 28 1.04 28 -1 28 C-2.81896996 25.78560178 -4.05036585 23.97917909 -5.375 21.5 C-5.72949219 20.87996094 -6.08398438 20.25992187 -6.44921875 19.62109375 C-7.31961604 18.09201743 -8.16255124 16.54736725 -9 15 C-7.625 13 -7.625 13 -6 11 C-5.34 11 -4.68 11 -4 11 C-3.01 12.98 -2.02 14.96 -1 17 C-0.67 11.39 -0.34 5.78 0 0 Z " fill="#4F4F4F" transform="translate(147,429)"/>
<path d="M0 0 C1.98 0 3.96 0 6 0 C6 2.97 6 5.94 6 9 C6.66 8.67 7.32 8.34 8 8 C11.89940888 7.63894362 14.16918861 7.4599726 17.5 9.625 C19 12 19 12 18.75 15.25 C18.5025 16.1575 18.255 17.065 18 18 C17.34 18 16.68 18 16 18 C15.01 19.98 14.02 21.96 13 24 C10.625 24.125 10.625 24.125 8 24 C6 22 6 22 5.83984375 19.65234375 C5.87207031 18.75644531 5.90429688 17.86054688 5.9375 16.9375 C5.99178494 15.29243023 6.02031901 13.64583976 6 12 C5.67 11.67 5.34 11.34 5 11 C4.92794489 9.31391034 4.91613932 7.62499341 4.9375 5.9375 C4.94652344 5.01839844 4.95554687 4.09929687 4.96484375 3.15234375 C4.97644531 2.44207031 4.98804688 1.73179687 5 1 C3.68 1 2.36 1 1 1 C1 9.91 1 18.82 1 28 C0.67 28 0.34 28 0 28 C0 18.76 0 9.52 0 0 Z " fill="#808080" transform="translate(418,429)"/>
<path d="M0 0 C0.33 0 0.66 0 1 0 C1.11618764 3.91641711 1.18724654 7.83239101 1.25 11.75 C1.28351563 12.86117188 1.31703125 13.97234375 1.3515625 15.1171875 C1.36445313 16.18710937 1.37734375 17.25703125 1.390625 18.359375 C1.41157227 19.34389648 1.43251953 20.32841797 1.45410156 21.34277344 C0.87442719 24.73480349 -0.34440186 25.88681798 -3 28 C-7.49819847 29.09437387 -11.11323004 28.52482304 -15.0625 26.1875 C-17 24 -17 24 -17 21 C-15.02 21 -13.04 21 -11 21 C-11 21.66 -11 22.32 -11 23 C-8.69 23 -6.38 23 -4 23 C-4.33 21.35 -4.66 19.7 -5 18 C-5.33 18.33 -5.66 18.66 -6 19 C-8.33297433 19.04092937 -10.66705225 19.04241723 -13 19 C-13.66 17.68 -14.32 16.36 -15 15 C-14.34 14.34 -13.68 13.68 -13 13 C-12.01 13.33 -11.02 13.66 -10 14 C-7.36195411 13.60602665 -7.36195411 13.60602665 -5 13 C-4.34 11.02 -3.68 9.04 -3 7 C-2.34 8.32 -1.68 9.64 -1 11 C-0.67 7.37 -0.34 3.74 0 0 Z " fill="#535353" transform="translate(274,438)"/>
<path d="M0 0 C1.65 0 3.3 0 5 0 C6.32 3.63 7.64 7.26 9 11 C9.639375 9.55625 10.27875 8.1125 10.9375 6.625 C11.92496004 4.39525153 12.90942 2.18116 14 0 C15.98 0 17.96 0 20 0 C18.85865495 3.14748018 17.71117657 6.29268881 16.5625 9.4375 C16.23701172 10.33533203 15.91152344 11.23316406 15.57617188 12.15820312 C15.10727539 13.43920898 15.10727539 13.43920898 14.62890625 14.74609375 C14.1968689 15.93223267 14.1968689 15.93223267 13.75610352 17.14233398 C13 19 13 19 12 20 C10.33382885 20.04063832 8.66611905 20.042721 7 20 C5.82685974 17.23174812 4.66129785 14.46071514 3.5 11.6875 C2.99919922 10.50897461 2.99919922 10.50897461 2.48828125 9.30664062 C2.17246094 8.54931641 1.85664063 7.79199219 1.53125 7.01171875 C1.23798828 6.31522217 0.94472656 5.61872559 0.64257812 4.90112305 C0 3 0 3 0 0 Z " fill="#525252" transform="translate(332,437)"/>
<path d="M0 0 C1.65 0 3.3 0 5 0 C5 9.24 5 18.48 5 28 C3.35 28 1.7 28 0 28 C0 18.76 0 9.52 0 0 Z " fill="#4E4E4E" transform="translate(387,429)"/>
<path d="M0 0 C1.65 0 3.3 0 5 0 C5 9.24 5 18.48 5 28 C3.35 28 1.7 28 0 28 C0 18.76 0 9.52 0 0 Z " fill="#4E4E4E" transform="translate(442,429)"/>
<path d="M0 0 C1.98 0 3.96 0 6 0 C6 6.93 6 13.86 6 21 C4.02 21 2.04 21 0 21 C0 14.07 0 7.14 0 0 Z " fill="#636363" transform="translate(376,437)"/>
<path d="M0 0 C0.9796875 0.00515625 1.959375 0.0103125 2.96875 0.015625 C3.9484375 0.01046875 4.928125 0.0053125 5.9375 0 C8.46875 0.265625 8.46875 0.265625 10.46875 2.265625 C10.61382695 5.01048093 10.65527423 7.65043043 10.59375 10.390625 C10.58472656 11.14472656 10.57570313 11.89882813 10.56640625 12.67578125 C10.5428187 14.53919754 10.50694719 16.40245093 10.46875 18.265625 C9.47875 18.265625 8.48875 18.265625 7.46875 18.265625 C6.00367354 15.33547208 6.4473911 12.58794269 6.53125 9.359375 C6.61375866 7.20536978 6.61375866 7.20536978 5.46875 5.265625 C3.80263095 5.222904 2.13492115 5.22498668 0.46875 5.265625 C0.13875 5.595625 -0.19125 5.925625 -0.53125 6.265625 C-2.19742115 6.30626332 -3.86513095 6.308346 -5.53125 6.265625 C-4.78047647 2.51175737 -4.17022636 0.43761635 0 0 Z " fill="#4B4B4B" transform="translate(317.53125,436.734375)"/>
<path d="M0 0 C1.65 0 3.3 0 5 0 C5 6.6 5 13.2 5 20 C3.35 20 1.7 20 0 20 C0 13.4 0 6.8 0 0 Z " fill="#4E4E4E" transform="translate(192,437)"/>
<path d="M0 0 C3.54648681 0.08566393 4.3508454 0.21015228 7.1875 2.5625 C8.625 5.4375 8.625 5.4375 8.625 11.4375 C4.665 11.4375 0.705 11.4375 -3.375 11.4375 C-3.375 10.7775 -3.375 10.1175 -3.375 9.4375 C-0.735 9.4375 1.905 9.4375 4.625 9.4375 C3.965 8.1175 3.305 6.7975 2.625 5.4375 C-0.345 5.4375 -3.315 5.4375 -6.375 5.4375 C-6.375 0.63495126 -4.31724382 0.12191552 0 0 Z " fill="#4A4A4A" transform="translate(460.375,436.5625)"/>
<path d="M0 0 C2.4375 0.8125 2.4375 0.8125 4.4375 2.8125 C4.771228 5.94954316 4.96599028 7.97804166 3.25 10.6875 C0.79813578 12.20934676 -0.73068902 12.24816323 -3.5625 11.8125 C-5.87532587 8.34326119 -5.98728586 6.89044425 -5.5625 2.8125 C-3.8855372 0.07640281 -3.22049925 -0.23564629 0 0 Z " fill="#F2F2F2" transform="translate(167.5625,441.1875)"/>
<path d="M0 0 C0 2.64 0 5.28 0 8 C-3.39731629 10.09065618 -6.04269405 10.42098999 -10 10 C-11.875 8.875 -11.875 8.875 -13 7 C-13.1875 3.8125 -13.1875 3.8125 -13 1 C-12.67 1.99 -12.34 2.98 -12 4 C-11.01 4 -10.02 4 -9 4 C-8.34 3.01 -7.68 2.02 -7 1 C-4 0 -4 0 0 0 Z " fill="#525252" transform="translate(248,448)"/>
<path d="M0 0 C0.66 0.33 1.32 0.66 2 1 C2.31817712 5.61356825 2.36922033 8.18771527 0.4375 12.4375 C-2 15 -2 15 -5.625 16 C-6.73875 16 -7.8525 16 -9 16 C-9.66 15.34 -10.32 14.68 -11 14 C-11 13.67 -11 13.34 -11 13 C-11.32380126 11.66431979 -11.65657551 10.33076989 -12 9 C-9.69 9.33 -7.38 9.66 -5 10 C-4.34 7.36 -3.68 4.72 -3 2 C-2.67 2.99 -2.34 3.98 -2 5 C-1.34 5 -0.68 5 0 5 C0 3.35 0 1.7 0 0 Z " fill="#515151" transform="translate(436,442)"/>
<path d="M0 0 C4.55555556 0.55555556 4.55555556 0.55555556 6 2 C6.0979057 3.49738124 6.12974864 4.99942892 6.125 6.5 C6.12757813 7.3146875 6.13015625 8.129375 6.1328125 8.96875 C6 11 6 11 5 12 C2.5625 12.1875 2.5625 12.1875 0 12 C-2 10 -2 10 -2.265625 8.125 C-2.26046875 7.42375 -2.2553125 6.7225 -2.25 6 C-2.25515625 5.29875 -2.2603125 4.5975 -2.265625 3.875 C-2 2 -2 2 0 0 Z " fill="#F8F8F8" transform="translate(426,441)"/>
<path d="M0 0 C4.55555556 0.55555556 4.55555556 0.55555556 6 2 C6.27314815 7.73611111 6.27314815 7.73611111 6 10 C5.34 10.66 4.68 11.32 4 12 C-0.55555556 11.44444444 -0.55555556 11.44444444 -2 10 C-2.27314815 4.26388889 -2.27314815 4.26388889 -2 2 C-1.34 1.34 -0.68 0.68 0 0 Z " fill="#F8F8F8" transform="translate(264,441)"/>
<path d="M0 0 C6.25 -0.48076923 6.25 -0.48076923 9.4375 1.5625 C11.5248128 4.81870797 11.2915423 7.20995016 11 11 C7.04 11 3.08 11 -1 11 C-1 10.34 -1 9.68 -1 9 C1.64 9 4.28 9 7 9 C6.36020151 6.96758273 6.36020151 6.96758273 5 5 C2.44480079 4.18828772 2.44480079 4.18828772 0 4 C0 2.68 0 1.36 0 0 Z " fill="#545454" transform="translate(286,437)"/>
<path d="M0 0 C0.87785156 0.00515625 1.75570312 0.0103125 2.66015625 0.015625 C3.53542969 0.01046875 4.41070312 0.0053125 5.3125 0 C7.72265625 0.265625 7.72265625 0.265625 10.72265625 2.265625 C10.39265625 3.915625 10.06265625 5.565625 9.72265625 7.265625 C9.39265625 6.605625 9.06265625 5.945625 8.72265625 5.265625 C8.06265625 5.265625 7.40265625 5.265625 6.72265625 5.265625 C6.72265625 6.255625 6.72265625 7.245625 6.72265625 8.265625 C5.73265625 7.935625 4.74265625 7.605625 3.72265625 7.265625 C4.38265625 7.265625 5.04265625 7.265625 5.72265625 7.265625 C5.72265625 6.275625 5.72265625 5.285625 5.72265625 4.265625 C3.74265625 4.265625 1.76265625 4.265625 -0.27734375 4.265625 C-0.27734375 4.925625 -0.27734375 5.585625 -0.27734375 6.265625 C-1.92734375 6.265625 -3.57734375 6.265625 -5.27734375 6.265625 C-4.56477836 2.70279807 -3.99623312 0.46611295 0 0 Z " fill="#515151" transform="translate(241.27734375,436.734375)"/>
<path d="M0 0 C0.66 0.66 1.32 1.32 2 2 C4.78302919 2.20872719 6.48718205 2.25640898 9 1 C9 1.66 9 2.32 9 3 C9.99 3.33 10.98 3.66 12 4 C12 4.66 12 5.32 12 6 C8.34148709 8.34144827 5.27169964 8.44965259 1 8 C-1.9375 6 -1.9375 6 -4 4 C-3.67 3.01 -3.34 2.02 -3 1 C-2.01 0.67 -1.02 0.34 0 0 Z " fill="#565656" transform="translate(162,450)"/>
<path d="M0 0 C0.8353125 0.37125 0.8353125 0.37125 1.6875 0.75 C1.0275 0.75 0.3675 0.75 -0.3125 0.75 C-0.3125 1.41 -0.3125 2.07 -0.3125 2.75 C1.3375 2.75 2.9875 2.75 4.6875 2.75 C4.3575 4.4 4.0275 6.05 3.6875 7.75 C1.375 8.375 1.375 8.375 -1.3125 8.75 C-2.3025 8.09 -3.2925 7.43 -4.3125 6.75 C-5.3025 7.74 -6.2925 8.73 -7.3125 9.75 C-7.625 7 -7.625 7 -7.3125 3.75 C-3.50153592 -0.37854442 -3.50153592 -0.37854442 0 0 Z " fill="#595959" transform="translate(361.3125,445.25)"/>
<path d="M0 0 C0.9796875 -0.01675781 1.959375 -0.03351563 2.96875 -0.05078125 C4.22171875 0.12904297 4.22171875 0.12904297 5.5 0.3125 C6.16 1.3025 6.82 2.2925 7.5 3.3125 C6.84 4.6325 6.18 5.9525 5.5 7.3125 C4.84 7.3125 4.18 7.3125 3.5 7.3125 C3.17 6.6525 2.84 5.9925 2.5 5.3125 C-0.52934491 4.65477572 -0.52934491 4.65477572 -3.5 4.3125 C-3.5 4.9725 -3.5 5.6325 -3.5 6.3125 C-5.15 6.3125 -6.8 6.3125 -8.5 6.3125 C-7.39817627 0.80338137 -5.45414864 0.02152953 0 0 Z " fill="#4D4D4D" transform="translate(405.5,436.6875)"/>
<path d="M0 0 C2 3 2 3 1.75 6.5625 C1 10 1 10 -1 12 C-4.125 11.625 -4.125 11.625 -7 11 C-8.125 7.25 -8.125 7.25 -7 5 C-7.66 4.67 -8.32 4.34 -9 4 C-4.545 3.505 -4.545 3.505 0 3 C0 2.01 0 1.02 0 0 Z " fill="#676767" transform="translate(323,442)"/>
<path d="M0 0 C0.33 0.66 0.66 1.32 1 2 C1.99 1.67 2.98 1.34 4 1 C4 3.64 4 6.28 4 9 C3.01 9.33 2.02 9.66 1 10 C1 10.66 1 11.32 1 12 C-1.31 12 -3.62 12 -6 12 C-6 10.35 -6 8.7 -6 7 C-3.69 6.34 -1.38 5.68 1 5 C1 4.34 1 3.68 1 3 C0.01 2.67 -0.98 2.34 -2 2 C-1.34 2 -0.68 2 0 2 C0 1.34 0 0.68 0 0 Z " fill="#5E5E5E" transform="translate(408,442)"/>
<path d="M0 0 C1.65 0 3.3 0 5 0 C5 7.59 5 15.18 5 23 C4.67 23 4.34 23 4 23 C3.67 19.7 3.34 16.4 3 13 C2.01 13 1.02 13 0 13 C-0.33 13 -0.66 13 -1 13 C-1.02708567 11.39592672 -1.04643483 9.7917215 -1.0625 8.1875 C-1.07410156 7.29417969 -1.08570313 6.40085937 -1.09765625 5.48046875 C-1 3 -1 3 0 0 Z " fill="#696969" transform="translate(271,437)"/>
<path d="M0 0 C0.886875 -0.01417969 1.77375 -0.02835937 2.6875 -0.04296875 C5 0.1875 5 0.1875 7 2.1875 C3.44284458 4.62669229 1.29702416 5.42622356 -3 5.1875 C-3.33 5.5175 -3.66 5.8475 -4 6.1875 C-5.66617115 6.22813832 -7.33388095 6.230221 -9 6.1875 C-7.02121906 0.67518167 -5.77292701 0.04195441 0 0 Z " fill="#555555" transform="translate(363,436.8125)"/>
<path d="M0 0 C1.33333333 0 2.66666667 0 4 0 C4.33 4.95 4.66 9.9 5 15 C3.35 15 1.7 15 0 15 C0 10.05 0 5.1 0 0 Z " fill="#4A4A4A" transform="translate(226,442)"/>
<path d="M0 0 C0.99 0 1.98 0 3 0 C3.06058594 0.61488281 3.12117188 1.22976563 3.18359375 1.86328125 C3.26738281 2.67152344 3.35117187 3.47976563 3.4375 4.3125 C3.51871094 5.11300781 3.59992188 5.91351563 3.68359375 6.73828125 C3.95265693 9.16087179 3.95265693 9.16087179 5 12 C4.5625 14.6875 4.5625 14.6875 4 17 C3.67 15.68 3.34 14.36 3 13 C2.34 13 1.68 13 1 13 C1.20625 13.61875 1.4125 14.2375 1.625 14.875 C1.74875 15.57625 1.8725 16.2775 2 17 C1.34 17.66 0.68 18.32 0 19 C0 12.73 0 6.46 0 0 Z " fill="#505050" transform="translate(420,431)"/>
<path d="M0 0 C0.99 0.66 1.98 1.32 3 2 C5.63434254 1.67873872 7.62710097 1.18644952 10 0 C10 1.65 10 3.3 10 5 C6.60535554 7.08901197 3.95158471 7.34361606 0 7 C-0.66 6.34 -1.32 5.68 -2 5 C-1.46428571 1.46428571 -1.46428571 1.46428571 0 0 Z " fill="#535353" transform="translate(357,451)"/>
<path d="M0 0 C-0.35606691 2.58148508 -0.83328193 3.82045747 -2.625 5.75 C-5.83134123 7.43754802 -8.43348514 7.20576047 -12 7 C-12 6.34 -12 5.68 -12 5 C-8.43798891 1.61249666 -5.06970846 -0.76813765 0 0 Z " fill="#5F5F5F" transform="translate(469,451)"/>
<path d="M0 0 C1.65 0 3.3 0 5 0 C6.53656962 2.4404341 7.02089707 3.70744102 6.8125 6.625 C6 9 6 9 3 11 C2.49384702 9.73160474 1.99530901 8.46016898 1.5 7.1875 C1.2215625 6.47980469 0.943125 5.77210938 0.65625 5.04296875 C0 3 0 3 0 0 Z " fill="#565656" transform="translate(332,437)"/>
<path d="M0 0 C1.65 0.33 3.3 0.66 5 1 C3.63016497 4.16115776 3.0109362 4.9927092 0 7 C-2.33199388 7.07905064 -4.66832622 7.08798769 -7 7 C-6.67 5.68 -6.34 4.36 -6 3 C-5.195625 2.87625 -4.39125 2.7525 -3.5625 2.625 C-2.716875 2.41875 -1.87125 2.2125 -1 2 C-0.67 1.34 -0.34 0.68 0 0 Z " fill="#535353" transform="translate(292,451)"/>
<path d="M0 0 C0 0.66 0 1.32 0 2 C-1.11375 2.4125 -2.2275 2.825 -3.375 3.25 C-5.99320695 4.35546516 -6.83493089 4.74880787 -8.4375 7.1875 C-8.623125 7.785625 -8.80875 8.38375 -9 9 C-9.33 8.34 -9.66 7.68 -10 7 C-10.66 7 -11.32 7 -12 7 C-11.67 5.35 -11.34 3.7 -11 2 C-7.17679443 0.57741188 -4.08718695 -0.24042276 0 0 Z " fill="#4E4E4E" transform="translate(409,445)"/>
<path d="M0 0 C5.98993047 -0.3152595 9.63560356 0.31780178 15 3 C11.52311757 5.11096433 11.52311757 5.11096433 8.9375 4.5625 C8.298125 4.376875 7.65875 4.19125 7 4 C6.01 4.33 5.02 4.66 4 5 C2.33378384 5.03874921 0.66605828 5.0450286 -1 5 C-0.67 3.35 -0.34 1.7 0 0 Z " fill="#595959" transform="translate(209,437)"/>
<path d="M0 0 C1.98 0 3.96 0 6 0 C6 0.66 6 1.32 6 2 C7.98 2 9.96 2 12 2 C11.67 2.99 11.34 3.98 11 5 C3.54961832 6.34351145 3.54961832 6.34351145 1 4.75 C0 3 0 3 0 0 Z " fill="#5F5F5F" transform="translate(257,459)"/>
<path d="M0 0 C-0.3125 1.9375 -0.3125 1.9375 -1 4 C-1.99 4.33 -2.98 4.66 -4 5 C-5.66710346 6.49985609 -5.66710346 6.49985609 -7 8 C-7.66 7.67 -8.32 7.34 -9 7 C-8.8125 4.625 -8.8125 4.625 -8 2 C-5.11090151 0.40339294 -3.30941204 0 0 0 Z " fill="#525252" transform="translate(245,445)"/>
<path d="M0 0 C1.21816406 0.03480469 1.21816406 0.03480469 2.4609375 0.0703125 C3.68683594 0.09738281 3.68683594 0.09738281 4.9375 0.125 C5.87722656 0.15980469 5.87722656 0.15980469 6.8359375 0.1953125 C5.8359375 2.1328125 5.8359375 2.1328125 3.8359375 4.1953125 C1.13669178 4.86080701 -1.37037887 5.01212013 -4.1640625 5.1953125 C-4.1640625 1.64330594 -3.69375211 0.33337113 0 0 Z " fill="#515151" transform="translate(458.1640625,436.8046875)"/>
<path d="M0 0 C-0.33 1.65 -0.66 3.3 -1 5 C-2.65 5.33 -4.3 5.66 -6 6 C-6.33 4.68 -6.66 3.36 -7 2 C-4 0 -4 0 0 0 Z " fill="#EAEAEA" transform="translate(366,448)"/>
<path d="M0 0 C0.33 0 0.66 0 1 0 C1 7.26 1 14.52 1 22 C0.67 22 0.34 22 0 22 C-0.16276042 19.98177083 -0.32552083 17.96354167 -0.48828125 15.9453125 C-0.87393036 13.60480784 -0.87393036 13.60480784 -4 12 C-3.67 10.35 -3.34 8.7 -3 7 C-2.34 8.32 -1.68 9.64 -1 11 C-0.67 7.37 -0.34 3.74 0 0 Z " fill="#414141" transform="translate(274,438)"/>
<path d="M0 0 C0.99 0 1.98 0 3 0 C3.33 0.66 3.66 1.32 4 2 C4.99 2.66 5.98 3.32 7 4 C3.49223216 5.60355101 0.85645121 6.22036864 -3 6 C-2.42655063 3.13275314 -2.1385485 2.1385485 0 0 Z " fill="#5E5E5E" transform="translate(315,437)"/>
<path d="M0 0 C-0.33 1.65 -0.66 3.3 -1 5 C-2.65 5.33 -4.3 5.66 -6 6 C-6.33 4.68 -6.66 3.36 -7 2 C-4.35261084 0.5393715 -3.10551666 0 0 0 Z " fill="#EBEBEB" transform="translate(247,448)"/>
<path d="M0 0 C0.66 1.65 1.32 3.3 2 5 C0.68 6.32 -0.64 7.64 -2 9 C-2.99 7.02 -3.98 5.04 -5 3 C-2.25 0 -2.25 0 0 0 Z " fill="#595959" transform="translate(143,440)"/>
<path d="M0 0 C0.99 0 1.98 0 3 0 C3.33 0.66 3.66 1.32 4 2 C4.99 2.66 5.98 3.32 7 4 C5.35 4 3.7 4 2 4 C2 4.66 2 5.32 2 6 C0.35 6 -1.3 6 -3 6 C-2.42655063 3.13275314 -2.1385485 2.1385485 0 0 Z " fill="#5A5A5A" transform="translate(400,437)"/>
<path d="M0 0 C0 1.98 0 3.96 0 6 C-2.31 6 -4.62 6 -7 6 C-7.33 4.68 -7.66 3.36 -8 2 C-1.125 0 -1.125 0 0 0 Z " fill="#E8E8E8" transform="translate(270,455)"/>
<path d="M0 0 C0 1.65 0 3.3 0 5 C-1.98 5.33 -3.96 5.66 -6 6 C-6 4.35 -6 2.7 -6 1 C-4 0 -4 0 0 0 Z " fill="#EBEBEB" transform="translate(408,448)"/>
<path d="M0 0 C1.65 0 3.3 0 5 0 C5.33 0.99 5.66 1.98 6 3 C4.68 3.33 3.36 3.66 2 4 C1.67 8.95 1.34 13.9 1 19 C0.67 19 0.34 19 0 19 C0 12.73 0 6.46 0 0 Z " fill="#565656" transform="translate(202,437)"/>
<path d="M0 0 C1.98 0 3.96 0 6 0 C6 0.99 6 1.98 6 3 C1.05 4.485 1.05 4.485 -4 6 C-4 5.34 -4 4.68 -4 4 C-2.68 3.34 -1.36 2.68 0 2 C0 1.34 0 0.68 0 0 Z " fill="#EFEFEF" transform="translate(241,441)"/>
<path d="M0 0 C2.97 0.33 5.94 0.66 9 1 C7.25 3.0625 7.25 3.0625 5 5 C2.75 4.75 2.75 4.75 1 4 C0.67 2.68 0.34 1.36 0 0 Z " fill="#F5F5F5" transform="translate(457,449)"/>
<path d="M0 0 C0 1.65 0 3.3 0 5 C-1.65 5.33 -3.3 5.66 -5 6 C-5.33 4.35 -5.66 2.7 -6 1 C-3.92446352 0.4465236 -2.15634036 0 0 0 Z " fill="#EEEEEE" transform="translate(323,448)"/>
<path d="M0 0 C1.98 0 3.96 0 6 0 C6 0.99 6 1.98 6 3 C2.91190305 4.76462683 1.76687864 5 -2 5 C-2 4.01 -2 3.02 -2 2 C-1.34 2 -0.68 2 0 2 C0 1.34 0 0.68 0 0 Z " fill="#ECECEC" transform="translate(402,441)"/>
<path d="M0 0 C1.98 0 3.96 0 6 0 C6 1.65 6 3.3 6 5 C4.02 5 2.04 5 0 5 C0 3.35 0 1.7 0 0 Z " fill="#646464" transform="translate(376,429)"/>
<path d="M0 0 C0.66 0.66 1.32 1.32 2 2 C2.66 1.67 3.32 1.34 4 1 C4 2.32 4 3.64 4 5 C0.04 5 -3.92 5 -8 5 C-8 4.34 -8 3.68 -8 3 C-5.36 3 -2.72 3 0 3 C0 2.01 0 1.02 0 0 Z " fill="#474747" transform="translate(293,443)"/>
<path d="M0 0 C2.4375 0.75 2.4375 0.75 5 2 C5.8125 4.125 5.8125 4.125 6 6 C4.35 6 2.7 6 1 6 C-0.0625 4.125 -0.0625 4.125 -1 2 C-0.67 1.34 -0.34 0.68 0 0 Z " fill="#4B4B4B" transform="translate(260,451)"/>
<path d="M0 0 C0 1.32 0 2.64 0 4 C-2.31 4.33 -4.62 4.66 -7 5 C-7.33 4.01 -7.66 3.02 -8 2 C-4.77208445 -0.1519437 -3.71599191 -0.20086443 0 0 Z " fill="#EDEDED" transform="translate(323,441)"/>
<path d="M0 0 C3.77545388 1.09068668 6.47043472 1.9083091 9 5 C8.67 5.66 8.34 6.32 8 7 C5.69 6.67 3.38 6.34 1 6 C1.33 5.34 1.66 4.68 2 4 C1.34 3.67 0.68 3.34 0 3 C0 2.01 0 1.02 0 0 Z " fill="#686868" transform="translate(424,451)"/>
<path d="M0 0 C0.33 0.66 0.66 1.32 1 2 C1.99 2.33 2.98 2.66 4 3 C2.35 3 0.7 3 -1 3 C-1 3.66 -1 4.32 -1 5 C-2.65 5 -4.3 5 -6 5 C-5.67 3.68 -5.34 2.36 -5 1 C-3.35 0.67 -1.7 0.34 0 0 Z " fill="#595959" transform="translate(242,438)"/>
<path d="M0 0 C1.98 0 3.96 0 6 0 C6.66 1.32 7.32 2.64 8 4 C5.36 4 2.72 4 0 4 C0 2.68 0 1.36 0 0 Z " fill="#4A4A4A" transform="translate(164,437)"/>
<path d="M0 0 C0.33 0 0.66 0 1 0 C1 2.64 1 5.28 1 8 C-2.4019487 10.09350689 -5.05272412 10.17942163 -9 10 C-9 9.67 -9 9.34 -9 9 C-7.35 8.67 -5.7 8.34 -4 8 C-4.33 7.34 -4.66 6.68 -5 6 C-4.360625 5.7525 -3.72125 5.505 -3.0625 5.25 C-0.81258459 4.18437567 -0.81258459 4.18437567 -0.25 1.875 C-0.1675 1.25625 -0.085 0.6375 0 0 Z " fill="#666666" transform="translate(247,448)"/>
<path d="M0 0 C1.65 0 3.3 0 5 0 C5.33 1.32 5.66 2.64 6 4 C3.69 4 1.38 4 -1 4 C-0.67 2.68 -0.34 1.36 0 0 Z " fill="#F0F0F0" transform="translate(458,441)"/>
<path d="M0 0 C1.65 0 3.3 0 5 0 C5.33 1.32 5.66 2.64 6 4 C3.69 4 1.38 4 -1 4 C-0.67 2.68 -0.34 1.36 0 0 Z " fill="#F0F0F0" transform="translate(286,441)"/>
<path d="M0 0 C1.2065625 0.0309375 1.2065625 0.0309375 2.4375 0.0625 C2.7675 1.0525 3.0975 2.0425 3.4375 3.0625 C1.1275 3.3925 -1.1825 3.7225 -3.5625 4.0625 C-3.5625 0.08689024 -3.5625 0.08689024 0 0 Z " fill="#F2F2F2" transform="translate(362.5625,440.9375)"/>
<path d="M0 0 C1.65 0 3.3 0 5 0 C5 1.65 5 3.3 5 5 C3.35 5 1.7 5 0 5 C0 3.35 0 1.7 0 0 Z " fill="#555555" transform="translate(192,429)"/>
<path d="M0 0 C0.33 0.66 0.66 1.32 1 2 C1.99 2.33 2.98 2.66 4 3 C4 3.66 4 4.32 4 5 C1 6 1 6 -1.0625 5.1875 C-3 4 -3 4 -5 2 C-3.35 1.34 -1.7 0.68 0 0 Z " fill="#636363" transform="translate(170,451)"/>
<path d="M0 0 C0.33 0 0.66 0 1 0 C1.33 2.64 1.66 5.28 2 8 C1.01 8.33 0.02 8.66 -1 9 C-1.66 9.66 -2.32 10.32 -3 11 C-3.33 9.35 -3.66 7.7 -4 6 C-3.01 5.67 -2.02 5.34 -1 5 C-0.67 3.35 -0.34 1.7 0 0 Z " fill="#5E5D5E" transform="translate(261,444)"/>
<path d="M0 0 C0.639375 0.33 1.27875 0.66 1.9375 1 C3.76794567 2.07271225 3.76794567 2.07271225 5 2 C5 3.65 5 5.3 5 7 C4.01 7.33 3.02 7.66 2 8 C1.34 7.67 0.68 7.34 0 7 C0 4.69 0 2.38 0 0 Z " fill="#4D4D4D" transform="translate(157,445)"/>
<path d="M0 0 C2.31 0.33 4.62 0.66 7 1 C7 1.99 7 2.98 7 4 C6.01 4.495 6.01 4.495 5 5 C2.96855359 4.06553465 0.96466413 3.06775224 -1 2 C-0.67 1.34 -0.34 0.68 0 0 Z " fill="#525252" transform="translate(428,437)"/>
<path d="M0 0 C0.66 0.66 1.32 1.32 2 2 C1.625 4.625 1.625 4.625 1 7 C0.34 7 -0.32 7 -1 7 C-1.66 7.99 -2.32 8.98 -3 10 C-3.36923077 3.47692308 -3.36923077 3.47692308 -1.5 1.0625 C-1.005 0.711875 -0.51 0.36125 0 0 Z " fill="#5E5E5E" transform="translate(435,440)"/>
<path d="M0 0 C2.31 0.66 4.62 1.32 7 2 C6.67 2.99 6.34 3.98 6 5 C4.35 4.67 2.7 4.34 1 4 C0.67 2.68 0.34 1.36 0 0 Z " fill="#E7E7E7" transform="translate(285,449)"/>
<path d="M0 0 C1.32 0 2.64 0 4 0 C4 0.66 4 1.32 4 2 C4.66 2.33 5.32 2.66 6 3 C5 4 5 4 1.4375 4.0625 C0.303125 4.041875 -0.83125 4.02125 -2 4 C-2 2 -2 2 0 0 Z " fill="#565656" transform="translate(459,454)"/>
<path d="M0 0 C0.33 0.99 0.66 1.98 1 3 C1.66 3 2.32 3 3 3 C3.33 3.99 3.66 4.98 4 6 C3.34 6.66 2.68 7.32 2 8 C-0.1519437 4.77208445 -0.20086443 3.71599191 0 0 Z M5 1 C5.33 2.32 5.66 3.64 6 5 C5.34 4.67 4.68 4.34 4 4 C4.33 3.01 4.66 2.02 5 1 Z " fill="#676767" transform="translate(396,449)"/>
<path d="M0 0 C0.33 0.66 0.66 1.32 1 2 C1.66 2 2.32 2 3 2 C3 3.98 3 5.96 3 8 C2.34 6.68 1.68 5.36 1 4 C0.01 4.33 -0.98 4.66 -2 5 C-2.33 3.68 -2.66 2.36 -3 1 C-2.01 0.67 -1.02 0.34 0 0 Z " fill="#616161" transform="translate(268,452)"/>
<path d="M0 0 C2.125 0.9375 2.125 0.9375 4 2 C1.75 3.625 1.75 3.625 -1 5 C-3.3125 4.1875 -3.3125 4.1875 -5 3 C-4.01 3 -3.02 3 -2 3 C-2 2.34 -2 1.68 -2 1 C-1.34 0.67 -0.68 0.34 0 0 Z " fill="#5D5D5D" transform="translate(366,437)"/>
<path d="M0 0 C2.31 0 4.62 0 7 0 C5 3 5 3 2.375 3.6875 C1.199375 3.8421875 1.199375 3.8421875 0 4 C0 2.68 0 1.36 0 0 Z " fill="#4D4D4D" transform="translate(286,437)"/>
<path d="M0 0 C0 1.65 0 3.3 0 5 C-0.99 5.33 -1.98 5.66 -3 6 C-3.99 5.01 -4.98 4.02 -6 3 C-1.125 0 -1.125 0 0 0 Z " fill="#595959" transform="translate(367,451)"/>
</svg>
